<?xml version="1.0" standalone="no"?>
<!DOCTYPE svg PUBLIC "-//W3C//DTD SVG 1.1//EN" "http://www.w3.org/Graphics/SVG/1.1/DTD/svg11.dtd" >
<svg>
<metadata>
Created by FontForge 20090622 at Mon May 20 11:34:33 2019
 By deploy user
&#194;&#169; 1992, 1994, 1997, 2000, 2004 Adobe Systems Incorporated. All rights reserved.
</metadata>
<defs>
<font id="MyriadPro-Regular" horiz-adv-x="300" >
  <font-face 
    font-family="Myriad Pro"
    font-weight="400"
    font-stretch="normal"
    units-per-em="1000"
    panose-1="2 11 5 3 3 4 3 2 2 4"
    ascent="750"
    descent="-250"
    x-height="484"
    cap-height="674"
    bbox="-157 -250 1126 952"
    underline-thickness="50"
    underline-position="-50"
    unicode-range="U+0020-U+FB04"
  />
<missing-glyph horiz-adv-x="500" 
d="M0 0v700h500v-700h-500zM250 395l170 255h-340zM280 350l170 -255v510zM80 50h340l-170 255zM50 605v-510l170 255z" />
    <glyph glyph-name="f_f_j" unicode="ffj" horiz-adv-x="809" 
d="M705 690l-26 -66q-41 26 -98 26q-121 0 -121 -142v-24h282v-439q0 -140 -58 -199q-27 -27 -69 -41t-81 -14l-9 69q67 5 96 37q19 22 26 59.5t7 122.5v338h-193v-417h-88v417h-204v-417h-87v417h-68v67h68v18q0 104 58 161q45 47 124 47q43 0 85 -21l-24 -65
q-32 17 -61 17q-39 0 -63 -26q-32 -35 -32 -112v-19h204v26q0 97 55.5 154t156.5 57q75 0 120 -31z" />
    <glyph glyph-name="f_j" unicode="fj" horiz-adv-x="522" 
d="M169 0h-87v417h-68v67h68v26q0 97 55 154t156 57q34 0 69 -9t54 -23l-25 -67q-39 28 -102 28q-120 0 -120 -142v-24h281v-439q0 -140 -58 -199q-27 -27 -69 -41t-81 -14l-9 69q67 5 96 37q19 22 26.5 60t7.5 122v338h-194v-417z" />
    <glyph glyph-name="f_f" unicode="ff" horiz-adv-x="583" 
d="M460 0h-88v417h-203v-417h-87v417h-68v67h68v16q0 111 54 165q45 45 122 45q37 0 69 -17l-18 -65q-26 12 -52 12q-88 0 -88 -135v-21h203v23q0 115 57 169q46 45 117 45q41 0 75 -14l-11 -68q-26 11 -57 11q-94 0 -94 -140v-26h117v-67h-116v-417z" />
    <glyph glyph-name="f_f_i" unicode="ffi" horiz-adv-x="815" 
d="M705 690l-26 -66q-41 26 -98 26q-121 0 -121 -142v-24h282v-484h-88v417h-193v-417h-88v417h-204v-417h-87v417h-68v67h68v18q0 104 58 161q45 47 124 47q43 0 85 -21l-24 -65q-32 17 -61 17q-39 0 -63 -26q-32 -35 -32 -112v-19h204v26q0 97 55.5 154t156.5 57
q75 0 120 -31z" />
    <glyph glyph-name="f_f_l" unicode="ffl" horiz-adv-x="815" 
d="M349 692l-23 -66q-30 15 -60 15q-41 0 -65 -26q-32 -35 -32 -111v-20h204v21q0 106 69 167q57 49 155 49q86 0 145 -32v-689h-87v640q-26 13 -73 13q-64 0 -93 -40t-29 -105v-24h114v-67h-113v-417h-88v417h-204v-417h-87v417h-68v67h68v12q0 111 56 166q50 48 131 48
q41 0 80 -18z" />
    <glyph glyph-name="f_i" unicode="fi" horiz-adv-x="523" 
d="M169 0h-87v417h-68v67h68v26q0 97 55 154t156 57q34 0 69 -9t54 -23l-25 -67q-39 28 -102 28q-120 0 -120 -142v-24h281v-484h-87v417h-194v-417z" />
    <glyph glyph-name="f_l" unicode="fl" horiz-adv-x="523" 
d="M169 0h-87v417h-68v67h68v21q0 107 68 167q58 49 155 49q87 0 145 -32v-689h-87v640q-24 13 -72 13q-64 0 -93 -40t-29 -105v-24h113v-67h-113v-417z" />
    <glyph glyph-name=".notdef" horiz-adv-x="500" 
d="M0 0v700h500v-700h-500zM250 395l170 255h-340zM280 350l170 -255v510zM80 50h340l-170 255zM50 605v-510l170 255z" />
    <glyph glyph-name=".null" horiz-adv-x="0" 
 />
    <glyph glyph-name="nonmarkingreturn" horiz-adv-x="333" 
 />
    <glyph glyph-name="space" unicode=" " horiz-adv-x="212" 
 />
    <glyph glyph-name="exclam" unicode="!" horiz-adv-x="230" 
d="M149 194h-68l-14 480h96zM115 -11q-26 0 -42.5 17.5t-16.5 44.5t16.5 44.5t42.5 17.5q27 0 43 -17.5t16 -44.5t-16 -44.5t-43 -17.5z" />
    <glyph glyph-name="quotedbl" unicode="&#x22;" horiz-adv-x="337" 
d="M51 685h87l-17 -240h-54zM200 685h87l-17 -240h-53z" />
    <glyph glyph-name="numbersign" unicode="#" horiz-adv-x="497" 
d="M188 255h104l19 145h-104zM153 0h-60l26 196h-82v59h91l19 145h-86v59h95l26 191h58l-25 -191h104l26 191h59l-25 -191h82v-59h-91l-18 -145h86v-59h-95l-26 -196h-60l26 196h-104z" />
    <glyph glyph-name="dollar" unicode="$" horiz-adv-x="513" 
d="M281 -86h-63v101q-94 2 -153 44l24 67q65 -43 144 -43q53 0 86 27.5t33 70.5q0 40 -27.5 68t-85.5 51q-83 33 -124 72t-41 101t41 106t110 55v101h62v-97q75 -2 130 -35l-25 -66q-60 34 -126 34q-53 0 -79.5 -26t-26.5 -60q0 -37 27.5 -61.5t96.5 -52.5q80 -32 117.5 -75
t37.5 -108q0 -62 -42 -110t-116 -60v-104z" />
    <glyph glyph-name="percent" unicode="%" horiz-adv-x="792" 
d="M187 661q69 0 110 -51t41 -143q0 -98 -44.5 -151.5t-111.5 -53.5q-64 0 -107.5 51t-44.5 145q0 94 45 148.5t112 54.5zM184 608q-40 0 -62 -41.5t-22 -105.5q-2 -64 21 -105t63 -41q42 0 63 40t21 108q0 64 -20.5 104.5t-63.5 40.5zM232 -11h-56l382 672h56zM611 392
q69 0 109.5 -51t40.5 -143q0 -98 -44.5 -151.5t-110.5 -53.5q-64 0 -107.5 51t-44.5 144q0 95 45 149.5t112 54.5zM608 339q-40 0 -62.5 -41.5t-22.5 -105.5q-1 -64 22 -105t63 -41q42 0 63 40t21 108q0 64 -20.5 104.5t-63.5 40.5z" />
    <glyph glyph-name="ampersand" unicode="&#x26;" horiz-adv-x="605" 
d="M602 0h-104l-63 66q-83 -77 -197 -77q-95 0 -151 55t-56 134q0 125 132 197v3q-56 70 -56 141q0 66 46 116t125 50q64 0 106.5 -39.5t42.5 -103.5q0 -54 -34.5 -97.5t-113.5 -82.5v-3l164 -188q45 69 65 197h80q-29 -168 -97 -249zM253 55q83 0 139 61l-190 212
q-87 -56 -87 -137q0 -58 39 -97t99 -39zM272 625q-40 0 -62.5 -28.5t-22.5 -69.5q0 -58 51 -121q57 32 84.5 62t27.5 70q0 35 -20 61t-58 26z" />
    <glyph glyph-name="quotesingle" unicode="'" horiz-adv-x="188" 
d="M51 685h87l-17 -240h-54z" />
    <glyph glyph-name="parenleft" unicode="(" horiz-adv-x="284" 
d="M195 694h69q-126 -169 -126 -409q0 -229 126 -406h-69q-131 173 -131 406q1 236 131 409z" />
    <glyph glyph-name="parenright" unicode=")" horiz-adv-x="284" 
d="M88 -121h-68q126 176 126 409t-126 406h68q131 -168 131 -407q0 -234 -131 -408z" />
    <glyph glyph-name="asterisk" unicode="*" horiz-adv-x="415" 
d="M269 685l60 -34l-95 -125v-2l151 20v-68l-151 18v-2l96 -120l-63 -36l-60 140h-2l-65 -141l-57 36l95 122v2l-148 -19v68l147 -19v2l-94 122l61 35l62 -139h2z" />
    <glyph glyph-name="plus" unicode="+" horiz-adv-x="596" 
d="M266 532h64v-235h226v-60h-226v-237h-64v237h-226v60h226v235z" />
    <glyph glyph-name="comma" unicode="," horiz-adv-x="207" 
d="M79 -117l-63 -6q40 108 60 239l98 10q-17 -63 -45.5 -135t-49.5 -108z" />
    <glyph glyph-name="hyphen" unicode="-" horiz-adv-x="307" 
d="M30 303h247v-65h-247v65z" />
    <glyph glyph-name="period" unicode="." horiz-adv-x="207" 
d="M111 -11q-26 0 -42.5 18t-16.5 45q0 28 17 45.5t43 17.5t42.5 -17.5t16.5 -45.5t-16.5 -45.5t-43.5 -17.5z" />
    <glyph glyph-name="slash" unicode="/" horiz-adv-x="343" 
d="M66 -40h-67l279 725h68z" />
    <glyph glyph-name="zero" unicode="0" horiz-adv-x="513" 
d="M262 661q102 0 158.5 -86.5t56.5 -242.5q0 -165 -59 -254t-167 -89q-97 0 -155.5 87.5t-59.5 246.5q0 160 62 249t164 89zM257 593q-60 0 -96.5 -71t-36.5 -200q0 -125 35.5 -195t96.5 -70q66 0 99.5 71.5t33.5 199.5q0 124 -33 194.5t-99 70.5z" />
    <glyph glyph-name="one" unicode="1" horiz-adv-x="513" 
d="M236 0v568h-2l-113 -61l-17 67l142 76h75v-650h-85z" />
    <glyph glyph-name="two" unicode="2" horiz-adv-x="513" 
d="M460 0h-415v54l69 67q135 129 188 200t54 140q0 55 -30.5 91t-98.5 36q-72 0 -138 -55l-28 62q78 66 184 66q98 0 148.5 -56t50.5 -133q0 -83 -53 -159.5t-171 -189.5l-52 -48v-2h292v-73z" />
    <glyph glyph-name="three" unicode="3" horiz-adv-x="513" 
d="M42 33l24 68q64 -41 144 -41q77 0 112.5 38.5t34.5 87.5q-1 64 -49.5 97t-118.5 33h-49v66h49q55 0 100 28.5t45 81.5q0 42 -28.5 70t-85.5 28q-70 0 -130 -43l-23 64q28 21 74.5 35.5t95.5 14.5q90 0 138 -45t48 -110q0 -51 -30.5 -91.5t-89.5 -61.5v-2q63 -13 104 -57
t41 -110q0 -83 -62.5 -139t-174.5 -56q-102 0 -169 44z" />
    <glyph glyph-name="four" unicode="4" horiz-adv-x="513" 
d="M400 0h-83v177h-302v58l290 415h95v-404h91v-69h-91v-177zM104 246h213v217q0 51 3 102h-3q-26 -49 -54 -96l-159 -221v-2z" />
    <glyph glyph-name="five" unicode="5" horiz-adv-x="513" 
d="M433 650v-74h-248l-25 -167q30 4 53 4q82 0 140 -35q93 -53 93 -167q0 -96 -68.5 -159t-173.5 -63q-100 0 -162 40l22 67q61 -36 139 -36q64 0 109 39t45 102q-1 66 -47 105t-140 39q-34 0 -90 -7l42 312h311z" />
    <glyph glyph-name="six" unicode="6" horiz-adv-x="513" 
d="M416 660v-72q-30 2 -66 -4q-98 -16 -156 -80.5t-70 -150.5h3q57 75 157 75q87 0 141.5 -57.5t54.5 -152.5q0 -94 -59.5 -161.5t-156.5 -67.5q-104 0 -167 75.5t-63 201.5q0 183 110 293q82 81 208 96q33 5 64 5zM264 57q57 0 92 43t35 113q0 69 -36.5 109t-97.5 40
q-39 0 -73.5 -22t-52.5 -58q-10 -17 -10 -39q2 -83 39 -134.5t104 -51.5z" />
    <glyph glyph-name="seven" unicode="7" horiz-adv-x="513" 
d="M57 650h410v-58l-283 -592h-91l282 575v2h-318v73z" />
    <glyph glyph-name="eight" unicode="8" horiz-adv-x="513" 
d="M255 -11q-99 0 -158.5 51t-59.5 125q0 119 129 174l-1 3q-103 49 -103 146q0 76 57 124.5t144 48.5q89 0 139 -47t50 -113q0 -101 -107 -152v-3q131 -52 131 -168q0 -84 -63.5 -136.5t-157.5 -52.5zM257 53q59 0 94.5 32.5t35.5 83.5q0 56 -36 89t-107 53
q-56 -16 -86.5 -51.5t-30.5 -82.5q-2 -51 34 -87.5t96 -36.5zM258 598q-53 0 -83 -30t-30 -74q0 -87 124 -120q45 15 72 45.5t27 72.5q0 44 -27.5 75t-82.5 31z" />
    <glyph glyph-name="nine" unicode="9" horiz-adv-x="513" 
d="M96 -10v72q20 -2 71 3q81 11 136 63q69 62 86 173h-3q-57 -70 -153 -70q-86 0 -139 57t-53 142q0 95 62.5 163t159.5 68q99 0 157 -74.5t58 -199.5q0 -197 -112 -305q-76 -74 -189 -87q-43 -7 -81 -5zM256 594q-56 0 -92 -44.5t-36 -113.5q0 -61 34 -99.5t91 -38.5
q43 0 76.5 18.5t51.5 49.5q8 13 8 32q0 88 -33.5 142t-99.5 54z" />
    <glyph glyph-name="colon" unicode=":" horiz-adv-x="207" 
d="M111 342q-26 0 -42.5 17.5t-16.5 44.5q0 28 17 45.5t43 17.5t42 -17.5t17 -45.5q0 -27 -16.5 -44.5t-43.5 -17.5zM111 -11q-26 0 -42.5 17.5t-16.5 44.5q0 28 17 45.5t43 17.5t42 -17.5t17 -45.5q0 -27 -16.5 -44.5t-43.5 -17.5z" />
    <glyph glyph-name="semicolon" unicode=";" horiz-adv-x="207" 
d="M78 -117l-61 -6q40 108 60 239l97 10q-18 -64 -46.5 -136t-49.5 -107zM119 342q-26 0 -42.5 17.5t-16.5 44.5q0 28 16.5 45.5t42.5 17.5q27 0 43 -17.5t16 -45.5q0 -27 -16 -44.5t-43 -17.5z" />
    <glyph glyph-name="less" unicode="&#x3c;" horiz-adv-x="596" 
d="M66 239v54l464 239v-69l-391 -196v-2l391 -196v-69z" />
    <glyph glyph-name="equal" unicode="=" horiz-adv-x="596" 
d="M556 337h-516v60h516v-60zM556 141h-516v60h516v-60z" />
    <glyph glyph-name="greater" unicode="&#x3e;" horiz-adv-x="596" 
d="M530 294v-56l-464 -238v69l394 196v2l-394 196v69z" />
    <glyph glyph-name="question" unicode="?" horiz-adv-x="406" 
d="M219 191h-78l-2 26q-10 87 62 173q70 82 70 137q0 39 -24.5 62t-70.5 24q-60 0 -101 -31l-24 63q55 40 143 40q81 0 124 -42.5t43 -104.5q0 -46 -21 -84t-65 -90q-61 -73 -57 -147zM178 -11q-26 0 -42.5 17.5t-16.5 44.5q0 28 17 45.5t43 17.5t42.5 -17.5t16.5 -45.5
q0 -27 -16.5 -44.5t-43.5 -17.5z" />
    <glyph glyph-name="at" unicode="@" horiz-adv-x="737" 
d="M448 255l21 113q-23 7 -50 7q-66 0 -112.5 -53.5t-46.5 -126.5q0 -34 17 -55t49 -21q41 0 77 43t45 93zM508 -21l16 -43q-76 -40 -178 -40q-127 0 -215 86t-88 226q0 159 101.5 271.5t263.5 112.5q129 0 210 -81.5t81 -207.5q0 -108 -52 -173t-126 -65q-33 0 -54.5 22.5
t-19.5 65.5h-4q-52 -88 -141 -88q-45 0 -76.5 34.5t-31.5 91.5q0 96 67.5 166.5t169.5 70.5q61 0 107 -21l-34 -181q-22 -110 30 -112q41 -1 74.5 50t33.5 133q0 111 -64 180t-178 69q-126 0 -213 -92t-87 -240q0 -123 72 -196.5t185 -73.5q89 0 151 35z" />
    <glyph glyph-name="A" unicode="A" horiz-adv-x="612" 
d="M424 212h-239l-70 -212h-90l229 674h105l230 -674h-93zM203 280h203l-66 194q-14 41 -35 123h-2q-17 -70 -34 -122z" />
    <glyph glyph-name="B" unicode="B" horiz-adv-x="542" 
d="M76 2v663q66 14 159 14q124 0 185 -49q56 -42 56 -119q0 -49 -30.5 -89t-83.5 -59v-2q56 -14 97.5 -57t41.5 -112q0 -80 -57 -135q-69 -63 -233 -63q-77 0 -135 8zM163 606v-217h79q68 0 107 31.5t39 81.5q0 110 -148 110q-49 0 -77 -6zM163 323v-257q23 -4 73 -4
q75 0 124 31.5t49 99.5q0 65 -48.5 97.5t-125.5 32.5h-72z" />
    <glyph glyph-name="C" unicode="C" horiz-adv-x="580" 
d="M529 91l18 -69q-64 -32 -178 -32q-147 0 -240 90t-93 251q0 158 97.5 256t254.5 98q103 0 160 -30l-21 -71q-58 28 -136 28q-120 0 -191.5 -73.5t-71.5 -204.5q0 -125 68.5 -198t190.5 -73q84 0 142 28z" />
    <glyph glyph-name="D" unicode="D" horiz-adv-x="666" 
d="M76 2v663q93 14 185 14q183 0 273 -84q95 -87 95 -242q0 -167 -97 -262q-97 -97 -298 -97q-88 0 -158 8zM163 601v-532q28 -5 88 -5q139 0 213 74.5t74 211.5q1 122 -68.5 191t-204.5 69q-61 0 -102 -9z" />
    <glyph glyph-name="E" unicode="E" horiz-adv-x="492" 
d="M425 388v-72h-262v-243h292v-73h-379v674h364v-73h-277v-213h262z" />
    <glyph glyph-name="F" unicode="F" horiz-adv-x="487" 
d="M76 0v674h363v-73h-276v-224h255v-72h-255v-305h-87z" />
    <glyph glyph-name="G" unicode="G" horiz-adv-x="646" 
d="M589 354v-324q-103 -37 -207 -37q-159 0 -252 89q-94 91 -94 251q1 154 99.5 251t265.5 97q104 0 168 -31l-21 -71q-65 29 -149 29q-124 0 -197.5 -72.5t-73.5 -198.5q0 -127 70.5 -199.5t189.5 -72.5q80 0 116 18v201h-137v70h222z" />
    <glyph glyph-name="H" unicode="H" horiz-adv-x="652" 
d="M76 674h87v-282h326v282h88v-674h-88v316h-326v-316h-87v674z" />
    <glyph glyph-name="I" unicode="I" horiz-adv-x="239" 
d="M76 674h87v-674h-87v674z" />
    <glyph glyph-name="J" unicode="J" horiz-adv-x="370" 
d="M214 230v444h87v-451q0 -234 -204 -234q-54 0 -93 16l13 71q33 -13 73 -13q63 0 93.5 36.5t30.5 130.5z" />
    <glyph glyph-name="K" unicode="K" horiz-adv-x="542" 
d="M76 0v674h87v-325h3q23 33 53 72l206 253h108l-244 -286l263 -388h-103l-222 331l-64 -74v-257h-87z" />
    <glyph glyph-name="L" unicode="L" horiz-adv-x="472" 
d="M76 0v674h87v-601h288v-73h-375z" />
    <glyph glyph-name="M" unicode="M" horiz-adv-x="804" 
d="M661 0l-17 296q-11 207 -10 291h-3q-34 -115 -85 -256l-119 -327h-66l-109 321q-53 159 -78 262h-2q-3 -132 -13 -298l-18 -289h-83l47 674h111l115 -326q46 -136 68 -227h3q22 89 71 227l120 326h111l42 -674h-85z" />
    <glyph glyph-name="N" unicode="N" horiz-adv-x="658" 
d="M158 0h-82v674h95l216 -341q73 -115 121 -219l2 1q-10 113 -10 277v282h82v-674h-88l-214 342q-83 132 -126 225l-3 -1q7 -119 7 -278v-288z" />
    <glyph glyph-name="O" unicode="O" horiz-adv-x="689" 
d="M349 685q137 0 220 -95t83 -246q0 -168 -89 -261.5t-224 -93.5q-134 0 -218.5 95t-84.5 247q0 159 88 256.5t225 97.5zM345 614q-103 0 -159.5 -81.5t-56.5 -199.5q0 -113 58 -193t157 -80q100 0 158 80t58 200q0 110 -56.5 192t-158.5 82z" />
    <glyph glyph-name="P" unicode="P" horiz-adv-x="532" 
d="M76 0v666q78 13 167 13q127 0 189 -56q59 -51 59 -141t-52 -144q-69 -74 -206 -74q-46 0 -70 6v-270h-87zM163 603v-262q27 -7 72 -7q80 0 124.5 37.5t44.5 106.5q0 65 -42.5 98.5t-116.5 33.5q-56 0 -82 -7z" />
    <glyph glyph-name="Q" unicode="Q" horiz-adv-x="689" 
d="M657 -26l-25 -73q-137 36 -258 78q-28 10 -41 10q-127 5 -212 95t-85 246q0 160 88 257.5t226 97.5q136 0 219 -95t83 -246q0 -126 -52.5 -209.5t-139.5 -113.5v-4q108 -27 197 -43zM343 60q101 0 159 80t58 200q0 110 -56 192t-157 82q-105 0 -162 -82.5t-56 -199.5
q-1 -112 57.5 -192t156.5 -80z" />
    <glyph glyph-name="R" unicode="R" horiz-adv-x="538" 
d="M76 0v665q68 14 167 14q134 0 195 -55q53 -47 53 -128q0 -64 -35.5 -108.5t-91.5 -63.5v-3q74 -26 99 -136q37 -156 52 -185h-90q-14 24 -45 161q-15 70 -45.5 99.5t-89.5 31.5h-82v-292h-87zM163 604v-246h89q69 0 110.5 35t41.5 93q0 63 -41.5 94t-113.5 32
q-58 0 -86 -8z" />
    <glyph glyph-name="S" unicode="S" horiz-adv-x="493" 
d="M42 33l22 73q71 -44 156 -44q66 0 103.5 31.5t37.5 83.5q0 47 -29 77.5t-98 56.5q-178 63 -178 191q0 80 60.5 131.5t157.5 51.5q91 0 149 -33l-24 -71q-59 32 -128 32q-63 0 -95 -30.5t-32 -70.5q0 -46 30.5 -74t103.5 -56q89 -34 130.5 -80t41.5 -118q0 -83 -61 -138.5
t-175 -55.5q-48 0 -96 12.5t-76 30.5z" />
    <glyph glyph-name="T" unicode="T" horiz-adv-x="497" 
d="M204 0v600h-205v74h499v-74h-206v-600h-88z" />
    <glyph glyph-name="U" unicode="U" horiz-adv-x="647" 
d="M75 674h88v-399q0 -108 43 -161.5t114 -53.5q78 0 121 53t43 162v399h88v-393q0 -148 -69.5 -220t-185.5 -72q-111 0 -176.5 69.5t-65.5 218.5v397z" />
    <glyph glyph-name="V" unicode="V" horiz-adv-x="558" 
d="M320 0h-96l-220 674h94l105 -332q51 -161 72 -252h2q21 88 77 251l114 333h93z" />
    <glyph glyph-name="W" unicode="W" horiz-adv-x="846" 
d="M277 0h-91l-171 674h92l80 -341q31 -131 50 -233h2q11 68 55 234l90 340h91l82 -342q36 -150 47 -231h2q13 70 54 233l89 340h89l-191 -674h-91l-85 351q-32 133 -44 220h-2q-19 -104 -52 -220z" />
    <glyph glyph-name="X" unicode="X" horiz-adv-x="571" 
d="M546 0h-101l-86 149q-52 84 -78 133h-2q-30 -61 -73 -134l-81 -148h-100l206 341l-198 333h101l89 -158q42 -73 62 -114h3q24 50 61 114l92 158h100l-205 -328z" />
    <glyph glyph-name="Y" unicode="Y" horiz-adv-x="541" 
d="M314 0h-88v286l-213 388h99l95 -186q40 -78 67 -139h2q16 37 68 139l97 186h99l-226 -387v-287z" />
    <glyph glyph-name="Z" unicode="Z" horiz-adv-x="553" 
d="M30 0v51l374 547v3h-342v73h455v-53l-372 -545v-3h377v-73h-492z" />
    <glyph glyph-name="bracketleft" unicode="[" horiz-adv-x="284" 
d="M265 -112h-183v797h183v-55h-115v-687h115v-55z" />
    <glyph glyph-name="backslash" unicode="\" horiz-adv-x="341" 
d="M342 -40h-68l-272 725h68z" />
    <glyph glyph-name="bracketright" unicode="]" horiz-adv-x="284" 
d="M19 686h183v-798h-183v55h115v688h-115v55z" />
    <glyph glyph-name="asciicircum" unicode="^" horiz-adv-x="596" 
d="M536 189h-70l-167 388h-2l-167 -388h-70l207 461h62z" />
    <glyph glyph-name="underscore" unicode="_" horiz-adv-x="500" 
d="M0 -75h500v-50h-500v50z" />
    <glyph glyph-name="grave" unicode="`" 
d="M22 693h97l87 -143h-62z" />
    <glyph glyph-name="a" unicode="a" horiz-adv-x="482" 
d="M421 0h-80l-7 61h-3q-22 -31 -60.5 -51.5t-87.5 -20.5q-70 0 -109 41t-39 98q0 88 75.5 134.5t215.5 45.5v10q0 112 -110 112q-70 0 -126 -36l-20 58q66 43 159 43q53 0 90.5 -17t57 -46.5t28 -62t8.5 -72.5v-181q0 -72 8 -116zM328 163v84q-205 4 -205 -109
q0 -41 23.5 -62.5t59.5 -21.5q44 0 74.5 23.5t42.5 57.5q5 15 5 28z" />
    <glyph glyph-name="b" unicode="b" horiz-adv-x="569" 
d="M145 0h-76q4 66 4 125v585h87v-304h2q51 89 165 89q90 0 147.5 -68.5t56.5 -178.5q0 -122 -64.5 -190.5t-152.5 -68.5q-111 0 -162 91h-3zM160 281v-87q0 -12 4 -32q13 -46 49 -74.5t83 -28.5q68 0 107.5 51t39.5 135q0 77 -38 128.5t-106 51.5q-46 0 -83.5 -29.5
t-50.5 -78.5q-5 -25 -5 -36z" />
    <glyph glyph-name="c" unicode="c" horiz-adv-x="448" 
d="M403 84l15 -66q-54 -28 -139 -28q-109 0 -175 68t-66 179q0 113 71.5 185t188.5 72q72 0 122 -25l-20 -68q-40 23 -102 23q-80 0 -125.5 -52t-45.5 -131q0 -83 47.5 -132t120.5 -49q53 0 108 24z" />
    <glyph glyph-name="d" unicode="d" horiz-adv-x="564" 
d="M403 710h88v-585q0 -81 4 -125h-79l-4 84h-2q-21 -42 -64.5 -68.5t-100.5 -26.5q-89 0 -148 68.5t-59 177.5q-1 117 62 188.5t155 71.5q52 0 90 -21t56 -53h2v289zM403 203v84q0 22 -4 37q-10 44 -44.5 73t-82.5 29q-67 0 -106 -52.5t-39 -134.5q0 -77 37.5 -128
t105.5 -51q45 0 81 28.5t48 76.5q4 16 4 38z" />
    <glyph glyph-name="e" unicode="e" horiz-adv-x="501" 
d="M462 226h-340q1 -84 48 -126t118 -42q75 0 134 25l15 -63q-66 -30 -161 -30q-111 0 -174.5 66.5t-63.5 177.5q0 112 62 186.5t165 74.5q56 0 97.5 -22.5t62.5 -59t30.5 -73t9.5 -73.5q0 -14 -3 -41zM123 289h257q1 54 -27.5 98.5t-94.5 44.5q-61 0 -95 -44t-40 -99z" />
    <glyph glyph-name="f" unicode="f" horiz-adv-x="292" 
d="M169 0h-87v417h-68v67h68v23q0 116 56 169q46 45 118 45q41 0 75 -14l-12 -68q-24 11 -56 11q-94 0 -94 -140v-26h117v-67h-117v-417z" />
    <glyph glyph-name="g" unicode="g" horiz-adv-x="559" 
d="M413 484h77q-4 -70 -4 -133v-281q0 -159 -69 -221q-62 -58 -176 -58q-101 0 -161 40l22 67q61 -38 142 -38q72 0 114 41t42 128v54h-2q-49 -81 -154 -81q-89 0 -147.5 67.5t-58.5 168.5q0 117 65 187t153 70q107 0 151 -84h2zM399 206v87q0 25 -5 40q-13 41 -45 67
t-78 26q-64 0 -104 -50t-40 -133q0 -75 37.5 -124.5t105.5 -49.5q41 0 74.5 24.5t47.5 65.5q7 21 7 47z" />
    <glyph glyph-name="h" unicode="h" horiz-adv-x="555" 
d="M73 0v710h88v-302h2q22 39 63 62q43 25 90 25q28 0 54.5 -9.5t54 -31t44 -64.5t16.5 -102v-288h-88v278q0 64 -27 104t-85 40q-41 0 -73 -25t-45 -63q-6 -14 -6 -42v-292h-88z" />
    <glyph glyph-name="i" unicode="i" horiz-adv-x="234" 
d="M161 0h-88v484h88v-484zM117 675q24 0 39 -15.5t15 -39.5q1 -23 -14.5 -38.5t-41.5 -15.5q-23 0 -38 15.5t-15 38.5t15.5 39t39.5 16z" />
    <glyph glyph-name="j" unicode="j" horiz-adv-x="243" 
d="M-36 -209l-9 69q67 5 96 37q19 22 26 59.5t7 122.5v405h88v-439q0 -140 -58 -199q-27 -27 -69 -41t-81 -14zM129 675q24 0 38.5 -15.5t14.5 -39.5q1 -23 -14.5 -38.5t-40.5 -15.5q-24 0 -39 16t-15 38q0 24 15.5 39.5t40.5 15.5z" />
    <glyph glyph-name="k" unicode="k" horiz-adv-x="469" 
d="M160 710v-448h2q14 20 43 55l142 167h106l-187 -199l213 -285h-107l-167 232l-45 -50v-182h-87v710h87z" />
    <glyph glyph-name="l" unicode="l" horiz-adv-x="236" 
d="M73 0v710h88v-710h-88z" />
    <glyph glyph-name="m" unicode="m" horiz-adv-x="834" 
d="M73 0v353q0 78 -4 131h77l4 -78h3q52 89 152 89q48 0 84.5 -26.5t52.5 -70.5h2q21 39 54 63q45 34 107 34q27 0 52.5 -10t50.5 -31.5t40.5 -65t15.5 -103.5v-285h-86v274q0 149 -105 149q-36 0 -64 -23t-40 -57q-7 -21 -7 -44v-299h-86v290q0 60 -26 96.5t-75 36.5
q-39 0 -68.5 -26t-40.5 -62q-7 -18 -7 -43v-292h-86z" />
    <glyph glyph-name="n" unicode="n" horiz-adv-x="555" 
d="M73 0v353q0 78 -4 131h78l5 -80h2q20 38 62 64.5t98 26.5q28 0 55.5 -9.5t54.5 -31t44 -64t17 -101.5v-289h-88v279q0 64 -27 103.5t-85 39.5q-42 0 -74 -26t-44 -64q-6 -16 -6 -41v-291h-88z" />
    <glyph glyph-name="o" unicode="o" horiz-adv-x="549" 
d="M278 495q104 0 168.5 -69t64.5 -180q0 -125 -71.5 -191t-169.5 -66q-100 0 -166 68t-66 181q0 118 68 187.5t172 69.5zM276 429q-73 0 -111 -55.5t-38 -132.5q0 -80 41.5 -133t105.5 -53q63 0 105 53.5t42 134.5q0 44 -14 84.5t-48 71t-83 30.5z" />
    <glyph glyph-name="p" unicode="p" horiz-adv-x="569" 
d="M73 -198v524q0 66 -4 158h79l4 -83h2q57 94 172 94q89 0 147 -68.5t58 -177.5q0 -124 -64 -192t-156 -68q-48 0 -87.5 20t-61.5 56h-2v-263h-87zM160 280v-83q0 -14 4 -36q12 -46 48.5 -74.5t83.5 -28.5q69 0 108 51t39 136q0 76 -38.5 128t-105.5 52q-46 0 -83 -30
t-50 -79q-6 -22 -6 -36z" />
    <glyph glyph-name="q" unicode="q" horiz-adv-x="563" 
d="M403 -198v273h-2q-21 -38 -61.5 -62t-96.5 -24q-87 0 -146 68.5t-59 176.5q0 126 66.5 193.5t152.5 67.5q106 0 149 -84h2l3 73h83q-3 -62 -3 -133v-549h-88zM403 197v91q0 22 -4 37q-10 42 -44 71t-82 29q-67 0 -106.5 -51.5t-39.5 -134.5q0 -77 37 -128.5t106 -51.5
q43 0 77 25.5t49 70.5q7 21 7 42z" />
    <glyph glyph-name="r" unicode="r" horiz-adv-x="327" 
d="M73 0v333q0 91 -4 151h77l3 -95h4q16 49 53 77.5t81 28.5q13 0 25 -3v-83q-13 3 -30 3q-46 0 -77.5 -31t-40.5 -82q-4 -24 -4 -41v-258h-87z" />
    <glyph glyph-name="s" unicode="s" horiz-adv-x="396" 
d="M39 23l22 67q54 -35 116 -35q46 0 70 20t24 52q0 31 -20.5 51t-69.5 38q-128 46 -128 137q0 60 45.5 101t121.5 41q68 0 119 -30l-22 -64q-44 28 -99 28q-38 0 -59.5 -19t-21.5 -47q0 -29 20.5 -46t71.5 -36q65 -25 96 -59t31 -87q0 -65 -48 -105t-133 -40q-80 0 -136 33
z" />
    <glyph glyph-name="t" unicode="t" horiz-adv-x="331" 
d="M93 600l86 23v-139h126v-67h-126v-261q0 -94 66 -94q29 0 51 6l4 -66q-29 -12 -78 -12q-63 0 -95 37q-34 35 -34 126v264h-75v67h75v116z" />
    <glyph glyph-name="u" unicode="u" horiz-adv-x="551" 
d="M478 484v-352q0 -81 4 -132h-78l-5 79h-2q-21 -36 -61.5 -63t-98.5 -27q-31 0 -58.5 9.5t-53 32t-40.5 66t-15 104.5v283h88v-268q0 -154 108 -154q41 0 72 23.5t44 56.5q8 21 8 45v297h88z" />
    <glyph glyph-name="v" unicode="v" horiz-adv-x="481" 
d="M13 484h94l95 -272q26 -70 39 -124h3q13 46 41 124l94 272h92l-190 -484h-84z" />
    <glyph glyph-name="w" unicode="w" horiz-adv-x="736" 
d="M18 484h90l64 -246q27 -104 36 -154h3q11 49 43 153l79 247h74l75 -242q27 -88 43 -158h3q10 60 37 157l69 243h87l-156 -484h-80l-74 231q-29 91 -43 159h-2q-14 -69 -44 -160l-78 -230h-80z" />
    <glyph glyph-name="x" unicode="x" horiz-adv-x="463" 
d="M16 484h98l69 -104q20 -30 49 -79h3l48 80l68 103h95l-165 -234l170 -250h-100l-71 109q-20 30 -52 84h-2q-9 -17 -51 -84l-70 -109h-97l172 247z" />
    <glyph glyph-name="y" unicode="y" horiz-adv-x="471" 
d="M9 484h96l106 -286q19 -54 31 -99h2q1 3 12.5 41.5t18.5 59.5l96 284h93l-132 -345q-49 -129 -85.5 -197t-80.5 -106q-53 -47 -108 -57l-22 74q42 13 77 43q47 37 74 98q7 16 7 21q0 7 -6 23z" />
    <glyph glyph-name="z" unicode="z" horiz-adv-x="428" 
d="M18 0v51l219 285l63 75v2h-262v71h369l-1 -55l-216 -281q-26 -35 -62 -76v-2h283v-70h-393z" />
    <glyph glyph-name="braceleft" unicode="{" horiz-adv-x="284" 
d="M28 262v51q48 0 64.5 20.5t16.5 53.5q0 28 -8 84t-8 83q0 66 39 98.5t106 32.5h21v-55h-18q-79 0 -79 -86q0 -29 7 -71q7 -44 7 -76q1 -88 -72 -108v-2q73 -18 72 -109q0 -34 -7 -76q-7 -44 -7 -72q0 -87 79 -87h18v-55h-21q-145 0 -145 137q0 28 8 82t8 81q0 74 -81 74z
" />
    <glyph glyph-name="bar" unicode="|" horiz-adv-x="239" 
d="M86 750h67v-1000h-67v1000z" />
    <glyph glyph-name="braceright" unicode="}" horiz-adv-x="284" 
d="M256 313v-51q-81 0 -81 -74q0 -27 8 -81t8 -82q0 -137 -145 -137h-21v55h17q80 1 80 87q0 14 -7 72q-8 48 -8 76q0 91 72 109v2q-72 20 -72 108q0 26 8 76q7 56 7 71q0 85 -79 86h-18v55h20q67 0 106.5 -32.5t39.5 -98.5q0 -27 -8 -83t-8 -84q0 -33 16.5 -53.5
t64.5 -20.5z" />
    <glyph glyph-name="asciitilde" unicode="~" horiz-adv-x="596" 
d="M108 210h-59q-3 72 31 111.5t88 39.5q30 0 58.5 -9.5t82.5 -35.5q89 -42 125 -42q52 0 54 84h60q3 -78 -30 -114.5t-85 -36.5q-50 0 -145 44l-19.5 9.5t-19 9.5t-16.5 8t-17.5 7l-15.5 5t-16.5 4t-15.5 1q-57 0 -60 -85z" />
    <glyph glyph-name="uni00A0" unicode="&#xa0;" horiz-adv-x="212" 
 />
    <glyph glyph-name="exclamdown" unicode="&#xa1;" horiz-adv-x="230" 
d="M164 -198h-97l14 477h68zM116 488q26 0 42 -17.5t16 -44.5t-16 -44.5t-43 -17.5q-26 0 -42.5 17.5t-16.5 44.5t17 44.5t43 17.5z" />
    <glyph glyph-name="cent" unicode="&#xa2;" horiz-adv-x="513" 
d="M330 -14h-62v101q-91 11 -145 70q-56 63 -56 169q0 97 55 164.5t146 82.5v100h62v-98q61 0 109 -25l-20 -67q-42 25 -104 25q-72 0 -116 -51t-44 -127q0 -81 44 -128.5t112 -47.5q59 0 114 25l16 -63q-48 -26 -111 -29v-101z" />
    <glyph glyph-name="sterling" unicode="&#xa3;" horiz-adv-x="513" 
d="M471 0h-415v50q51 26 82.5 73t31.5 102q0 37 -5 70h-103v63h93q-11 66 -11 108q0 88 54 141.5t138 53.5q69 0 109 -25l-20 -66q-36 20 -89 20q-56 0 -83 -34t-27 -91q0 -43 12 -107h144v-63h-136q6 -73 -4 -112q-16 -63 -69 -108v-2h298v-73z" />
    <glyph glyph-name="currency" unicode="&#xa4;" horiz-adv-x="513" 
d="M256 534q69 0 116 -40l71 75l44 -46l-78 -71q35 -50 35 -117q0 -74 -35 -123l75 -74l-45 -44l-68 77q-44 -43 -117 -43q-71 0 -114 40l-67 -74l-43 44l72 71q-37 48 -37 120q0 71 39 123l-75 71l44 46l69 -76q46 41 114 41zM255 471q-54 0 -86.5 -40.5t-32.5 -100.5
q0 -67 37 -103t81 -36q48 0 83.5 36t35.5 107q0 56 -31.5 96.5t-86.5 40.5z" />
    <glyph glyph-name="yen" unicode="&#xa5;" horiz-adv-x="513" 
d="M292 0h-83v175h-155v50h155v72h-155v50h130l-168 303h94l104 -206q24 -51 40 -91h3q16 45 40 93l108 204h92l-179 -303h130v-50h-156v-72h156v-50h-156v-175z" />
    <glyph glyph-name="brokenbar" unicode="&#xa6;" horiz-adv-x="239" 
d="M86 174h67v-350h-67v350zM86 674h67v-350h-67v350z" />
    <glyph glyph-name="section" unicode="&#xa7;" horiz-adv-x="519" 
d="M130 351q0 -28 24.5 -51t81.5 -44q88 -31 114 -48q38 27 38 77q0 62 -89 93q-101 38 -123 51q-46 -33 -46 -78zM418 650l-21 -57q-52 32 -120 32q-45 0 -74.5 -20.5t-29.5 -53.5q0 -36 29 -55t96 -41q79 -26 121 -61t42 -97q0 -71 -65 -121q38 -31 38 -88
q0 -74 -56.5 -112t-133.5 -38q-100 0 -157 42l24 57q58 -41 132 -41q50 0 81 21.5t31 60.5q0 35 -26 57.5t-96 46.5q-88 30 -131 64t-43 94q0 70 73 117q-35 28 -37 84q0 64 53 103t132 39t138 -33z" />
    <glyph glyph-name="dieresis" unicode="&#xa8;" 
d="M58 570q-22 0 -36.5 15t-14.5 36t15 36t36 15t35 -14.5t14 -36.5q0 -21 -14 -36t-35 -15zM243 570q-22 0 -36 15t-14 36t14.5 36t35.5 15t35 -14.5t14 -36.5q0 -21 -14 -36t-35 -15z" />
    <glyph glyph-name="copyright" unicode="&#xa9;" horiz-adv-x="677" 
d="M340 648q126 0 213.5 -90t87.5 -218q0 -129 -87.5 -219.5t-213.5 -90.5q-127 0 -215.5 90.5t-88.5 219.5q0 128 88.5 218t215.5 90zM340 607q-108 0 -181 -78t-73 -192q0 -112 73 -189t181 -77q106 0 178.5 77.5t72.5 191.5q0 112 -72.5 189.5t-178.5 77.5zM474 493
l-12 -39q-43 23 -97 23q-68 0 -104 -38.5t-36 -101.5q0 -61 37 -101t104 -40q61 0 101 26l12 -38q-47 -31 -123 -31q-85 0 -134 51.5t-49 129.5q0 83 56 134.5t135 51.5q36 0 67.5 -8.5t42.5 -18.5z" />
    <glyph glyph-name="ordfeminine" unicode="&#xaa;" horiz-adv-x="346" 
d="M305 266h-60l-6 42h-2q-37 -47 -101 -47q-48 0 -75.5 27t-27.5 68q0 55 53 85.5t148 28.5v10q0 11 -4.5 23.5t-22.5 25.5t-47 13q-52 0 -86 -27l-16 43q46 33 114 33q127 0 127 -140v-107q0 -42 6 -78zM235 372v55q-136 2 -136 -67q0 -24 17 -37.5t41 -13.5q43 0 68 36
q10 17 10 27z" />
    <glyph glyph-name="guillemotleft" unicode="&#xab;" horiz-adv-x="419" 
d="M232 436l-134 -184l134 -184h-71l-132 184l132 184h71zM396 436l-134 -184l134 -184h-71l-132 184l132 184h71z" />
    <glyph glyph-name="logicalnot" unicode="&#xac;" horiz-adv-x="596" 
d="M40 399h516v-278h-64v218h-452v60z" />
    <glyph glyph-name="uni00AD" unicode="&#xad;" horiz-adv-x="307" 
d="M30 303h247v-65h-247v65z" />
    <glyph glyph-name="registered" unicode="&#xae;" horiz-adv-x="419" 
d="M184 501v-66h-38v164q25 5 63 5q36 0 57 -12q16 -12 16 -36q0 -28 -34 -38v-2q23 -9 30 -40q7 -33 12 -41h-41q-4 4 -13 40q-4 26 -34 26h-18zM185 575v-47h18q38 0 38 24q0 25 -35 25q-13 0 -21 -2zM210 685q71 0 119.5 -47.5t48.5 -116.5q0 -70 -48.5 -118t-119.5 -48
t-120 48t-49 118q0 68 49.5 116t119.5 48zM210 652q-54 0 -90.5 -38t-36.5 -93t36.5 -93t91.5 -38q54 0 89.5 37.5t35.5 92.5t-36 93.5t-90 38.5z" />
    <glyph glyph-name="macron" unicode="&#xaf;" 
d="M38 643h225v-57h-225v57z" />
    <glyph glyph-name="degree" unicode="&#xb0;" horiz-adv-x="318" 
d="M162 685q59 0 95.5 -38.5t36.5 -91.5q0 -59 -40 -96.5t-94 -37.5q-57 0 -94 37.5t-37 91.5q-1 57 38 96t95 39zM161 638q-37 0 -57.5 -26.5t-20.5 -61.5t22.5 -58.5t55.5 -23.5q34 0 56.5 24.5t22.5 61.5q0 32 -20 58t-59 26z" />
    <glyph glyph-name="plusminus" unicode="&#xb1;" horiz-adv-x="596" 
d="M266 572h64v-195h226v-60h-226v-200h-64v200h-226v60h226v195zM40 60h516v-60h-516v60z" />
    <glyph glyph-name="twosuperior" unicode="&#xb2;" horiz-adv-x="311" 
d="M12 443v37l63 58q68 62 97 100t29 74q0 30 -19.5 49.5t-56.5 19.5q-42 0 -84 -31l-21 46q52 42 122 42q65 0 99 -34t34 -79q0 -52 -32.5 -95t-100.5 -102l-31 -28v-2h171v-55h-270z" />
    <glyph glyph-name="threesuperior" unicode="&#xb3;" horiz-adv-x="305" 
d="M45 759l-17 47q49 32 115 32q61 0 91.5 -27.5t30.5 -67.5q0 -30 -20.5 -53.5t-56.5 -36.5v-2q41 -5 67 -32t26 -64q0 -49 -42.5 -83t-115.5 -34q-74 0 -114 27l18 50q42 -26 93 -26q43 0 65.5 20.5t21.5 46.5q0 36 -31 53.5t-75 17.5h-27v46h28q33 0 61.5 16t29.5 47
q0 21 -15.5 35.5t-47.5 14.5q-46 0 -85 -27z" />
    <glyph glyph-name="acute" unicode="&#xb4;" 
d="M189 693h97l-122 -143h-63z" />
    <glyph glyph-name="mu" unicode="&#xb5;" horiz-adv-x="553" 
d="M403 75h-3q-18 -34 -54 -59t-85 -25q-76 0 -106 53v-60q0 -138 11 -182h-79q-14 42 -14 178v504h87v-286q0 -60 27 -98.5t82 -38.5q41 0 72 24t44 57q8 21 8 45v297h87v-351q0 -40 10 -57.5t36 -18.5l-7 -64q-13 -4 -30 -4q-75 0 -86 86z" />
    <glyph glyph-name="paragraph" unicode="&#xb6;" horiz-adv-x="512" 
d="M293 -49h-63v313h-7q-68 0 -128.5 52t-60.5 140q0 42 13 78.5t42 69.5t85.5 52.5t134.5 19.5q79 0 117 -9v-716h-62v664h-71v-664z" />
    <glyph glyph-name="periodcentered" unicode="&#xb7;" horiz-adv-x="207" 
d="M103 200q-26 0 -43 18t-16 45q0 27 17 45t43 18t42 -17.5t17 -45.5q0 -27 -16.5 -45t-43.5 -18z" />
    <glyph glyph-name="cedilla" unicode="&#xb8;" 
d="M136 2h54l-33 -52q29 -4 49.5 -23t20.5 -46q0 -42 -29.5 -61.5t-74.5 -19.5q-39 0 -68 17l15 43q24 -15 54 -15q43 0 43 32q-1 35 -78 42z" />
    <glyph glyph-name="onesuperior" unicode="&#xb9;" horiz-adv-x="244" 
d="M177 443h-70v328h-2l-72 -34l-11 52l94 44h61v-390z" />
    <glyph glyph-name="ordmasculine" unicode="&#xba;" horiz-adv-x="355" 
d="M179 591q72 0 115 -45.5t43 -117.5q-1 -81 -48.5 -124t-111.5 -43q-68 0 -113.5 45t-45.5 117q0 76 47 122t114 46zM177 541q-45 0 -68.5 -35t-23.5 -81q0 -49 27.5 -81.5t65.5 -32.5q40 0 66 32t26 83q0 44 -24 79.5t-69 35.5z" />
    <glyph glyph-name="guillemotright" unicode="&#xbb;" horiz-adv-x="419" 
d="M157 252l-134 184h71l133 -184l-133 -184h-70zM320 252l-134 184h71l133 -184l-133 -184h-70z" />
    <glyph glyph-name="onequarter" unicode="&#xbc;" horiz-adv-x="759" 
d="M198 266h-70v329h-2l-72 -35l-11 52l94 44h61v-390zM194 -11h-56l380 672h56zM664 0h-68v103h-189v40l178 249h79v-240h55v-49h-55v-103zM596 152v118q0 3 3 63h-2q-19 -37 -34 -59l-86 -120v-2h119z" />
    <glyph glyph-name="onehalf" unicode="&#xbd;" horiz-adv-x="759" 
d="M184 266h-70v329h-2l-72 -35l-11 52l93 44h62v-390zM175 -11h-56l379 672h57zM440 0v37l63 59q68 61 97 99t29 74q0 30 -19.5 50t-56.5 20q-39 0 -84 -31l-21 45q49 42 122 42q66 0 99.5 -33.5t33.5 -79.5q0 -51 -32 -94t-101 -103l-31 -28v-2h171v-55h-270z" />
    <glyph glyph-name="threequarters" unicode="&#xbe;" horiz-adv-x="759" 
d="M66 583l-17 47q48 31 115 31q61 0 91.5 -27t30.5 -67q0 -30 -20.5 -54t-55.5 -36v-2q41 -6 66.5 -32.5t25.5 -64.5q0 -49 -42 -83t-115 -34q-72 0 -115 28l18 50q38 -26 93 -26q43 0 65.5 20.5t22.5 46.5q-1 35 -32 52.5t-74 17.5h-28v46h28q34 0 62.5 16t28.5 48
q0 20 -16 34.5t-47 14.5q-47 0 -85 -26zM231 -11h-56l380 672h56zM674 0h-67v103h-189v40l177 249h79v-240h56v-49h-56v-103zM607 152v118q0 3 3 63h-2q-19 -37 -34 -59l-87 -120l1 -2h119z" />
    <glyph glyph-name="questiondown" unicode="&#xbf;" horiz-adv-x="406" 
d="M237 489q27 0 43 -17.5t16 -44.5t-16.5 -45t-42.5 -18t-42.5 18t-16.5 45t16.5 44.5t42.5 17.5zM197 285h78l3 -26q9 -84 -63 -171q-37 -44 -53 -74t-16 -62q0 -39 24 -62t71 -23q61 0 101 31l24 -64q-59 -40 -144 -40q-81 0 -124 42.5t-43 104.5q0 46 21.5 83.5
t65.5 88.5q60 74 56 146z" />
    <glyph glyph-name="Agrave" unicode="&#xc0;" horiz-adv-x="612" 
d="M424 212h-239l-70 -212h-90l229 674h105l230 -674h-93zM203 280h203l-66 194q-14 41 -35 123h-2q-17 -70 -34 -122zM160 827h107l92 -116h-71z" />
    <glyph glyph-name="Aacute" unicode="&#xc1;" horiz-adv-x="612" 
d="M424 212h-239l-70 -212h-90l229 674h105l230 -674h-93zM203 280h203l-66 194q-14 41 -35 123h-2q-17 -70 -34 -122zM348 827h106l-127 -117h-72z" />
    <glyph glyph-name="Acircumflex" unicode="&#xc2;" horiz-adv-x="612" 
d="M424 212h-239l-70 -212h-90l229 674h105l230 -674h-93zM203 280h203l-66 194q-14 41 -35 123h-2q-17 -70 -34 -122zM276 824h67l105 -114h-74l-63 69h-2l-64 -69h-71z" />
    <glyph glyph-name="Atilde" unicode="&#xc3;" horiz-adv-x="612" 
d="M424 212h-239l-70 -212h-90l229 674h105l230 -674h-93zM203 280h203l-66 194q-14 41 -35 123h-2q-17 -70 -34 -122zM232 715h-47q-1 46 17.5 74t50.5 28q22 0 60 -20q32 -18 47 -18q13 0 19.5 8t7.5 31h47q2 -97 -68 -97q-23 0 -61 19q-36 19 -47 19q-21 0 -26 -44z" />
    <glyph glyph-name="Adieresis" unicode="&#xc4;" horiz-adv-x="612" 
d="M424 212h-239l-70 -212h-90l229 674h105l230 -674h-93zM203 280h203l-66 194q-14 41 -35 123h-2q-17 -70 -34 -122zM217 719q-21 0 -35 15t-14 36t14 35.5t36 14.5q20 0 33.5 -14.5t13.5 -35.5q0 -22 -13.5 -36.5t-34.5 -14.5zM402 719q-21 0 -34.5 14.5t-13.5 36.5
q0 21 14 35.5t35 14.5t34.5 -14.5t13.5 -35.5q0 -22 -13.5 -36.5t-35.5 -14.5z" />
    <glyph glyph-name="Aring" unicode="&#xc5;" horiz-adv-x="612" 
d="M424 212h-239l-70 -212h-90l229 674h105l230 -674h-93zM203 280h203l-66 194q-14 41 -35 123h-2q-17 -70 -34 -122zM308 878q45 0 72 -26t27 -64t-28 -63.5t-71 -25.5q-45 0 -72.5 25.5t-27.5 62.5q0 39 27.5 65t72.5 26zM307 842q-22 0 -35 -16t-13 -39
q0 -20 13.5 -35.5t34.5 -15.5t34.5 15.5t13.5 37.5t-13.5 37.5t-34.5 15.5z" />
    <glyph glyph-name="AE" unicode="&#xc6;" horiz-adv-x="788" 
d="M89 0h-90l308 674h422v-73h-287l26 -215h251v-72h-240l30 -241h247v-73h-322l-30 238h-207zM226 308h168l-22 194q-11 84 -12 109h-4q-10 -28 -43 -106z" />
    <glyph glyph-name="Ccedilla" unicode="&#xc7;" horiz-adv-x="580" 
d="M529 91l18 -69q-64 -32 -177 -32l-23 -40q30 -6 50 -26t20 -49q0 -41 -30 -61t-73 -20q-42 0 -71 17l14 45q24 -13 56 -13q42 0 42 30q0 35 -78 43l42 77q-128 16 -205.5 103.5t-77.5 234.5q0 158 97.5 256t254.5 98q103 0 160 -30l-21 -71q-58 28 -136 28
q-120 0 -191.5 -73.5t-71.5 -204.5q0 -125 68.5 -198t190.5 -73q84 0 142 28z" />
    <glyph glyph-name="Egrave" unicode="&#xc8;" horiz-adv-x="492" 
d="M425 388v-72h-262v-243h292v-73h-379v674h364v-73h-277v-213h262zM119 827h106l93 -116h-72z" />
    <glyph glyph-name="Eacute" unicode="&#xc9;" horiz-adv-x="492" 
d="M425 388v-72h-262v-243h292v-73h-379v674h364v-73h-277v-213h262zM302 827h106l-127 -117h-72z" />
    <glyph glyph-name="Ecircumflex" unicode="&#xca;" horiz-adv-x="492" 
d="M425 388v-72h-262v-243h292v-73h-379v674h364v-73h-277v-213h262zM223 824h67l105 -114h-74l-64 69h-2l-63 -69h-72z" />
    <glyph glyph-name="Edieresis" unicode="&#xcb;" horiz-adv-x="492" 
d="M425 388v-72h-262v-243h292v-73h-379v674h364v-73h-277v-213h262zM163 721q-22 0 -36 15t-14 36q0 20 14.5 35t35.5 15t34.5 -14.5t13.5 -35.5q0 -22 -13.5 -36.5t-34.5 -14.5zM348 721q-21 0 -35 15t-14 36t14 35.5t35 14.5t35 -14.5t14 -35.5q0 -22 -13.5 -36.5
t-35.5 -14.5z" />
    <glyph glyph-name="Igrave" unicode="&#xcc;" horiz-adv-x="239" 
d="M76 674h87v-674h-87v674zM-25 827h106l92 -116h-71z" />
    <glyph glyph-name="Iacute" unicode="&#xcd;" horiz-adv-x="239" 
d="M76 674h87v-674h-87v674zM159 827h107l-128 -117h-71z" />
    <glyph glyph-name="Icircumflex" unicode="&#xce;" horiz-adv-x="239" 
d="M76 674h87v-674h-87v674zM85 824h67l105 -114h-73l-64 69h-2l-64 -69h-71z" />
    <glyph glyph-name="Idieresis" unicode="&#xcf;" horiz-adv-x="239" 
d="M76 674h87v-674h-87v674zM28 721q-22 0 -36 15t-14 36q0 20 14.5 35t35.5 15t34.5 -14.5t13.5 -35.5q0 -22 -13.5 -36.5t-34.5 -14.5zM213 721q-21 0 -35 15t-14 36t14.5 35.5t35.5 14.5t34.5 -14.5t13.5 -35.5q0 -22 -13.5 -36.5t-35.5 -14.5z" />
    <glyph glyph-name="Eth" unicode="&#xd0;" horiz-adv-x="671" 
d="M-2 307v70h83v290q88 15 185 15q183 0 273 -84q95 -87 95 -245q0 -166 -97 -263t-298 -97q-96 0 -158 7v307h-83zM348 377v-70h-180v-240q29 -4 87 -4q141 0 214.5 74.5t73.5 214.5q1 123 -68.5 191.5t-204.5 68.5q-61 0 -102 -9v-226h180z" />
    <glyph glyph-name="Ntilde" unicode="&#xd1;" horiz-adv-x="658" 
d="M158 0h-82v674h95l216 -341q73 -115 121 -219l2 1q-10 113 -10 277v282h82v-674h-88l-214 342q-83 132 -126 225l-3 -1q7 -119 7 -278v-288zM257 715h-47q-2 46 16.5 74t51.5 28q21 0 59 -20q32 -18 48 -18q12 0 18.5 8t8.5 31h46q2 -97 -67 -97q-23 0 -61 19
q-36 19 -47 19q-23 0 -26 -44z" />
    <glyph glyph-name="Ograve" unicode="&#xd2;" horiz-adv-x="689" 
d="M349 685q137 0 220 -95t83 -246q0 -168 -89 -261.5t-224 -93.5q-134 0 -218.5 95t-84.5 247q0 159 88 256.5t225 97.5zM345 614q-103 0 -159.5 -81.5t-56.5 -199.5q0 -113 58 -193t157 -80q100 0 158 80t58 200q0 110 -56.5 192t-158.5 82zM199 829h107l92 -116h-71z" />
    <glyph glyph-name="Oacute" unicode="&#xd3;" horiz-adv-x="689" 
d="M349 685q137 0 220 -95t83 -246q0 -168 -89 -261.5t-224 -93.5q-134 0 -218.5 95t-84.5 247q0 159 88 256.5t225 97.5zM345 614q-103 0 -159.5 -81.5t-56.5 -199.5q0 -113 58 -193t157 -80q100 0 158 80t58 200q0 110 -56.5 192t-158.5 82zM384 829h106l-127 -116h-72z
" />
    <glyph glyph-name="Ocircumflex" unicode="&#xd4;" horiz-adv-x="689" 
d="M349 685q137 0 220 -95t83 -246q0 -168 -89 -261.5t-224 -93.5q-134 0 -218.5 95t-84.5 247q0 159 88 256.5t225 97.5zM345 614q-103 0 -159.5 -81.5t-56.5 -199.5q0 -113 58 -193t157 -80q100 0 158 80t58 200q0 110 -56.5 192t-158.5 82zM310 827h67l105 -114h-74
l-64 69h-2l-63 -69h-72z" />
    <glyph glyph-name="Otilde" unicode="&#xd5;" horiz-adv-x="689" 
d="M349 685q137 0 220 -95t83 -246q0 -168 -89 -261.5t-224 -93.5q-134 0 -218.5 95t-84.5 247q0 159 88 256.5t225 97.5zM345 614q-103 0 -159.5 -81.5t-56.5 -199.5q0 -113 58 -193t157 -80q100 0 158 80t58 200q0 110 -56.5 192t-158.5 82zM267 717h-47q-2 46 16.5 74
t51.5 28q24 0 59 -20q32 -18 48 -18q12 0 18.5 8t8.5 31h46q2 -97 -67 -97q-23 0 -61 19q-36 19 -47 19q-23 0 -26 -44z" />
    <glyph glyph-name="Odieresis" unicode="&#xd6;" horiz-adv-x="689" 
d="M349 685q137 0 220 -95t83 -246q0 -168 -89 -261.5t-224 -93.5q-134 0 -218.5 95t-84.5 247q0 159 88 256.5t225 97.5zM345 614q-103 0 -159.5 -81.5t-56.5 -199.5q0 -113 58 -193t157 -80q100 0 158 80t58 200q0 110 -56.5 192t-158.5 82zM252 721q-22 0 -35.5 14.5
t-13.5 36.5q0 21 14 35.5t35 14.5t34.5 -14.5t13.5 -35.5q0 -22 -13.5 -36.5t-34.5 -14.5zM437 721q-21 0 -35 15t-14 36t14.5 35.5t35.5 14.5t34.5 -14.5t13.5 -35.5q0 -22 -13.5 -36.5t-35.5 -14.5z" />
    <glyph glyph-name="multiply" unicode="&#xd7;" horiz-adv-x="596" 
d="M40 482l44 44l214 -219l214 219l44 -44l-215 -219l215 -219l-44 -44l-214 219l-214 -219l-44 44l214 219z" />
    <glyph glyph-name="Oslash" unicode="&#xd8;" horiz-adv-x="689" 
d="M112 -43l-49 39l62 88q-89 95 -89 249q0 157 88.5 254.5t222.5 97.5q95 0 168 -53l59 81l53 -36l-62 -86q87 -95 87 -248q0 -168 -88.5 -261t-217.5 -93q-97 0 -171 54zM176 158l296 410q-55 47 -126 47q-104 0 -162.5 -81.5t-58.5 -195.5q0 -94 50 -181zM513 515
l-295 -408q51 -48 126 -48q102 0 160.5 81t58.5 200q0 98 -47 175h-3z" />
    <glyph glyph-name="Ugrave" unicode="&#xd9;" horiz-adv-x="647" 
d="M75 674h88v-399q0 -108 43 -161.5t114 -53.5q78 0 121 53t43 162v399h88v-393q0 -148 -69.5 -220t-185.5 -72q-111 0 -176.5 69.5t-65.5 218.5v397zM183 827h106l93 -116h-72z" />
    <glyph glyph-name="Uacute" unicode="&#xda;" horiz-adv-x="647" 
d="M75 674h88v-399q0 -108 43 -161.5t114 -53.5q78 0 121 53t43 162v399h88v-393q0 -148 -69.5 -220t-185.5 -72q-111 0 -176.5 69.5t-65.5 218.5v397zM366 827h107l-128 -117h-71z" />
    <glyph glyph-name="Ucircumflex" unicode="&#xdb;" horiz-adv-x="647" 
d="M75 674h88v-399q0 -108 43 -161.5t114 -53.5q78 0 121 53t43 162v399h88v-393q0 -148 -69.5 -220t-185.5 -72q-111 0 -176.5 69.5t-65.5 218.5v397zM295 824h67l105 -114h-74l-63 69h-2l-64 -69h-71z" />
    <glyph glyph-name="Udieresis" unicode="&#xdc;" horiz-adv-x="647" 
d="M75 674h88v-399q0 -108 43 -161.5t114 -53.5q78 0 121 53t43 162v399h88v-393q0 -148 -69.5 -220t-185.5 -72q-111 0 -176.5 69.5t-65.5 218.5v397zM233 721q-21 0 -35 15t-14 36q0 20 14.5 35t35.5 15q20 0 34 -14.5t14 -35.5t-14 -36t-35 -15zM419 721
q-22 0 -35.5 14.5t-13.5 36.5q0 21 14 35.5t35 14.5t34.5 -14.5t13.5 -35.5q0 -22 -13.5 -36.5t-34.5 -14.5z" />
    <glyph glyph-name="Yacute" unicode="&#xdd;" horiz-adv-x="541" 
d="M314 0h-88v286l-213 388h99l95 -186q40 -78 67 -139h2q16 37 68 139l97 186h99l-226 -387v-287zM320 821h106l-127 -116h-72z" />
    <glyph glyph-name="Thorn" unicode="&#xde;" horiz-adv-x="531" 
d="M76 0v674h86v-132q43 8 96 8q115 0 178 -55q55 -52 55 -131q0 -103 -69.5 -158t-183.5 -55q-41 0 -76 5v-156h-86zM162 473v-246q28 -6 75 -6q80 0 123.5 36t43.5 98q0 63 -41 94.5t-113 31.5q-56 0 -88 -8z" />
    <glyph glyph-name="germandbls" unicode="&#xdf;" horiz-adv-x="548" 
d="M161 0h-88v452q0 153 71 218q57 51 147 51q75 0 126.5 -45t51.5 -124q0 -49 -23 -82q-72 -30 -72 -81q0 -16 7 -31.5t16 -25.5l28 -30q26 -26 40 -42.5t27.5 -47t13.5 -64.5q0 -71 -48.5 -115t-130.5 -44q-65 0 -106 21l16 67q40 -20 84 -20q46 0 72 24t26 60
q0 53 -54 103q-39 37 -58.5 66t-19.5 67q0 79 89 123q9 22 9 43q0 51 -28.5 80t-75.5 29q-60 0 -90 -46t-30 -150v-456z" />
    <glyph glyph-name="agrave" unicode="&#xe0;" horiz-adv-x="482" 
d="M421 0h-80l-7 61h-3q-22 -31 -60.5 -51.5t-87.5 -20.5q-70 0 -109 41t-39 98q0 88 75.5 134.5t215.5 45.5v10q0 112 -110 112q-70 0 -126 -36l-20 58q66 43 159 43q53 0 90.5 -17t57 -46.5t28 -62t8.5 -72.5v-181q0 -72 8 -116zM328 163v84q-205 4 -205 -109
q0 -41 23.5 -62.5t59.5 -21.5q44 0 74.5 23.5t42.5 57.5q5 15 5 28zM95 693h97l87 -143h-62z" />
    <glyph glyph-name="aacute" unicode="&#xe1;" horiz-adv-x="482" 
d="M421 0h-80l-7 61h-3q-22 -31 -60.5 -51.5t-87.5 -20.5q-70 0 -109 41t-39 98q0 88 75.5 134.5t215.5 45.5v10q0 112 -110 112q-70 0 -126 -36l-20 58q66 43 159 43q53 0 90.5 -17t57 -46.5t28 -62t8.5 -72.5v-181q0 -72 8 -116zM328 163v84q-205 4 -205 -109
q0 -41 23.5 -62.5t59.5 -21.5q44 0 74.5 23.5t42.5 57.5q5 15 5 28zM275 693h97l-122 -143h-63z" />
    <glyph glyph-name="acircumflex" unicode="&#xe2;" horiz-adv-x="482" 
d="M421 0h-80l-7 61h-3q-22 -31 -60.5 -51.5t-87.5 -20.5q-70 0 -109 41t-39 98q0 88 75.5 134.5t215.5 45.5v10q0 112 -110 112q-70 0 -126 -36l-20 58q66 43 159 43q53 0 90.5 -17t57 -46.5t28 -62t8.5 -72.5v-181q0 -72 8 -116zM328 163v84q-205 4 -205 -109
q0 -41 23.5 -62.5t59.5 -21.5q44 0 74.5 23.5t42.5 57.5q5 15 5 28zM205 693h61l96 -143h-67l-58 95h-2l-58 -95h-66z" />
    <glyph glyph-name="atilde" unicode="&#xe3;" horiz-adv-x="482" 
d="M421 0h-80l-7 61h-3q-22 -31 -60.5 -51.5t-87.5 -20.5q-70 0 -109 41t-39 98q0 88 75.5 134.5t215.5 45.5v10q0 112 -110 112q-70 0 -126 -36l-20 58q66 43 159 43q53 0 90.5 -17t57 -46.5t28 -62t8.5 -72.5v-181q0 -72 8 -116zM328 163v84q-205 4 -205 -109
q0 -41 23.5 -62.5t59.5 -21.5q44 0 74.5 23.5t42.5 57.5q5 15 5 28zM163 567h-48q-1 48 17 76t51 28q23 0 62 -22q30 -17 42 -17q13 0 19.5 9.5t8.5 33.5h46q3 -101 -68 -101q-23 0 -61 20q-30 18 -43 18q-23 0 -26 -45z" />
    <glyph glyph-name="adieresis" unicode="&#xe4;" horiz-adv-x="482" 
d="M421 0h-80l-7 61h-3q-22 -31 -60.5 -51.5t-87.5 -20.5q-70 0 -109 41t-39 98q0 88 75.5 134.5t215.5 45.5v10q0 112 -110 112q-70 0 -126 -36l-20 58q66 43 159 43q53 0 90.5 -17t57 -46.5t28 -62t8.5 -72.5v-181q0 -72 8 -116zM328 163v84q-205 4 -205 -109
q0 -41 23.5 -62.5t59.5 -21.5q44 0 74.5 23.5t42.5 57.5q5 15 5 28zM149 570q-22 0 -36.5 15t-14.5 36t15 36t36 15t35 -14.5t14 -36.5q0 -21 -14 -36t-35 -15zM334 570q-22 0 -36 15t-14 36t14.5 36t35.5 15t35 -14.5t14 -36.5q0 -21 -14 -36t-35 -15z" />
    <glyph glyph-name="aring" unicode="&#xe5;" horiz-adv-x="482" 
d="M421 0h-80l-7 61h-3q-22 -31 -60.5 -51.5t-87.5 -20.5q-70 0 -109 41t-39 98q0 88 75.5 134.5t215.5 45.5v10q0 112 -110 112q-70 0 -126 -36l-20 58q66 43 159 43q53 0 90.5 -17t57 -46.5t28 -62t8.5 -72.5v-181q0 -72 8 -116zM328 163v84q-205 4 -205 -109
q0 -41 23.5 -62.5t59.5 -21.5q44 0 74.5 23.5t42.5 57.5q5 15 5 28zM240 537q-44 0 -72.5 26t-28.5 65q0 41 28 68t74 27q44 0 71.5 -27t27.5 -67t-28.5 -66t-71.5 -26zM239 574q23 0 37.5 16.5t14.5 39.5t-14.5 39t-37.5 16t-36 -16.5t-13 -40.5q0 -21 14 -37.5t35 -16.5z
" />
    <glyph glyph-name="ae" unicode="&#xe6;" horiz-adv-x="773" 
d="M734 233h-324q-2 -84 40.5 -130t113.5 -46q74 0 132 28l16 -62q-63 -34 -159 -34q-63 0 -113 28.5t-71 78.5h-2q-23 -50 -70.5 -78.5t-109.5 -28.5q-72 0 -111.5 40.5t-39.5 97.5q0 84 76 130t216 45v20q0 12 -4.5 27.5t-15 35t-35 32.5t-58.5 13q-70 0 -124 -37l-21 58
q70 44 151 44q123 0 156 -103h2q25 49 69 76t100 27q42 0 76 -15.5t54.5 -39.5t34.5 -55t19 -59t5 -54t-3 -39zM329 172v71q-206 4 -206 -109q0 -37 24 -58.5t60 -21.5q45 0 75.5 23.5t41.5 59.5q5 14 5 35zM409 296h243q2 28 -7.5 57.5t-37 54t-68.5 24.5q-59 0 -93 -43.5
t-37 -92.5z" />
    <glyph glyph-name="ccedilla" unicode="&#xe7;" horiz-adv-x="448" 
d="M403 84l15 -66q-48 -25 -125 -28l-26 -40q29 -4 49.5 -23t20.5 -46q0 -42 -29.5 -61.5t-74.5 -19.5q-39 0 -68 17l15 43q24 -15 54 -15q43 0 43 32q-1 35 -78 42l42 73q-93 12 -148 78t-55 167q0 113 71.5 185t188.5 72q72 0 122 -25l-20 -68q-40 23 -102 23
q-80 0 -125.5 -52t-45.5 -131q0 -83 47.5 -132t120.5 -49q53 0 108 24z" />
    <glyph glyph-name="egrave" unicode="&#xe8;" horiz-adv-x="501" 
d="M462 226h-340q1 -84 48 -126t118 -42q75 0 134 25l15 -63q-66 -30 -161 -30q-111 0 -174.5 66.5t-63.5 177.5q0 112 62 186.5t165 74.5q56 0 97.5 -22.5t62.5 -59t30.5 -73t9.5 -73.5q0 -14 -3 -41zM123 289h257q1 54 -27.5 98.5t-94.5 44.5q-61 0 -95 -44t-40 -99z
M135 693h97l88 -143h-63z" />
    <glyph glyph-name="eacute" unicode="&#xe9;" horiz-adv-x="501" 
d="M462 226h-340q1 -84 48 -126t118 -42q75 0 134 25l15 -63q-66 -30 -161 -30q-111 0 -174.5 66.5t-63.5 177.5q0 112 62 186.5t165 74.5q56 0 97.5 -22.5t62.5 -59t30.5 -73t9.5 -73.5q0 -14 -3 -41zM123 289h257q1 54 -27.5 98.5t-94.5 44.5q-61 0 -95 -44t-40 -99z
M304 693h97l-122 -143h-63z" />
    <glyph glyph-name="ecircumflex" unicode="&#xea;" horiz-adv-x="501" 
d="M462 226h-340q1 -84 48 -126t118 -42q75 0 134 25l15 -63q-66 -30 -161 -30q-111 0 -174.5 66.5t-63.5 177.5q0 112 62 186.5t165 74.5q56 0 97.5 -22.5t62.5 -59t30.5 -73t9.5 -73.5q0 -14 -3 -41zM123 289h257q1 54 -27.5 98.5t-94.5 44.5q-61 0 -95 -44t-40 -99z
M232 693h60l96 -143h-67l-58 95h-2l-58 -95h-66z" />
    <glyph glyph-name="edieresis" unicode="&#xeb;" horiz-adv-x="501" 
d="M462 226h-340q1 -84 48 -126t118 -42q75 0 134 25l15 -63q-66 -30 -161 -30q-111 0 -174.5 66.5t-63.5 177.5q0 112 62 186.5t165 74.5q56 0 97.5 -22.5t62.5 -59t30.5 -73t9.5 -73.5q0 -14 -3 -41zM123 289h257q1 54 -27.5 98.5t-94.5 44.5q-61 0 -95 -44t-40 -99z
M176 570q-22 0 -36.5 15t-14.5 36t15 36t36 15t35 -14.5t14 -36.5q0 -21 -14 -36t-35 -15zM361 570q-22 0 -36 15t-14 36t14.5 36t35.5 15t35 -14.5t14 -36.5q0 -21 -14 -36t-35 -15z" />
    <glyph glyph-name="igrave" unicode="&#xec;" horiz-adv-x="234" 
d="M161 0h-88v484h88v-484zM-28 693h97l88 -143h-62z" />
    <glyph glyph-name="iacute" unicode="&#xed;" horiz-adv-x="234" 
d="M161 0h-88v484h88v-484zM155 693h97l-122 -143h-63z" />
    <glyph glyph-name="icircumflex" unicode="&#xee;" horiz-adv-x="234" 
d="M161 0h-88v484h88v-484zM86 693h61l96 -143h-68l-58 95h-2l-58 -95h-65z" />
    <glyph glyph-name="idieresis" unicode="&#xef;" horiz-adv-x="234" 
d="M161 0h-88v484h88v-484zM25 570q-22 0 -36.5 15t-14.5 36t15 36t36 15t35 -14.5t14 -36.5q0 -21 -14 -36t-35 -15zM210 570q-22 0 -36 15t-14 36t14.5 36t35.5 15t35 -14.5t14 -36.5q0 -21 -14 -36t-35 -15z" />
    <glyph glyph-name="eth" unicode="&#xf0;" horiz-adv-x="541" 
d="M267 55q65 0 104.5 52.5t39.5 135.5q0 92 -34 134q-41 47 -106 47q-71 0 -107.5 -58t-36.5 -129q0 -77 40 -129.5t100 -52.5zM116 507l-19 43l116 55q-38 28 -104 60l38 55q79 -36 141 -81l128 61l21 -44l-106 -50q85 -69 128 -159q42 -87 42 -194q0 -67 -19.5 -119
t-53.5 -83t-75 -46.5t-86 -15.5q-100 0 -164.5 67.5t-64.5 179.5q0 113 67 180.5t158 67.5q66 0 111 -43l2 3q-45 75 -118 129z" />
    <glyph glyph-name="ntilde" unicode="&#xf1;" horiz-adv-x="555" 
d="M73 0v353q0 78 -4 131h78l5 -80h2q20 38 62 64.5t98 26.5q28 0 55.5 -9.5t54.5 -31t44 -64t17 -101.5v-289h-88v279q0 64 -27 103.5t-85 39.5q-42 0 -74 -26t-44 -64q-6 -16 -6 -41v-291h-88zM203 567h-48q-1 48 17 76t51 28q23 0 62 -22q30 -17 42 -17q25 0 28 43h47
q2 -101 -69 -101q-23 0 -61 20q-30 18 -43 18q-23 0 -26 -45z" />
    <glyph glyph-name="ograve" unicode="&#xf2;" horiz-adv-x="549" 
d="M278 495q104 0 168.5 -69t64.5 -180q0 -125 -71.5 -191t-169.5 -66q-100 0 -166 68t-66 181q0 118 68 187.5t172 69.5zM276 429q-73 0 -111 -55.5t-38 -132.5q0 -80 41.5 -133t105.5 -53q63 0 105 53.5t42 134.5q0 44 -14 84.5t-48 71t-83 30.5zM145 693h97l87 -143h-62z
" />
    <glyph glyph-name="oacute" unicode="&#xf3;" horiz-adv-x="549" 
d="M278 495q104 0 168.5 -69t64.5 -180q0 -125 -71.5 -191t-169.5 -66q-100 0 -166 68t-66 181q0 118 68 187.5t172 69.5zM276 429q-73 0 -111 -55.5t-38 -132.5q0 -80 41.5 -133t105.5 -53q63 0 105 53.5t42 134.5q0 44 -14 84.5t-48 71t-83 30.5zM309 693h97l-122 -143
h-63z" />
    <glyph glyph-name="ocircumflex" unicode="&#xf4;" horiz-adv-x="549" 
d="M278 495q104 0 168.5 -69t64.5 -180q0 -125 -71.5 -191t-169.5 -66q-100 0 -166 68t-66 181q0 118 68 187.5t172 69.5zM276 429q-73 0 -111 -55.5t-38 -132.5q0 -80 41.5 -133t105.5 -53q63 0 105 53.5t42 134.5q0 44 -14 84.5t-48 71t-83 30.5zM243 693h61l96 -143h-68
l-58 95h-2l-58 -95h-65z" />
    <glyph glyph-name="otilde" unicode="&#xf5;" horiz-adv-x="549" 
d="M278 495q104 0 168.5 -69t64.5 -180q0 -125 -71.5 -191t-169.5 -66q-100 0 -166 68t-66 181q0 118 68 187.5t172 69.5zM276 429q-73 0 -111 -55.5t-38 -132.5q0 -80 41.5 -133t105.5 -53q63 0 105 53.5t42 134.5q0 44 -14 84.5t-48 71t-83 30.5zM199 567h-48q-1 48 17 76
t51 28q23 0 62 -22q30 -17 42 -17q25 0 28 43h47q2 -101 -69 -101q-23 0 -61 20q-30 18 -43 18q-23 0 -26 -45z" />
    <glyph glyph-name="odieresis" unicode="&#xf6;" horiz-adv-x="549" 
d="M278 495q104 0 168.5 -69t64.5 -180q0 -125 -71.5 -191t-169.5 -66q-100 0 -166 68t-66 181q0 118 68 187.5t172 69.5zM276 429q-73 0 -111 -55.5t-38 -132.5q0 -80 41.5 -133t105.5 -53q63 0 105 53.5t42 134.5q0 44 -14 84.5t-48 71t-83 30.5zM182 570q-22 0 -36.5 15
t-14.5 36t15 36t36 15t35 -14.5t14 -36.5q0 -21 -14 -36t-35 -15zM367 570q-22 0 -36 15t-14 36t14.5 36t35.5 15t35 -14.5t14 -36.5q0 -21 -14 -36t-35 -15z" />
    <glyph glyph-name="divide" unicode="&#xf7;" horiz-adv-x="596" 
d="M298 387q-24 0 -38.5 15.5t-14.5 39.5q0 25 15 40.5t39 15.5q23 0 37.5 -15.5t14.5 -40.5q0 -24 -14.5 -39.5t-38.5 -15.5zM556 237h-516v60h516v-60zM298 36q-24 0 -38.5 15.5t-14.5 39.5q0 25 15 40.5t39 15.5q23 0 37.5 -15.5t14.5 -40.5q0 -24 -14.5 -39.5
t-38.5 -15.5z" />
    <glyph glyph-name="oslash" unicode="&#xf8;" horiz-adv-x="549" 
d="M276 495q68 0 123 -35l42 60l39 -27l-42 -62q73 -70 73 -185q0 -124 -71 -190.5t-165 -66.5q-72 0 -124 34l-43 -61l-37 30l42 60q-75 70 -75 187t68 186.5t170 69.5zM161 119l198 281q-35 29 -85 29q-75 0 -113 -56.5t-38 -131.5q0 -71 36 -121zM389 361l-198 -278
q32 -28 81 -28q68 0 110.5 53t42.5 135q0 68 -34 118h-2z" />
    <glyph glyph-name="ugrave" unicode="&#xf9;" horiz-adv-x="551" 
d="M478 484v-352q0 -81 4 -132h-78l-5 79h-2q-21 -36 -61.5 -63t-98.5 -27q-31 0 -58.5 9.5t-53 32t-40.5 66t-15 104.5v283h88v-268q0 -154 108 -154q41 0 72 23.5t44 56.5q8 21 8 45v297h88zM140 693h97l88 -143h-63z" />
    <glyph glyph-name="uacute" unicode="&#xfa;" horiz-adv-x="551" 
d="M478 484v-352q0 -81 4 -132h-78l-5 79h-2q-21 -36 -61.5 -63t-98.5 -27q-31 0 -58.5 9.5t-53 32t-40.5 66t-15 104.5v283h88v-268q0 -154 108 -154q41 0 72 23.5t44 56.5q8 21 8 45v297h88zM321 693h97l-122 -143h-63z" />
    <glyph glyph-name="ucircumflex" unicode="&#xfb;" horiz-adv-x="551" 
d="M478 484v-352q0 -81 4 -132h-78l-5 79h-2q-21 -36 -61.5 -63t-98.5 -27q-31 0 -58.5 9.5t-53 32t-40.5 66t-15 104.5v283h88v-268q0 -154 108 -154q41 0 72 23.5t44 56.5q8 21 8 45v297h88zM244 693h61l96 -143h-67l-58 95h-2l-58 -95h-66z" />
    <glyph glyph-name="udieresis" unicode="&#xfc;" horiz-adv-x="551" 
d="M478 484v-352q0 -81 4 -132h-78l-5 79h-2q-21 -36 -61.5 -63t-98.5 -27q-31 0 -58.5 9.5t-53 32t-40.5 66t-15 104.5v283h88v-268q0 -154 108 -154q41 0 72 23.5t44 56.5q8 21 8 45v297h88zM186 570q-22 0 -36.5 15t-14.5 36t15 36t36 15t35 -14.5t14 -36.5
q0 -21 -14 -36t-35 -15zM371 570q-22 0 -36 15t-14 36t14.5 36t35.5 15t35 -14.5t14 -36.5q0 -21 -14 -36t-35 -15z" />
    <glyph glyph-name="yacute" unicode="&#xfd;" horiz-adv-x="471" 
d="M9 484h96l106 -286q19 -54 31 -99h2q1 3 12.5 41.5t18.5 59.5l96 284h93l-132 -345q-49 -129 -85.5 -197t-80.5 -106q-53 -47 -108 -57l-22 74q42 13 77 43q47 37 74 98q7 16 7 21q0 7 -6 23zM285 693h97l-122 -143h-63z" />
    <glyph glyph-name="thorn" unicode="&#xfe;" horiz-adv-x="569" 
d="M73 710h87v-303h2q55 88 165 88q87 1 145.5 -67.5t58.5 -179.5q0 -125 -65 -192t-155 -67q-100 0 -149 76h-2v-263h-87v908zM160 280v-89q0 -22 10 -44q14 -41 49 -65t79 -24q66 0 105.5 51t39.5 138q0 75 -39 126.5t-104 51.5q-43 0 -78.5 -26t-51.5 -70
q-10 -28 -10 -49z" />
    <glyph glyph-name="ydieresis" unicode="&#xff;" horiz-adv-x="471" 
d="M9 484h96l106 -286q19 -54 31 -99h2q1 3 12.5 41.5t18.5 59.5l96 284h93l-132 -345q-49 -129 -85.5 -197t-80.5 -106q-53 -47 -108 -57l-22 74q42 13 77 43q47 37 74 98q7 16 7 21q0 7 -6 23zM155 570q-22 0 -36.5 15t-14.5 36t15 36t36 15t35 -14.5t14 -36.5
q0 -21 -14 -36t-35 -15zM340 570q-22 0 -36 15t-14 36t14.5 36t36.5 15q20 0 34 -14.5t14 -36.5q0 -21 -13.5 -36t-35.5 -15z" />
    <glyph glyph-name="Amacron" unicode="&#x100;" horiz-adv-x="612" 
d="M424 212h-239l-70 -212h-90l229 674h105l230 -674h-93zM203 280h203l-66 194q-14 41 -35 123h-2q-17 -70 -34 -122zM185 788h239v-55h-239v55z" />
    <glyph glyph-name="amacron" unicode="&#x101;" horiz-adv-x="482" 
d="M421 0h-80l-7 61h-3q-22 -31 -60.5 -51.5t-87.5 -20.5q-70 0 -109 41t-39 98q0 88 75.5 134.5t215.5 45.5v10q0 112 -110 112q-70 0 -126 -36l-20 58q66 43 159 43q53 0 90.5 -17t57 -46.5t28 -62t8.5 -72.5v-181q0 -72 8 -116zM328 163v84q-205 4 -205 -109
q0 -41 23.5 -62.5t59.5 -21.5q44 0 74.5 23.5t42.5 57.5q5 15 5 28zM129 643h225v-57h-225v57z" />
    <glyph glyph-name="Abreve" unicode="&#x102;" horiz-adv-x="612" 
d="M424 212h-239l-70 -212h-90l229 674h105l230 -674h-93zM203 280h203l-66 194q-14 41 -35 123h-2q-17 -70 -34 -122zM181 817h52q13 -49 72 -49q64 0 73 49h51q-1 -47 -32.5 -76.5t-92.5 -29.5t-91 29.5t-32 76.5z" />
    <glyph glyph-name="abreve" unicode="&#x103;" horiz-adv-x="482" 
d="M421 0h-80l-7 61h-3q-22 -31 -60.5 -51.5t-87.5 -20.5q-70 0 -109 41t-39 98q0 88 75.5 134.5t215.5 45.5v10q0 112 -110 112q-70 0 -126 -36l-20 58q66 43 159 43q53 0 90.5 -17t57 -46.5t28 -62t8.5 -72.5v-181q0 -72 8 -116zM328 163v84q-205 4 -205 -109
q0 -41 23.5 -62.5t59.5 -21.5q44 0 74.5 23.5t42.5 57.5q5 15 5 28zM117 682h52q5 -31 23.5 -50t48.5 -19q33 0 51 20.5t21 48.5h52q0 -56 -34 -90t-90 -34q-62 0 -93 36t-31 88z" />
    <glyph glyph-name="Aogonek" unicode="&#x104;" horiz-adv-x="612" 
d="M359 674l230 -674h-34q-55 -55 -55 -95q0 -24 14 -38t37 -14q25 0 45 10l14 -45q-30 -23 -81 -23q-43 0 -68 22.5t-25 63.5q0 57 59 123l-71 208h-239l-70 -212h-90l229 674h105zM203 280h203l-66 194q-14 41 -35 123h-2q-17 -70 -34 -122z" />
    <glyph glyph-name="aogonek" unicode="&#x105;" horiz-adv-x="482" 
d="M90 394l-20 58q66 43 159 43q53 0 90.5 -17t57 -46.5t28 -62t8.5 -72.5v-181q0 -73 8 -116h-25q-39 -52 -39 -96q0 -50 48 -50q24 0 46 10l14 -46q-32 -24 -83 -24q-39 0 -64 22.5t-25 62.5q0 49 48 124l-7 58h-3q-22 -31 -60.5 -51.5t-87.5 -20.5q-70 0 -109 41t-39 98
q0 88 75.5 134.5t215.5 45.5v10q0 112 -110 112q-70 0 -126 -36zM328 163v84q-205 4 -205 -109q0 -41 23.5 -62.5t59.5 -21.5q44 0 74.5 23.5t42.5 57.5q5 15 5 28z" />
    <glyph glyph-name="Cacute" unicode="&#x106;" horiz-adv-x="580" 
d="M529 91l18 -69q-64 -32 -178 -32q-147 0 -240 90t-93 251q0 158 97.5 256t254.5 98q103 0 160 -30l-21 -71q-58 28 -136 28q-120 0 -191.5 -73.5t-71.5 -204.5q0 -125 68.5 -198t190.5 -73q84 0 142 28zM400 829h106l-127 -117h-71z" />
    <glyph glyph-name="cacute" unicode="&#x107;" horiz-adv-x="448" 
d="M403 84l15 -66q-54 -28 -139 -28q-109 0 -175 68t-66 179q0 113 71.5 185t188.5 72q72 0 122 -25l-20 -68q-40 23 -102 23q-80 0 -125.5 -52t-45.5 -131q0 -83 47.5 -132t120.5 -49q53 0 108 24zM302 693h97l-122 -143h-63z" />
    <glyph glyph-name="Ccircumflex" unicode="&#x108;" horiz-adv-x="580" 
d="M529 91l18 -69q-64 -32 -178 -32q-147 0 -240 90t-93 251q0 158 97.5 256t254.5 98q103 0 160 -30l-21 -71q-58 28 -136 28q-120 0 -191.5 -73.5t-71.5 -204.5q0 -125 68.5 -198t190.5 -73q84 0 142 28zM327 828h67l105 -114h-74l-64 69h-2l-63 -69h-72z" />
    <glyph glyph-name="ccircumflex" unicode="&#x109;" horiz-adv-x="448" 
d="M403 84l15 -66q-54 -28 -139 -28q-109 0 -175 68t-66 179q0 113 71.5 185t188.5 72q72 0 122 -25l-20 -68q-40 23 -102 23q-80 0 -125.5 -52t-45.5 -131q0 -83 47.5 -132t120.5 -49q53 0 108 24zM229 693h61l96 -143h-68l-58 95h-2l-58 -95h-65z" />
    <glyph glyph-name="Cdotaccent" unicode="&#x10a;" horiz-adv-x="580" 
d="M529 91l18 -69q-64 -32 -178 -32q-147 0 -240 90t-93 251q0 158 97.5 256t254.5 98q103 0 160 -30l-21 -71q-58 28 -136 28q-120 0 -191.5 -73.5t-71.5 -204.5q0 -125 68.5 -198t190.5 -73q84 0 142 28zM361 720q-21 0 -35.5 15t-14.5 35t15 35t36 15q20 0 34 -15t14 -35
t-14 -35t-35 -15z" />
    <glyph glyph-name="cdotaccent" unicode="&#x10b;" horiz-adv-x="448" 
d="M403 84l15 -66q-54 -28 -139 -28q-109 0 -175 68t-66 179q0 113 71.5 185t188.5 72q72 0 122 -25l-20 -68q-40 23 -102 23q-80 0 -125.5 -52t-45.5 -131q0 -83 47.5 -132t120.5 -49q53 0 108 24zM265 570q-21 0 -36 15t-15 36q0 22 15 37t37 15q20 0 34 -15t14 -37
q0 -21 -14 -36t-35 -15z" />
    <glyph glyph-name="Ccaron" unicode="&#x10c;" horiz-adv-x="580" 
d="M529 91l18 -69q-64 -32 -178 -32q-147 0 -240 90t-93 251q0 158 97.5 256t254.5 98q103 0 160 -30l-21 -71q-58 28 -136 28q-120 0 -191.5 -73.5t-71.5 -204.5q0 -125 68.5 -198t190.5 -73q84 0 142 28zM399 713h-67l-105 114h74l64 -70h2l63 70h72z" />
    <glyph glyph-name="ccaron" unicode="&#x10d;" horiz-adv-x="448" 
d="M403 84l15 -66q-54 -28 -139 -28q-109 0 -175 68t-66 179q0 113 71.5 185t188.5 72q72 0 122 -25l-20 -68q-40 23 -102 23q-80 0 -125.5 -52t-45.5 -131q0 -83 47.5 -132t120.5 -49q53 0 108 24zM294 550h-63l-96 143h67l59 -95h2l59 95h66z" />
    <glyph glyph-name="Dcaron" unicode="&#x10e;" horiz-adv-x="666" 
d="M76 2v663q93 14 185 14q183 0 273 -84q95 -87 95 -242q0 -167 -97 -262q-97 -97 -298 -97q-88 0 -158 8zM163 601v-532q28 -5 88 -5q139 0 213 74.5t74 211.5q1 122 -68.5 191t-204.5 69q-61 0 -102 -9zM342 712h-67l-105 114h74l64 -69h2l63 69h72z" />
    <glyph glyph-name="dcaron" unicode="&#x10f;" horiz-adv-x="574" 
d="M403 710h88v-585q0 -81 4 -125h-79l-4 84h-2q-21 -42 -64.5 -68.5t-100.5 -26.5q-89 0 -148 68.5t-59 177.5q-1 117 62 188.5t155 71.5q52 0 90 -21t56 -53h2v289zM403 203v84q0 22 -4 37q-10 44 -44.5 73t-82.5 29q-67 0 -106 -52.5t-39 -134.5q0 -77 37.5 -128
t105.5 -51q45 0 81 28.5t48 76.5q4 16 4 38zM572 522l-37 29q36 43 36 89q0 38 -31 65l63 14q14 -9 25 -29t11 -44q0 -70 -67 -124z" />
    <glyph glyph-name="Dcroat" unicode="&#x110;" horiz-adv-x="671" 
d="M-2 307v70h83v290q88 15 185 15q183 0 273 -84q95 -87 95 -245q0 -166 -97 -263t-298 -97q-96 0 -158 7v307h-83zM348 377v-70h-180v-240q29 -4 87 -4q141 0 214.5 74.5t73.5 214.5q1 123 -68.5 191.5t-204.5 68.5q-61 0 -102 -9v-226h180z" />
    <glyph glyph-name="dcroat" unicode="&#x111;" horiz-adv-x="564" 
d="M568 552h-77v-427q0 -81 4 -125h-79l-4 84h-2q-21 -42 -64.5 -68.5t-100.5 -26.5q-89 0 -148 68.5t-59 177.5q-1 117 62 188.5t155 71.5q52 0 90 -21t56 -53h2v131h-197v55h197v103h88v-103h77v-55zM403 203v84q0 22 -4 37q-10 44 -44.5 73t-82.5 29q-67 0 -106 -52.5
t-39 -134.5q0 -77 37.5 -128t105.5 -51q45 0 81 28.5t48 76.5q4 16 4 38z" />
    <glyph glyph-name="Emacron" unicode="&#x112;" horiz-adv-x="492" 
d="M425 388v-72h-262v-243h292v-73h-379v674h364v-73h-277v-213h262zM139 788h240v-55h-240v55z" />
    <glyph glyph-name="emacron" unicode="&#x113;" horiz-adv-x="501" 
d="M462 226h-340q1 -84 48 -126t118 -42q75 0 134 25l15 -63q-66 -30 -161 -30q-111 0 -174.5 66.5t-63.5 177.5q0 112 62 186.5t165 74.5q56 0 97.5 -22.5t62.5 -59t30.5 -73t9.5 -73.5q0 -14 -3 -41zM123 289h257q1 54 -27.5 98.5t-94.5 44.5q-61 0 -95 -44t-40 -99z
M141 643h225v-57h-225v57z" />
    <glyph glyph-name="Ebreve" unicode="&#x114;" horiz-adv-x="492" 
d="M425 388v-72h-262v-243h292v-73h-379v674h364v-73h-277v-213h262zM130 825h52q13 -49 72 -49q64 0 73 49h51q-1 -47 -32.5 -76.5t-92.5 -29.5t-91 29.5t-32 76.5z" />
    <glyph glyph-name="ebreve" unicode="&#x115;" horiz-adv-x="501" 
d="M462 226h-340q1 -84 48 -126t118 -42q75 0 134 25l15 -63q-66 -30 -161 -30q-111 0 -174.5 66.5t-63.5 177.5q0 112 62 186.5t165 74.5q56 0 97.5 -22.5t62.5 -59t30.5 -73t9.5 -73.5q0 -14 -3 -41zM123 289h257q1 54 -27.5 98.5t-94.5 44.5q-61 0 -95 -44t-40 -99z
M129 682h52q5 -31 23.5 -50t48.5 -19q33 0 51 20.5t21 48.5h52q0 -56 -34 -90t-90 -34q-62 0 -93 36t-31 88z" />
    <glyph glyph-name="Edotaccent" unicode="&#x116;" horiz-adv-x="492" 
d="M425 388v-72h-262v-243h292v-73h-379v674h364v-73h-277v-213h262zM258 721q-20 0 -34.5 15.5t-14.5 35.5t14.5 35t35.5 15q20 0 34 -15t14 -35t-14.5 -35.5t-34.5 -15.5z" />
    <glyph glyph-name="edotaccent" unicode="&#x117;" horiz-adv-x="501" 
d="M462 226h-340q1 -84 48 -126t118 -42q75 0 134 25l15 -63q-66 -30 -161 -30q-111 0 -174.5 66.5t-63.5 177.5q0 112 62 186.5t165 74.5q56 0 97.5 -22.5t62.5 -59t30.5 -73t9.5 -73.5q0 -14 -3 -41zM123 289h257q1 54 -27.5 98.5t-94.5 44.5q-61 0 -95 -44t-40 -99z
M255 570q-22 0 -36.5 15t-14.5 36q0 22 14.5 37t36.5 15q21 0 35 -15t14 -37q0 -21 -14 -36t-35 -15z" />
    <glyph glyph-name="Eogonek" unicode="&#x118;" horiz-adv-x="492" 
d="M447 -138l13 -47q-34 -21 -80 -21q-43 0 -67.5 21t-24.5 60q0 37 24 70.5t56 54.5h-292v674h364v-73h-277v-213h262v-72h-262v-243h292v-73h-15q-35 -22 -59 -51t-24 -55q0 -19 12.5 -29.5t33.5 -10.5q24 0 44 8z" />
    <glyph glyph-name="eogonek" unicode="&#x119;" horiz-adv-x="501" 
d="M385 -136l14 -45q-33 -24 -81 -24q-41 0 -65.5 21t-24.5 58q0 33 22 64t51 52v1q-9 -1 -27 -1q-109 0 -172.5 67t-63.5 177q0 112 62 186.5t165 74.5q56 0 97.5 -22.5t62.5 -59t30.5 -73t9.5 -73.5q0 -14 -3 -41h-340q1 -84 48 -126t118 -42q75 0 134 25l15 -63
q-13 -6 -46 -17q-33 -14 -63.5 -46t-30.5 -61q0 -20 12 -31t29 -11q24 0 47 10zM123 289h257q1 54 -27.5 98.5t-94.5 44.5q-61 0 -95 -44t-40 -99z" />
    <glyph glyph-name="Ecaron" unicode="&#x11a;" horiz-adv-x="492" 
d="M425 388v-72h-262v-243h292v-73h-379v674h364v-73h-277v-213h262zM291 710h-67l-105 114h74l64 -69h2l63 69h71z" />
    <glyph glyph-name="ecaron" unicode="&#x11b;" horiz-adv-x="501" 
d="M462 226h-340q1 -84 48 -126t118 -42q75 0 134 25l15 -63q-66 -30 -161 -30q-111 0 -174.5 66.5t-63.5 177.5q0 112 62 186.5t165 74.5q56 0 97.5 -22.5t62.5 -59t30.5 -73t9.5 -73.5q0 -14 -3 -41zM123 289h257q1 54 -27.5 98.5t-94.5 44.5q-61 0 -95 -44t-40 -99z
M285 550h-63l-96 143h67l59 -95h2l60 95h65z" />
    <glyph glyph-name="Gcircumflex" unicode="&#x11c;" horiz-adv-x="646" 
d="M589 354v-324q-103 -37 -207 -37q-159 0 -252 89q-94 91 -94 251q1 154 99.5 251t265.5 97q104 0 168 -31l-21 -71q-65 29 -149 29q-124 0 -197.5 -72.5t-73.5 -198.5q0 -127 70.5 -199.5t189.5 -72.5q80 0 116 18v201h-137v70h222zM329 827h67l104 -114h-73l-64 69h-2
l-64 -69h-71z" />
    <glyph glyph-name="gcircumflex" unicode="&#x11d;" horiz-adv-x="559" 
d="M413 484h77q-4 -70 -4 -133v-281q0 -159 -69 -221q-62 -58 -176 -58q-101 0 -161 40l22 67q61 -38 142 -38q72 0 114 41t42 128v54h-2q-49 -81 -154 -81q-89 0 -147.5 67.5t-58.5 168.5q0 117 65 187t153 70q107 0 151 -84h2zM399 206v87q0 25 -5 40q-13 41 -45 67
t-78 26q-64 0 -104 -50t-40 -133q0 -75 37.5 -124.5t105.5 -49.5q41 0 74.5 24.5t47.5 65.5q7 21 7 47zM248 697h61l96 -144h-68l-58 95h-2l-58 -95h-65z" />
    <glyph glyph-name="Gbreve" unicode="&#x11e;" horiz-adv-x="646" 
d="M589 354v-324q-103 -37 -207 -37q-159 0 -252 89q-94 91 -94 251q1 154 99.5 251t265.5 97q104 0 168 -31l-21 -71q-65 29 -149 29q-124 0 -197.5 -72.5t-73.5 -198.5q0 -127 70.5 -199.5t189.5 -72.5q80 0 116 18v201h-137v70h222zM238 827h53q11 -49 71 -49q64 0 73 49
h51q-1 -47 -32.5 -76.5t-92.5 -29.5t-91 29t-32 77z" />
    <glyph glyph-name="gbreve" unicode="&#x11f;" horiz-adv-x="559" 
d="M413 484h77q-4 -70 -4 -133v-281q0 -159 -69 -221q-62 -58 -176 -58q-101 0 -161 40l22 67q61 -38 142 -38q72 0 114 41t42 128v54h-2q-49 -81 -154 -81q-89 0 -147.5 67.5t-58.5 168.5q0 117 65 187t153 70q107 0 151 -84h2zM399 206v87q0 25 -5 40q-13 41 -45 67
t-78 26q-64 0 -104 -50t-40 -133q0 -75 37.5 -124.5t105.5 -49.5q41 0 74.5 24.5t47.5 65.5q7 21 7 47zM148 682h52q5 -31 23.5 -50t48.5 -19q33 0 51 20.5t21 48.5h52q0 -56 -34 -90t-90 -34q-62 0 -93 36t-31 88z" />
    <glyph glyph-name="Gdotaccent" unicode="&#x120;" horiz-adv-x="646" 
d="M589 354v-324q-103 -37 -207 -37q-159 0 -252 89q-94 91 -94 251q1 154 99.5 251t265.5 97q104 0 168 -31l-21 -71q-65 29 -149 29q-124 0 -197.5 -72.5t-73.5 -198.5q0 -127 70.5 -199.5t189.5 -72.5q80 0 116 18v201h-137v70h222zM362 720q-21 0 -35.5 15t-14.5 35
t14.5 35t35.5 15q20 0 34 -15t14 -35t-14 -35t-34 -15z" />
    <glyph glyph-name="gdotaccent" unicode="&#x121;" horiz-adv-x="559" 
d="M413 484h77q-4 -70 -4 -133v-281q0 -159 -69 -221q-62 -58 -176 -58q-101 0 -161 40l22 67q61 -38 142 -38q72 0 114 41t42 128v54h-2q-49 -81 -154 -81q-89 0 -147.5 67.5t-58.5 168.5q0 117 65 187t153 70q107 0 151 -84h2zM399 206v87q0 25 -5 40q-13 41 -45 67
t-78 26q-64 0 -104 -50t-40 -133q0 -75 37.5 -124.5t105.5 -49.5q41 0 74.5 24.5t47.5 65.5q7 21 7 47zM279 573q-22 0 -36.5 15t-14.5 36q0 22 14.5 37t36.5 15q21 0 35 -15t14 -37q0 -21 -14 -36t-35 -15z" />
    <glyph glyph-name="uni0122" unicode="&#x122;" horiz-adv-x="646" 
d="M589 354v-324q-103 -37 -207 -37q-159 0 -252 89q-94 91 -94 251q1 154 99.5 251t265.5 97q104 0 168 -31l-21 -71q-65 29 -149 29q-124 0 -197.5 -72.5t-73.5 -198.5q0 -127 70.5 -199.5t189.5 -72.5q80 0 116 18v201h-137v70h222zM298 -222l-17 41q75 14 75 66
q0 32 -34 60l65 14q39 -25 39 -73q0 -51 -37.5 -78t-90.5 -30z" />
    <glyph glyph-name="uni0123" unicode="&#x123;" horiz-adv-x="559" 
d="M338 709l17 -37q-78 -11 -78 -65q0 -30 35 -59l-63 -13q-40 26 -40 71q0 49 38.5 74.5t90.5 28.5zM413 484h77q-4 -70 -4 -133v-281q0 -159 -69 -221q-62 -58 -176 -58q-101 0 -161 40l22 67q61 -38 142 -38q72 0 114 41t42 128v54h-2q-49 -81 -154 -81
q-89 0 -147.5 67.5t-58.5 168.5q0 117 65 187t153 70q107 0 151 -84h2zM399 206v87q0 25 -5 40q-13 41 -45 67t-78 26q-64 0 -104 -50t-40 -133q0 -75 37.5 -124.5t105.5 -49.5q41 0 74.5 24.5t47.5 65.5q7 21 7 47z" />
    <glyph glyph-name="Hcircumflex" unicode="&#x124;" horiz-adv-x="652" 
d="M76 674h87v-282h326v282h88v-674h-88v316h-326v-316h-87v674zM292 824h67l105 -114h-74l-63 69h-2l-64 -69h-71z" />
    <glyph glyph-name="hcircumflex" unicode="&#x125;" horiz-adv-x="555" 
d="M73 0v710h88v-302h2q22 39 63 62q43 25 90 25q28 0 54.5 -9.5t54 -31t44 -64.5t16.5 -102v-288h-88v278q0 64 -27 104t-85 40q-41 0 -73 -25t-45 -63q-6 -14 -6 -42v-292h-88zM86 843h67l105 -114h-74l-63 69h-2l-64 -69h-71z" />
    <glyph glyph-name="Hbar" unicode="&#x126;" horiz-adv-x="657" 
d="M636 479h-57v-479h-88v302h-326v-302h-87v479h-57v58h57v137h87v-137h326v137h88v-137h57v-58zM491 377v102h-326v-102h326z" />
    <glyph glyph-name="hbar" unicode="&#x127;" horiz-adv-x="555" 
d="M485 0h-88v278q0 64 -27 104t-85 40q-41 0 -73 -25t-45 -63q-6 -14 -6 -42v-292h-88v552h-77v55h77v103h88v-103h193v-55h-193v-144h2q22 39 63 62q43 25 90 25q28 0 54.5 -9.5t54 -31t44 -64.5t16.5 -102v-288z" />
    <glyph glyph-name="Itilde" unicode="&#x128;" horiz-adv-x="239" 
d="M76 674h87v-674h-87v674zM43 715h-47q-2 46 16.5 74t51.5 28q21 0 59 -20q32 -18 48 -18q12 0 18.5 8t8.5 31h46q2 -97 -67 -97q-23 0 -61 19q-36 19 -47 19q-23 0 -26 -44z" />
    <glyph glyph-name="itilde" unicode="&#x129;" horiz-adv-x="234" 
d="M161 0h-88v484h88v-484zM42 567h-48q-1 48 17 76t51 28q23 0 62 -22q30 -17 42 -17q25 0 28 43h47q2 -101 -69 -101q-23 0 -61 20q-30 18 -43 18q-23 0 -26 -45z" />
    <glyph glyph-name="Imacron" unicode="&#x12a;" horiz-adv-x="239" 
d="M76 674h87v-674h-87v674zM1 788h239v-55h-239v55z" />
    <glyph glyph-name="imacron" unicode="&#x12b;" horiz-adv-x="234" 
d="M161 0h-88v484h88v-484zM5 643h225v-57h-225v57z" />
    <glyph glyph-name="Ibreve" unicode="&#x12c;" horiz-adv-x="239" 
d="M76 674h87v-674h-87v674zM-4 823h52q11 -49 72 -49q63 0 72 49h51q-1 -47 -32 -76.5t-92 -29.5t-91.5 29t-31.5 77z" />
    <glyph glyph-name="ibreve" unicode="&#x12d;" horiz-adv-x="234" 
d="M161 0h-88v484h88v-484zM-4 682h52q5 -31 23.5 -50t48.5 -19q33 0 51 20.5t21 48.5h52q0 -56 -34 -90t-90 -34q-62 0 -93 36t-31 88z" />
    <glyph glyph-name="Iogonek" unicode="&#x12e;" horiz-adv-x="239" 
d="M163 674v-674h-30q-41 -57 -41 -98q0 -25 14 -38.5t37 -13.5q25 0 45 9l14 -45q-30 -23 -81 -23q-42 0 -67.5 22.5t-25.5 63.5q0 51 48 123v674h87z" />
    <glyph glyph-name="iogonek" unicode="&#x12f;" horiz-adv-x="234" 
d="M116 570q-24 0 -39.5 16.5t-15.5 39.5q0 24 16 40t40 16q25 0 40.5 -16t15.5 -40q0 -23 -16 -39.5t-41 -16.5zM161 484v-484h-30q-42 -59 -42 -98q0 -25 14 -38.5t37 -13.5q24 0 46 9l13 -45q-30 -23 -81 -23q-42 0 -67 22.5t-25 63.5q0 53 47 123v484h88z" />
    <glyph glyph-name="Idotaccent" unicode="&#x130;" horiz-adv-x="239" 
d="M76 674h87v-674h-87v674zM121 721q-21 0 -35.5 15.5t-14.5 35.5t14.5 35t35.5 15q20 0 34 -15t14 -35t-14 -35.5t-34 -15.5z" />
    <glyph glyph-name="dotlessi" unicode="&#x131;" horiz-adv-x="234" 
d="M161 0h-88v484h88v-484z" />
    <glyph glyph-name="IJ" unicode="&#x132;" horiz-adv-x="609" 
d="M76 674h87v-674h-87v674zM453 230v444h87v-451q0 -234 -203 -234q-55 0 -94 16l13 71q33 -13 74 -13q62 0 92.5 36.5t30.5 130.5z" />
    <glyph glyph-name="ij" unicode="&#x133;" horiz-adv-x="477" 
d="M161 0h-88v484h88v-484zM117 675q24 0 39 -15.5t15 -39.5q1 -23 -14.5 -38.5t-41.5 -15.5q-23 0 -38 15.5t-15 38.5t15.5 39t39.5 16zM198 -209l-10 69q67 5 96 37q19 22 26.5 60t7.5 122v405h88v-439q0 -140 -58 -199q-27 -27 -69 -41t-81 -14zM363 675q24 0 38.5 -15.5
t14.5 -39.5q0 -23 -15 -38.5t-40 -15.5q-24 0 -39 16t-15 38q0 24 15.5 39.5t40.5 15.5z" />
    <glyph glyph-name="Jcircumflex" unicode="&#x134;" horiz-adv-x="370" 
d="M214 230v444h87v-451q0 -234 -204 -234q-54 0 -93 16l13 71q33 -13 73 -13q63 0 93.5 36.5t30.5 130.5zM219 824h67l105 -114h-73l-64 69h-2l-64 -69h-71z" />
    <glyph glyph-name="jcircumflex" unicode="&#x135;" horiz-adv-x="243" 
d="M-36 -209l-9 69q67 5 96 37q19 22 26 59.5t7 122.5v405h88v-439q0 -140 -58 -199q-27 -27 -69 -41t-81 -14zM91 686h61l95 -143h-67l-58 95h-2l-58 -95h-65z" />
    <glyph glyph-name="uni0136" unicode="&#x136;" horiz-adv-x="542" 
d="M76 0v674h87v-325h3q23 33 53 72l206 253h108l-244 -286l263 -388h-103l-222 331l-64 -74v-257h-87zM215 -220l-17 41q75 12 75 65q0 35 -34 61l65 14q40 -26 40 -74q0 -51 -38 -77.5t-91 -29.5z" />
    <glyph glyph-name="uni0137" unicode="&#x137;" horiz-adv-x="469" 
d="M160 710v-448h2q14 20 43 55l142 167h106l-187 -199l213 -285h-107l-167 232l-45 -50v-182h-87v710h87zM177 -222l-17 41q75 12 75 66q0 34 -34 60l66 14q16 -11 27.5 -30.5t11.5 -42.5q0 -51 -38 -78t-91 -30z" />
    <glyph glyph-name="kgreenlandic" unicode="&#x138;" horiz-adv-x="469" 
d="M160 484v-222h2q14 20 43 55l142 167h106l-187 -199l213 -285h-107l-167 232l-45 -50v-182h-87v484h87z" />
    <glyph glyph-name="Lacute" unicode="&#x139;" horiz-adv-x="472" 
d="M76 0v674h87v-601h288v-73h-375zM179 827h106l-127 -117h-72z" />
    <glyph glyph-name="lacute" unicode="&#x13a;" horiz-adv-x="236" 
d="M73 0v710h88v-710h-88zM154 856h106l-127 -117h-72z" />
    <glyph glyph-name="uni013B" unicode="&#x13b;" horiz-adv-x="472" 
d="M76 0v674h87v-601h288v-73h-375zM189 -222l-16 41q75 14 75 66q0 33 -35 60l66 14q39 -25 39 -73q0 -51 -38 -78t-91 -30z" />
    <glyph glyph-name="uni013C" unicode="&#x13c;" horiz-adv-x="236" 
d="M73 0v710h88v-710h-88zM52 -222l-17 41q75 12 75 66q0 34 -34 60l65 14q40 -26 40 -73q0 -51 -38 -78t-91 -30z" />
    <glyph glyph-name="Lcaron" unicode="&#x13d;" horiz-adv-x="472" 
d="M76 0v674h87v-601h288v-73h-375zM260 504l-17 41q32 5 53.5 21.5t21.5 43.5q0 31 -34 61l65 14q40 -26 40 -74q0 -50 -38 -77t-91 -30z" />
    <glyph glyph-name="lcaron" unicode="&#x13e;" horiz-adv-x="244" 
d="M240 522l-39 29q36 45 36 89q0 38 -31 65l63 14q14 -9 24.5 -29.5t10.5 -45.5q0 -11 -1.5 -21t-3.5 -18.5t-6 -17l-7 -14.5t-8.5 -13t-8.5 -10.5t-8.5 -9t-8 -7.5t-7.5 -7zM73 0v710h88v-710h-88z" />
    <glyph glyph-name="Ldot" unicode="&#x13f;" horiz-adv-x="472" 
d="M76 0v674h87v-601h288v-73h-375zM347 320q-21 0 -35.5 15t-14.5 35t15 35t36 15q20 0 34 -15t14 -35t-14 -35t-35 -15z" />
    <glyph glyph-name="ldot" unicode="&#x140;" horiz-adv-x="272" 
d="M253 335q-20 0 -34 15t-14 35q0 21 14 35.5t34 14.5q19 0 32.5 -14.5t13.5 -35.5q0 -20 -13 -35t-33 -15zM73 0v710h88v-710h-88z" />
    <glyph glyph-name="Lslash" unicode="&#x141;" horiz-adv-x="476" 
d="M455 0h-375v270l-84 -62v68l84 61v337h87v-277l134 97v-69l-134 -96v-256h288v-73z" />
    <glyph glyph-name="lslash" unicode="&#x142;" horiz-adv-x="242" 
d="M165 0h-88v288l-68 -58v69l68 59v352h88v-285l71 61v-70l-71 -61v-355z" />
    <glyph glyph-name="Nacute" unicode="&#x143;" horiz-adv-x="658" 
d="M158 0h-82v674h95l216 -341q73 -115 121 -219l2 1q-10 113 -10 277v282h82v-674h-88l-214 342q-83 132 -126 225l-3 -1q7 -119 7 -278v-288zM370 827h107l-128 -117h-71z" />
    <glyph glyph-name="nacute" unicode="&#x144;" horiz-adv-x="555" 
d="M73 0v353q0 78 -4 131h78l5 -80h2q20 38 62 64.5t98 26.5q28 0 55.5 -9.5t54.5 -31t44 -64t17 -101.5v-289h-88v279q0 64 -27 103.5t-85 39.5q-42 0 -74 -26t-44 -64q-6 -16 -6 -41v-291h-88zM318 693h97l-122 -143h-63z" />
    <glyph glyph-name="uni0145" unicode="&#x145;" horiz-adv-x="658" 
d="M158 0h-82v674h95l216 -341q73 -115 121 -219l2 1q-10 113 -10 277v282h82v-674h-88l-214 342q-83 132 -126 225l-3 -1q7 -119 7 -278v-288zM270 -221l-17 41q32 5 53.5 21.5t21.5 43.5q0 33 -34 61l65 14q39 -25 39 -74q0 -50 -38 -77t-90 -30z" />
    <glyph glyph-name="uni0146" unicode="&#x146;" horiz-adv-x="555" 
d="M73 0v353q0 78 -4 131h78l5 -80h2q20 38 62 64.5t98 26.5q28 0 55.5 -9.5t54.5 -31t44 -64t17 -101.5v-289h-88v279q0 64 -27 103.5t-85 39.5q-42 0 -74 -26t-44 -64q-6 -16 -6 -41v-291h-88zM221 -220l-17 41q75 12 75 65q0 33 -34 61l65 14q40 -26 40 -74
q0 -51 -38 -77.5t-91 -29.5z" />
    <glyph glyph-name="Ncaron" unicode="&#x147;" horiz-adv-x="658" 
d="M158 0h-82v674h95l216 -341q73 -115 121 -219l2 1q-10 113 -10 277v282h82v-674h-88l-214 342q-83 132 -126 225l-3 -1q7 -119 7 -278v-288zM364 705h-67l-104 114h73l65 -70h2l63 70h71z" />
    <glyph glyph-name="ncaron" unicode="&#x148;" horiz-adv-x="555" 
d="M73 0v353q0 78 -4 131h78l5 -80h2q20 38 62 64.5t98 26.5q28 0 55.5 -9.5t54.5 -31t44 -64t17 -101.5v-289h-88v279q0 64 -27 103.5t-85 39.5q-42 0 -74 -26t-44 -64q-6 -16 -6 -41v-291h-88zM310 550h-63l-96 143h67l59 -95h2l59 95h66z" />
    <glyph glyph-name="napostrophe" unicode="&#x149;" horiz-adv-x="555" 
d="M56 536l-38 29q37 41 37 82q0 33 -31 59l64 17q35 -21 35 -72q0 -65 -67 -115zM73 0v353q0 78 -4 131h78l5 -80h2q20 38 62 64.5t98 26.5q28 0 55.5 -9.5t54.5 -31t44 -64t17 -101.5v-289h-88v279q0 64 -27 103.5t-85 39.5q-42 0 -74 -26t-44 -64q-6 -16 -6 -41v-291h-88
z" />
    <glyph glyph-name="Eng" unicode="&#x14a;" horiz-adv-x="658" 
d="M158 0h-82v674h95l216 -341q73 -115 121 -219l2 1q-10 113 -10 277v282h82v-636q0 -208 -193 -237l-18 68q60 12 91 42t36 83l-218 348q-83 132 -126 225l-3 -1q7 -119 7 -278v-288z" />
    <glyph glyph-name="eng" unicode="&#x14b;" horiz-adv-x="555" 
d="M73 0v353q0 78 -4 131h78l5 -80h2q20 38 62 64.5t98 26.5q28 0 55.5 -9.5t54.5 -31t44 -64t17 -101.5v-230q0 -109 -52 -167.5t-138 -70.5l-17 70q119 24 119 160v228q0 64 -27 103.5t-85 39.5q-42 0 -74 -26t-44 -64q-6 -16 -6 -41v-291h-88z" />
    <glyph glyph-name="Omacron" unicode="&#x14c;" horiz-adv-x="689" 
d="M349 685q137 0 220 -95t83 -246q0 -168 -89 -261.5t-224 -93.5q-134 0 -218.5 95t-84.5 247q0 159 88 256.5t225 97.5zM345 614q-103 0 -159.5 -81.5t-56.5 -199.5q0 -113 58 -193t157 -80q100 0 158 80t58 200q0 110 -56.5 192t-158.5 82zM225 794h240v-55h-240v55z" />
    <glyph glyph-name="omacron" unicode="&#x14d;" horiz-adv-x="549" 
d="M278 495q104 0 168.5 -69t64.5 -180q0 -125 -71.5 -191t-169.5 -66q-100 0 -166 68t-66 181q0 118 68 187.5t172 69.5zM276 429q-73 0 -111 -55.5t-38 -132.5q0 -80 41.5 -133t105.5 -53q63 0 105 53.5t42 134.5q0 44 -14 84.5t-48 71t-83 30.5zM162 643h225v-57h-225v57
z" />
    <glyph glyph-name="Obreve" unicode="&#x14e;" horiz-adv-x="689" 
d="M349 685q137 0 220 -95t83 -246q0 -168 -89 -261.5t-224 -93.5q-134 0 -218.5 95t-84.5 247q0 159 88 256.5t225 97.5zM345 614q-103 0 -159.5 -81.5t-56.5 -199.5q0 -113 58 -193t157 -80q100 0 158 80t58 200q0 110 -56.5 192t-158.5 82zM220 830h52q11 -49 72 -49
q63 0 72 49h51q-1 -47 -32 -76.5t-92 -29.5t-91.5 29.5t-31.5 76.5z" />
    <glyph glyph-name="obreve" unicode="&#x14f;" horiz-adv-x="549" 
d="M278 495q104 0 168.5 -69t64.5 -180q0 -125 -71.5 -191t-169.5 -66q-100 0 -166 68t-66 181q0 118 68 187.5t172 69.5zM276 429q-73 0 -111 -55.5t-38 -132.5q0 -80 41.5 -133t105.5 -53q63 0 105 53.5t42 134.5q0 44 -14 84.5t-48 71t-83 30.5zM150 682h52
q5 -31 23.5 -50t48.5 -19q33 0 51 20.5t21 48.5h52q0 -56 -34 -90t-90 -34q-62 0 -93 36t-31 88z" />
    <glyph glyph-name="Ohungarumlaut" unicode="&#x150;" horiz-adv-x="689" 
d="M349 685q137 0 220 -95t83 -246q0 -168 -89 -261.5t-224 -93.5q-134 0 -218.5 95t-84.5 247q0 159 88 256.5t225 97.5zM345 614q-103 0 -159.5 -81.5t-56.5 -199.5q0 -113 58 -193t157 -80q100 0 158 80t58 200q0 110 -56.5 192t-158.5 82zM318 830h96l-112 -112h-64z
M466 830h95l-111 -112h-64z" />
    <glyph glyph-name="ohungarumlaut" unicode="&#x151;" horiz-adv-x="549" 
d="M278 495q104 0 168.5 -69t64.5 -180q0 -125 -71.5 -191t-169.5 -66q-100 0 -166 68t-66 181q0 118 68 187.5t172 69.5zM276 429q-73 0 -111 -55.5t-38 -132.5q0 -80 41.5 -133t105.5 -53q63 0 105 53.5t42 134.5q0 44 -14 84.5t-48 71t-83 30.5zM238 693h86l-110 -137
h-55zM382 693h87l-111 -137h-55z" />
    <glyph glyph-name="OE" unicode="&#x152;" horiz-adv-x="894" 
d="M857 73v-73h-345q-18 0 -66 -6q-62 -5 -83 -5q-152 0 -239.5 96.5t-87.5 246.5q0 164 92 258.5t240 94.5q26 0 88 -5q50 -6 64 -6h322v-73h-277v-213h261v-73h-261v-242h292zM477 73v526q-43 15 -106 15q-112 0 -177.5 -76.5t-64.5 -201.5q-1 -125 66 -200.5t184 -75.5
q62 0 98 13z" />
    <glyph glyph-name="oe" unicode="&#x153;" horiz-adv-x="863" 
d="M824 227h-329q1 -80 45.5 -124.5t115.5 -44.5q66 0 130 27l16 -63q-58 -33 -157 -33q-136 0 -191 114h-3q-26 -56 -77 -85t-110 -29q-98 0 -162 68.5t-64 181.5q0 115 66 185.5t166 70.5q62 0 111.5 -30.5t71.5 -85.5h2q27 57 73 86.5t103 29.5q44 0 79.5 -15.5
t56.5 -39.5t35 -55t19.5 -60t5.5 -57q0 -27 -3 -41zM271 429q-50 0 -84 -30.5t-47 -71.5t-13 -86q0 -79 40.5 -132.5t103.5 -53.5q64 0 103 52t39 135q0 77 -36 132t-106 55zM495 290h247q0 23 -5 45.5t-17 45t-37 36.5t-59 14q-59 0 -92 -43.5t-37 -97.5z" />
    <glyph glyph-name="Racute" unicode="&#x154;" horiz-adv-x="538" 
d="M76 0v665q68 14 167 14q134 0 195 -55q53 -47 53 -128q0 -64 -35.5 -108.5t-91.5 -63.5v-3q74 -26 99 -136q37 -156 52 -185h-90q-14 24 -45 161q-15 70 -45.5 99.5t-89.5 31.5h-82v-292h-87zM163 604v-246h89q69 0 110.5 35t41.5 93q0 63 -41.5 94t-113.5 32
q-58 0 -86 -8zM302 829h106l-128 -116h-71z" />
    <glyph glyph-name="racute" unicode="&#x155;" horiz-adv-x="327" 
d="M73 0v333q0 91 -4 151h77l3 -95h4q16 49 53 77.5t81 28.5q13 0 25 -3v-83q-13 3 -30 3q-46 0 -77.5 -31t-40.5 -82q-4 -24 -4 -41v-258h-87zM216 693h97l-122 -143h-62z" />
    <glyph glyph-name="uni0156" unicode="&#x156;" horiz-adv-x="538" 
d="M76 0v665q68 14 167 14q134 0 195 -55q53 -47 53 -128q0 -64 -35.5 -108.5t-91.5 -63.5v-3q74 -26 99 -136q37 -156 52 -185h-90q-14 24 -45 161q-15 70 -45.5 99.5t-89.5 31.5h-82v-292h-87zM163 604v-246h89q69 0 110.5 35t41.5 93q0 63 -41.5 94t-113.5 32
q-58 0 -86 -8zM212 -215l-17 41q75 14 75 66q0 32 -34 60l65 14q39 -25 39 -73q0 -51 -37.5 -78t-90.5 -30z" />
    <glyph glyph-name="uni0157" unicode="&#x157;" horiz-adv-x="327" 
d="M73 0v333q0 91 -4 151h77l3 -95h4q16 49 53 77.5t81 28.5q13 0 25 -3v-83q-13 3 -30 3q-46 0 -77.5 -31t-40.5 -82q-4 -24 -4 -41v-258h-87zM60 -222l-17 41q75 12 75 66q0 34 -34 60l66 14q16 -11 27.5 -30.5t11.5 -42.5q0 -51 -38 -78t-91 -30z" />
    <glyph glyph-name="Rcaron" unicode="&#x158;" horiz-adv-x="538" 
d="M76 0v665q68 14 167 14q134 0 195 -55q53 -47 53 -128q0 -64 -35.5 -108.5t-91.5 -63.5v-3q74 -26 99 -136q37 -156 52 -185h-90q-14 24 -45 161q-15 70 -45.5 99.5t-89.5 31.5h-82v-292h-87zM163 604v-246h89q69 0 110.5 35t41.5 93q0 63 -41.5 94t-113.5 32
q-58 0 -86 -8zM300 713h-67l-104 114h73l64 -70h2l63 70h72z" />
    <glyph glyph-name="rcaron" unicode="&#x159;" horiz-adv-x="327" 
d="M73 0v333q0 91 -4 151h77l3 -95h4q16 49 53 77.5t81 28.5q13 0 25 -3v-83q-13 3 -30 3q-46 0 -77.5 -31t-40.5 -82q-4 -24 -4 -41v-258h-87zM214 550h-64l-96 143h68l59 -95h2l59 95h66z" />
    <glyph glyph-name="Sacute" unicode="&#x15a;" horiz-adv-x="493" 
d="M42 33l22 73q71 -44 156 -44q66 0 103.5 31.5t37.5 83.5q0 47 -29 77.5t-98 56.5q-178 63 -178 191q0 80 60.5 131.5t157.5 51.5q91 0 149 -33l-24 -71q-59 32 -128 32q-63 0 -95 -30.5t-32 -70.5q0 -46 30.5 -74t103.5 -56q89 -34 130.5 -80t41.5 -118q0 -83 -61 -138.5
t-175 -55.5q-48 0 -96 12.5t-76 30.5zM298 829h107l-128 -116h-71z" />
    <glyph glyph-name="sacute" unicode="&#x15b;" horiz-adv-x="396" 
d="M39 23l22 67q54 -35 116 -35q46 0 70 20t24 52q0 31 -20.5 51t-69.5 38q-128 46 -128 137q0 60 45.5 101t121.5 41q68 0 119 -30l-22 -64q-44 28 -99 28q-38 0 -59.5 -19t-21.5 -47q0 -29 20.5 -46t71.5 -36q65 -25 96 -59t31 -87q0 -65 -48 -105t-133 -40q-80 0 -136 33
zM244 693h97l-122 -143h-63z" />
    <glyph glyph-name="Scircumflex" unicode="&#x15c;" horiz-adv-x="493" 
d="M42 33l22 73q71 -44 156 -44q66 0 103.5 31.5t37.5 83.5q0 47 -29 77.5t-98 56.5q-178 63 -178 191q0 80 60.5 131.5t157.5 51.5q91 0 149 -33l-24 -71q-59 32 -128 32q-63 0 -95 -30.5t-32 -70.5q0 -46 30.5 -74t103.5 -56q89 -34 130.5 -80t41.5 -118q0 -83 -61 -138.5
t-175 -55.5q-48 0 -96 12.5t-76 30.5zM214 827h67l104 -114h-73l-64 69h-2l-63 -69h-72z" />
    <glyph glyph-name="scircumflex" unicode="&#x15d;" horiz-adv-x="396" 
d="M39 23l22 67q54 -35 116 -35q46 0 70 20t24 52q0 31 -20.5 51t-69.5 38q-128 46 -128 137q0 60 45.5 101t121.5 41q68 0 119 -30l-22 -64q-44 28 -99 28q-38 0 -59.5 -19t-21.5 -47q0 -29 20.5 -46t71.5 -36q65 -25 96 -59t31 -87q0 -65 -48 -105t-133 -40q-80 0 -136 33
zM169 693h61l96 -143h-68l-58 95h-2l-58 -95h-65z" />
    <glyph glyph-name="uni015E" unicode="&#x15e;" horiz-adv-x="493" 
d="M423 652l-24 -71q-59 32 -128 32q-63 0 -95 -30.5t-32 -70.5q0 -46 30.5 -74t103.5 -56q89 -34 130.5 -80t41.5 -118q0 -71 -45 -123t-130 -66l-27 -45q30 -6 50 -26t20 -49q0 -41 -29.5 -61t-72.5 -20q-41 0 -72 17l15 45q24 -13 55 -13q42 0 42 30q0 35 -78 43l40 74
h-4q-48 0 -96 12.5t-76 30.5l22 73q71 -44 156 -44q66 0 103.5 31.5t37.5 83.5q0 47 -29 77.5t-98 56.5q-178 63 -178 191q0 80 60.5 131.5t157.5 51.5q91 0 149 -33z" />
    <glyph glyph-name="uni015F" unicode="&#x15f;" horiz-adv-x="396" 
d="M339 465l-22 -64q-44 28 -99 28q-38 0 -59.5 -19t-21.5 -47q0 -29 20.5 -46t71.5 -36q65 -25 96 -59t31 -87q0 -54 -34 -91.5t-95 -48.5l-28 -45q29 -4 49.5 -23t20.5 -46q0 -42 -29 -61.5t-75 -19.5q-39 0 -68 17l15 43q24 -15 54 -15q43 0 43 32q-1 35 -78 42l40 71
q-80 2 -132 33l22 67q54 -35 116 -35q46 0 70 20t24 52q0 31 -20.5 51t-69.5 38q-128 46 -128 137q0 60 45.5 101t121.5 41q68 0 119 -30z" />
    <glyph glyph-name="Scaron" unicode="&#x160;" horiz-adv-x="493" 
d="M42 33l22 73q71 -44 156 -44q66 0 103.5 31.5t37.5 83.5q0 47 -29 77.5t-98 56.5q-178 63 -178 191q0 80 60.5 131.5t157.5 51.5q91 0 149 -33l-24 -71q-59 32 -128 32q-63 0 -95 -30.5t-32 -70.5q0 -46 30.5 -74t103.5 -56q89 -34 130.5 -80t41.5 -118q0 -83 -61 -138.5
t-175 -55.5q-48 0 -96 12.5t-76 30.5zM292 713h-67l-105 114h74l64 -70h2l63 70h71z" />
    <glyph glyph-name="scaron" unicode="&#x161;" horiz-adv-x="396" 
d="M39 23l22 67q54 -35 116 -35q46 0 70 20t24 52q0 31 -20.5 51t-69.5 38q-128 46 -128 137q0 60 45.5 101t121.5 41q68 0 119 -30l-22 -64q-44 28 -99 28q-38 0 -59.5 -19t-21.5 -47q0 -29 20.5 -46t71.5 -36q65 -25 96 -59t31 -87q0 -65 -48 -105t-133 -40q-80 0 -136 33
zM235 550h-64l-96 143h68l59 -95h2l59 95h66z" />
    <glyph glyph-name="uni0162" unicode="&#x162;" horiz-adv-x="497" 
d="M292 0h-16l-30 -50q30 -6 50 -26t20 -49q0 -41 -30 -61t-73 -20q-40 0 -71 17l15 45q24 -13 55 -13q42 0 42 30q0 35 -78 43l45 84h-17v600h-205v74h499v-74h-206v-600z" />
    <glyph glyph-name="uni0163" unicode="&#x163;" horiz-adv-x="331" 
d="M305 417h-126v-261q0 -94 66 -94q29 0 51 6l4 -66q-29 -12 -78 -12h-2l-25 -40q29 -4 49.5 -23t20.5 -46q0 -42 -29.5 -61.5t-74.5 -19.5q-39 0 -68 17l15 43q24 -15 54 -15q43 0 43 32q-1 35 -78 42l45 79q-28 10 -45 29q-34 35 -34 126v264h-75v67h75v116l86 23v-139
h126v-67z" />
    <glyph glyph-name="Tcaron" unicode="&#x164;" horiz-adv-x="497" 
d="M204 0v600h-205v74h499v-74h-206v-600h-88zM282 710h-67l-104 114h73l64 -69h2l63 69h72z" />
    <glyph glyph-name="tcaron" unicode="&#x165;" horiz-adv-x="339" 
d="M277 541l-26 35q38 29 38 74q0 33 -30 59l63 13q35 -23 35 -69q0 -44 -26 -72t-54 -40zM93 600l86 23v-139h126v-67h-126v-261q0 -94 66 -94q29 0 51 6l4 -66q-29 -12 -78 -12q-63 0 -95 37q-34 35 -34 126v264h-75v67h75v116z" />
    <glyph glyph-name="Tbar" unicode="&#x166;" horiz-adv-x="497" 
d="M498 600h-206v-222h124v-58h-124v-320h-88v320h-124v58h124v222h-205v74h499v-74z" />
    <glyph glyph-name="tbar" unicode="&#x167;" horiz-adv-x="331" 
d="M305 417h-126v-115h98v-54h-98v-92q0 -94 66 -94q29 0 51 6l4 -66q-29 -12 -78 -12q-63 0 -95 37q-34 35 -34 126v95h-67v54h67v115h-75v67h75v116l86 23v-139h126v-67z" />
    <glyph glyph-name="Utilde" unicode="&#x168;" horiz-adv-x="647" 
d="M75 674h88v-399q0 -108 43 -161.5t114 -53.5q78 0 121 53t43 162v399h88v-393q0 -148 -69.5 -220t-185.5 -72q-111 0 -176.5 69.5t-65.5 218.5v397zM246 715h-47q-1 46 17.5 74t50.5 28q21 0 59 -20q34 -18 48 -18q13 0 19.5 8t7.5 31h47q2 -97 -68 -97q-23 0 -61 19
q-36 19 -47 19q-21 0 -26 -44z" />
    <glyph glyph-name="utilde" unicode="&#x169;" horiz-adv-x="551" 
d="M478 484v-352q0 -81 4 -132h-78l-5 79h-2q-21 -36 -61.5 -63t-98.5 -27q-31 0 -58.5 9.5t-53 32t-40.5 66t-15 104.5v283h88v-268q0 -154 108 -154q41 0 72 23.5t44 56.5q8 21 8 45v297h88zM200 567h-48q-1 48 17 76t51 28q23 0 62 -22q30 -17 42 -17q25 0 28 43h47
q2 -101 -69 -101q-23 0 -61 20q-30 18 -43 18q-23 0 -26 -45z" />
    <glyph glyph-name="Umacron" unicode="&#x16a;" horiz-adv-x="647" 
d="M75 674h88v-399q0 -108 43 -161.5t114 -53.5q78 0 121 53t43 162v399h88v-393q0 -148 -69.5 -220t-185.5 -72q-111 0 -176.5 69.5t-65.5 218.5v397zM204 788h239v-55h-239v55z" />
    <glyph glyph-name="umacron" unicode="&#x16b;" horiz-adv-x="551" 
d="M478 484v-352q0 -81 4 -132h-78l-5 79h-2q-21 -36 -61.5 -63t-98.5 -27q-31 0 -58.5 9.5t-53 32t-40.5 66t-15 104.5v283h88v-268q0 -154 108 -154q41 0 72 23.5t44 56.5q8 21 8 45v297h88zM163 643h225v-57h-225v57z" />
    <glyph glyph-name="Ubreve" unicode="&#x16c;" horiz-adv-x="647" 
d="M75 674h88v-399q0 -108 43 -161.5t114 -53.5q78 0 121 53t43 162v399h88v-393q0 -148 -69.5 -220t-185.5 -72q-111 0 -176.5 69.5t-65.5 218.5v397zM199 827h52q11 -49 72 -49q64 0 73 49h51q-1 -47 -32.5 -76.5t-92.5 -29.5t-91 29.5t-32 76.5z" />
    <glyph glyph-name="ubreve" unicode="&#x16d;" horiz-adv-x="551" 
d="M478 484v-352q0 -81 4 -132h-78l-5 79h-2q-21 -36 -61.5 -63t-98.5 -27q-31 0 -58.5 9.5t-53 32t-40.5 66t-15 104.5v283h88v-268q0 -154 108 -154q41 0 72 23.5t44 56.5q8 21 8 45v297h88zM151 682h52q5 -31 23.5 -50t48.5 -19q33 0 51 20.5t21 48.5h52q0 -56 -34 -90
t-90 -34q-62 0 -93 36t-31 88z" />
    <glyph glyph-name="Uring" unicode="&#x16e;" horiz-adv-x="647" 
d="M75 674h88v-399q0 -108 43 -161.5t114 -53.5q78 0 121 53t43 162v399h88v-393q0 -148 -69.5 -220t-185.5 -72q-111 0 -176.5 69.5t-65.5 218.5v397zM324 872q45 0 72 -25.5t27 -64.5q0 -38 -28 -63.5t-71 -25.5q-44 0 -72 25.5t-28 62.5q0 39 27.5 65t72.5 26zM323 836
q-22 0 -35 -16t-13 -39q0 -20 13.5 -35.5t34.5 -15.5t35 15.5t14 37.5t-14 37.5t-35 15.5z" />
    <glyph glyph-name="uring" unicode="&#x16f;" horiz-adv-x="551" 
d="M478 484v-352q0 -81 4 -132h-78l-5 79h-2q-21 -36 -61.5 -63t-98.5 -27q-31 0 -58.5 9.5t-53 32t-40.5 66t-15 104.5v283h88v-268q0 -154 108 -154q41 0 72 23.5t44 56.5q8 21 8 45v297h88zM276 537q-44 0 -72.5 26t-28.5 65q0 41 28 68t74 27q44 0 71.5 -27t27.5 -67
q0 -39 -29 -65.5t-71 -26.5zM275 574q23 0 37.5 16.5t14.5 39.5t-14.5 39t-38.5 16q-22 0 -35.5 -16.5t-13.5 -40.5q0 -20 14.5 -37t35.5 -17z" />
    <glyph glyph-name="Uhungarumlaut" unicode="&#x170;" horiz-adv-x="647" 
d="M75 674h88v-399q0 -108 43 -161.5t114 -53.5q78 0 121 53t43 162v399h88v-393q0 -148 -69.5 -220t-185.5 -72q-111 0 -176.5 69.5t-65.5 218.5v397zM282 827h96l-111 -112h-64zM430 827h95l-111 -112h-64z" />
    <glyph glyph-name="uhungarumlaut" unicode="&#x171;" horiz-adv-x="551" 
d="M478 484v-352q0 -81 4 -132h-78l-5 79h-2q-21 -36 -61.5 -63t-98.5 -27q-31 0 -58.5 9.5t-53 32t-40.5 66t-15 104.5v283h88v-268q0 -154 108 -154q41 0 72 23.5t44 56.5q8 21 8 45v297h88zM246 693h86l-110 -137h-55zM390 693h86l-110 -137h-55z" />
    <glyph glyph-name="Uogonek" unicode="&#x172;" horiz-adv-x="647" 
d="M416 -135l13 -45q-34 -24 -82 -24q-42 0 -66 21.5t-24 58.5q0 53 57 114q-1 0 -3 -0.5t-3 -0.5q-107 4 -170 73t-63 215v397h88v-399q0 -108 43 -161.5t114 -53.5q78 0 121 53t43 162v399h88v-393q0 -124 -50 -194.5t-136 -87.5q-61 -56 -61 -101q0 -20 12.5 -31.5
t32.5 -11.5q23 0 46 10z" />
    <glyph glyph-name="uogonek" unicode="&#x173;" horiz-adv-x="551" 
d="M478 484v-352q0 -83 4 -132h-22q-40 -56 -40 -95q0 -24 14.5 -38t36.5 -14q25 0 45 9l14 -45q-30 -23 -81 -23q-42 0 -67.5 22.5t-25.5 63.5q0 51 48 123l-5 76h-2q-21 -36 -61.5 -63t-98.5 -27q-31 0 -58.5 9.5t-53 32t-40.5 66t-15 104.5v283h88v-268q0 -154 108 -154
q41 0 72 23.5t44 56.5q8 21 8 45v297h88z" />
    <glyph glyph-name="Wcircumflex" unicode="&#x174;" horiz-adv-x="846" 
d="M277 0h-91l-171 674h92l80 -341q31 -131 50 -233h2q11 68 55 234l90 340h91l82 -342q36 -150 47 -231h2q13 70 54 233l89 340h89l-191 -674h-91l-85 351q-32 133 -44 220h-2q-19 -104 -52 -220zM390 824h67l105 -114h-73l-64 69h-2l-64 -69h-71z" />
    <glyph glyph-name="wcircumflex" unicode="&#x175;" horiz-adv-x="736" 
d="M18 484h90l64 -246q27 -104 36 -154h3q11 49 43 153l79 247h74l75 -242q27 -88 43 -158h3q10 60 37 157l69 243h87l-156 -484h-80l-74 231q-29 91 -43 159h-2q-14 -69 -44 -160l-78 -230h-80zM337 693h61l95 -143h-67l-58 95h-2l-58 -95h-65z" />
    <glyph glyph-name="Ycircumflex" unicode="&#x176;" horiz-adv-x="541" 
d="M314 0h-88v286l-213 388h99l95 -186q40 -78 67 -139h2q16 37 68 139l97 186h99l-226 -387v-287zM237 824h67l104 -114h-73l-64 69h-2l-63 -69h-72z" />
    <glyph glyph-name="ycircumflex" unicode="&#x177;" horiz-adv-x="471" 
d="M9 484h96l106 -286q19 -54 31 -99h2q1 3 12.5 41.5t18.5 59.5l96 284h93l-132 -345q-49 -129 -85.5 -197t-80.5 -106q-53 -47 -108 -57l-22 74q42 13 77 43q47 37 74 98q7 16 7 21q0 7 -6 23zM207 693h61l96 -143h-68l-58 95h-2l-58 -95h-65z" />
    <glyph glyph-name="Ydieresis" unicode="&#x178;" horiz-adv-x="541" 
d="M314 0h-88v286l-213 388h99l95 -186q40 -78 67 -139h2q16 37 68 139l97 186h99l-226 -387v-287zM187 714q-21 0 -35 15t-14 36t14.5 35.5t35.5 14.5q20 0 33.5 -14.5t13.5 -35.5q0 -22 -13.5 -36.5t-34.5 -14.5zM372 714q-21 0 -34.5 14.5t-13.5 36.5q0 21 14 35.5
t35 14.5t34.5 -14.5t13.5 -35.5q0 -22 -13.5 -36.5t-35.5 -14.5z" />
    <glyph glyph-name="Zacute" unicode="&#x179;" horiz-adv-x="553" 
d="M30 0v51l374 547v3h-342v73h455v-53l-372 -545v-3h377v-73h-492zM325 827h106l-127 -117h-71z" />
    <glyph glyph-name="zacute" unicode="&#x17a;" horiz-adv-x="428" 
d="M18 0v51l219 285l63 75v2h-262v71h369l-1 -55l-216 -281q-26 -35 -62 -76v-2h283v-70h-393zM260 693h97l-122 -143h-63z" />
    <glyph glyph-name="Zdotaccent" unicode="&#x17b;" horiz-adv-x="553" 
d="M30 0v51l374 547v3h-342v73h455v-53l-372 -545v-3h377v-73h-492zM281 720q-21 0 -35.5 15t-14.5 35t14.5 35t35.5 15t34.5 -14.5t13.5 -35.5q0 -20 -14 -35t-34 -15z" />
    <glyph glyph-name="zdotaccent" unicode="&#x17c;" horiz-adv-x="428" 
d="M18 0v51l219 285l63 75v2h-262v71h369l-1 -55l-216 -281q-26 -35 -62 -76v-2h283v-70h-393zM217 570q-22 0 -36.5 15t-14.5 36q0 22 14.5 37t36.5 15q21 0 35 -15t14 -37q0 -21 -14 -36t-35 -15z" />
    <glyph glyph-name="Zcaron" unicode="&#x17d;" horiz-adv-x="553" 
d="M30 0v51l374 547v3h-342v73h455v-53l-372 -545v-3h377v-73h-492zM321 710h-67l-104 114h73l64 -69h2l63 69h72z" />
    <glyph glyph-name="zcaron" unicode="&#x17e;" horiz-adv-x="428" 
d="M18 0v51l219 285l63 75v2h-262v71h369l-1 -55l-216 -281q-26 -35 -62 -76v-2h283v-70h-393zM259 550h-64l-96 143h68l59 -95h2l59 95h66z" />
    <glyph glyph-name="florin" unicode="&#x192;" horiz-adv-x="513" 
d="M111 338v63h99l6 46q5 41 16.5 76t32.5 67.5t57.5 51.5t84.5 19q44 -1 68 -15l-16 -64q-25 10 -52 10q-48 0 -73.5 -39t-32.5 -100l-6 -52h120v-63h-128l-24 -205q-13 -106 -52.5 -161.5t-121.5 -55.5q-48 0 -78 16l16 63q23 -11 56 -11q44 0 65.5 38t31.5 119l23 197
h-92z" />
    <glyph glyph-name="Ohorn" unicode="&#x1a0;" horiz-adv-x="689" 
d="M344 60q100 0 158 80t58 200q0 110 -56.5 192t-158.5 82q-103 0 -160 -82t-56 -199q-1 -112 57.5 -192.5t157.5 -80.5zM593 740l68 13q18 -40 18 -82q0 -44 -26.5 -69t-78.5 -20q78 -90 78 -238q0 -168 -89 -261.5t-224 -93.5q-134 0 -218.5 95t-84.5 247q0 159 88 256.5
t225 97.5q55 0 104 -17q10 -3 33.5 -13t43.5 -16.5t34 -6.5q45 0 45 44q0 32 -16 64z" />
    <glyph glyph-name="ohorn" unicode="&#x1a1;" horiz-adv-x="553" 
d="M276 429q-73 0 -111 -55.5t-38 -132.5q0 -80 41.5 -133t105.5 -53q63 0 105 53.5t42 134.5q0 44 -14 84.5t-48 71t-83 30.5zM470 554l67 12q17 -36 17 -73q0 -42 -24 -65.5t-69 -21.5q50 -62 50 -160q0 -125 -71.5 -191t-169.5 -66q-100 0 -166 68t-66 181
q0 118 68 187.5t172 69.5q41 0 83 -14q8 -2 24.5 -9.5t31.5 -12t29 -4.5q40 0 40 40q0 29 -16 59z" />
    <glyph glyph-name="Uhorn" unicode="&#x1af;" horiz-adv-x="677" 
d="M593 770l67 12q17 -37 17 -75t-23 -61t-67 -24l-15 -1v-340q0 -148 -69.5 -220t-185.5 -72q-111 0 -176.5 69.5t-65.5 218.5v397h88v-399q0 -108 43 -161.5t114 -53.5q78 0 121 53t43 162v399h79q25 0 35.5 9t10.5 29q0 29 -16 58z" />
    <glyph glyph-name="uhorn" unicode="&#x1b0;" horiz-adv-x="551" 
d="M489 581l67 11q18 -33 18 -72q0 -37 -24 -59.5t-61 -24.5l-11 -1v-303q0 -81 4 -132h-78l-5 79h-2q-21 -36 -61.5 -63t-98.5 -27q-31 0 -58.5 9.5t-53 32t-40.5 66t-15 104.5v283h88v-268q0 -154 108 -154q41 0 72 23.5t44 56.5q8 21 8 45v297h69q47 0 47 39q0 27 -17 58
z" />
    <glyph glyph-name="Aringacute" unicode="&#x1fa;" horiz-adv-x="612" 
d="M312 692q-41 0 -66 22t-25 55t25 56t67 23q41 0 65 -22.5t24 -56.5q0 -33 -25 -55t-65 -22zM311 729q20 0 32 11t12 30q0 18 -12.5 30t-32.5 12q-19 0 -30.5 -12.5t-11.5 -30.5q0 -17 12 -28.5t31 -11.5zM366 952h114l-143 -86h-77zM424 212h-239l-70 -212h-90l229 674
h105l230 -674h-93zM203 280h203l-66 194q-14 41 -35 123h-2q-17 -70 -34 -122z" />
    <glyph glyph-name="aringacute" unicode="&#x1fb;" horiz-adv-x="482" 
d="M297 834h98l-143 -106h-62zM241 520q-44 0 -72.5 26t-28.5 65q0 40 28 67t74 27q44 0 71.5 -26.5t27.5 -67.5q0 -39 -28.5 -65t-71.5 -26zM240 557q23 0 37.5 16t14.5 39q0 24 -14.5 40t-37.5 16q-22 0 -35.5 -16.5t-13.5 -40.5q0 -21 14 -37.5t35 -16.5zM421 0h-80
l-7 61h-3q-22 -31 -60.5 -51.5t-87.5 -20.5q-70 0 -109 41t-39 98q0 88 75.5 134.5t215.5 45.5v10q0 112 -110 112q-70 0 -126 -36l-20 58q66 43 159 43q53 0 90.5 -17t57 -46.5t28 -62t8.5 -72.5v-181q0 -72 8 -116zM328 163v84q-205 4 -205 -109q0 -41 23.5 -62.5
t59.5 -21.5q44 0 74.5 23.5t42.5 57.5q5 15 5 28z" />
    <glyph glyph-name="AEacute" unicode="&#x1fc;" horiz-adv-x="788" 
d="M89 0h-90l308 674h422v-73h-287l26 -215h251v-72h-240l30 -241h247v-73h-322l-30 238h-207zM226 308h168l-22 194q-11 84 -12 109h-4q-10 -28 -43 -106zM488 827h106l-127 -117h-71z" />
    <glyph glyph-name="aeacute" unicode="&#x1fd;" horiz-adv-x="773" 
d="M734 233h-324q-2 -84 40.5 -130t113.5 -46q74 0 132 28l16 -62q-63 -34 -159 -34q-63 0 -113 28.5t-71 78.5h-2q-23 -50 -70.5 -78.5t-109.5 -28.5q-72 0 -111.5 40.5t-39.5 97.5q0 84 76 130t216 45v20q0 12 -4.5 27.5t-15 35t-35 32.5t-58.5 13q-70 0 -124 -37l-21 58
q70 44 151 44q123 0 156 -103h2q25 49 69 76t100 27q42 0 76 -15.5t54.5 -39.5t34.5 -55t19 -59t5 -54t-3 -39zM329 172v71q-206 4 -206 -109q0 -37 24 -58.5t60 -21.5q45 0 75.5 23.5t41.5 59.5q5 14 5 35zM409 296h243q2 28 -7.5 57.5t-37 54t-68.5 24.5q-59 0 -93 -43.5
t-37 -92.5zM429 693h96l-122 -143h-62z" />
    <glyph glyph-name="Oslashacute" unicode="&#x1fe;" horiz-adv-x="689" 
d="M112 -43l-49 39l62 88q-89 95 -89 249q0 157 88.5 254.5t222.5 97.5q95 0 168 -53l59 81l53 -36l-62 -86q87 -95 87 -248q0 -168 -88.5 -261t-217.5 -93q-97 0 -171 54zM176 158l296 410q-55 47 -126 47q-104 0 -162.5 -81.5t-58.5 -195.5q0 -94 50 -181zM513 515
l-295 -408q51 -48 126 -48q102 0 160.5 81t58.5 200q0 98 -47 175h-3zM392 835h106l-127 -117h-72z" />
    <glyph glyph-name="oslashacute" unicode="&#x1ff;" horiz-adv-x="549" 
d="M276 495q68 0 123 -35l42 60l39 -27l-42 -62q73 -70 73 -185q0 -124 -71 -190.5t-165 -66.5q-72 0 -124 34l-43 -61l-37 30l42 60q-75 70 -75 187t68 186.5t170 69.5zM161 119l198 281q-35 29 -85 29q-75 0 -113 -56.5t-38 -131.5q0 -71 36 -121zM389 361l-198 -278
q32 -28 81 -28q68 0 110.5 53t42.5 135q0 68 -34 118h-2zM315 693h97l-122 -143h-63z" />
    <glyph glyph-name="uni0218" unicode="&#x218;" horiz-adv-x="493" 
d="M42 33l22 73q71 -44 156 -44q66 0 103.5 31.5t37.5 83.5q0 47 -29 77.5t-98 56.5q-178 63 -178 191q0 80 60.5 131.5t157.5 51.5q91 0 149 -33l-24 -71q-59 32 -128 32q-63 0 -95 -30.5t-32 -70.5q0 -46 30.5 -74t103.5 -56q89 -34 130.5 -80t41.5 -118q0 -83 -61 -138.5
t-175 -55.5q-48 0 -96 12.5t-76 30.5zM185 -222l-16 41q75 14 75 66q0 33 -35 60l66 14q39 -25 39 -73q0 -51 -38 -78t-91 -30z" />
    <glyph glyph-name="uni0219" unicode="&#x219;" horiz-adv-x="396" 
d="M39 23l22 67q54 -35 116 -35q46 0 70 20t24 52q0 31 -20.5 51t-69.5 38q-128 46 -128 137q0 60 45.5 101t121.5 41q68 0 119 -30l-22 -64q-44 28 -99 28q-38 0 -59.5 -19t-21.5 -47q0 -29 20.5 -46t71.5 -36q65 -25 96 -59t31 -87q0 -65 -48 -105t-133 -40q-80 0 -136 33
zM136 -222l-17 41q75 12 75 66q0 34 -34 60l66 14q16 -11 27.5 -30.5t11.5 -42.5q0 -51 -38 -78t-91 -30z" />
    <glyph glyph-name="uni021A" unicode="&#x21a;" horiz-adv-x="497" 
d="M204 0v600h-205v74h499v-74h-206v-600h-88zM180 -222l-17 41q75 13 75 66q0 34 -34 60l65 14q40 -26 40 -73q0 -51 -38 -78t-91 -30z" />
    <glyph glyph-name="uni021B" unicode="&#x21b;" horiz-adv-x="331" 
d="M93 600l86 23v-139h126v-67h-126v-261q0 -94 66 -94q29 0 51 6l4 -66q-29 -12 -78 -12q-63 0 -95 37q-34 35 -34 126v264h-75v67h75v116zM122 -227l-17 41q75 12 75 65q0 35 -34 61l65 14q40 -26 40 -74q0 -51 -38 -77.5t-91 -29.5z" />
    <glyph glyph-name="uni021C" unicode="&#x21c;" horiz-adv-x="480" 
d="M63 -115l-11 69q126 19 211.5 81t85.5 147q0 58 -39.5 95.5t-107.5 36.5q-38 0 -94 -18l-12 62q88 20 144.5 64.5t56.5 101.5q0 41 -31 66t-80 25q-68 0 -137 -36l-18 59q28 18 76 32.5t95 14.5q82 0 132.5 -41t50.5 -106q0 -54 -34.5 -96.5t-88.5 -67.5v-3
q79 -8 129 -56.5t50 -126.5q0 -116 -103 -199.5t-275 -103.5z" />
    <glyph glyph-name="uni021D" unicode="&#x21d;" horiz-adv-x="427" 
d="M44 -209l-9 68q19 1 44 5.5t68.5 17.5t77.5 32.5t59.5 54t25.5 78.5q0 47 -32.5 78t-95.5 31q-37 0 -88 -15l-13 63q185 43 185 138q0 39 -28 61.5t-76 22.5q-54 0 -124 -38l-18 58q76 49 163 49q76 0 122 -37.5t46 -100.5q0 -48 -28.5 -84.5t-77.5 -55.5v-3
q70 -8 112.5 -50t42.5 -107q0 -102 -94 -177t-262 -89z" />
    <glyph glyph-name="uni0232" unicode="&#x232;" horiz-adv-x="541" 
d="M314 0h-88v286l-213 388h99l95 -186q40 -78 67 -139h2q16 37 68 139l97 186h99l-226 -387v-287zM151 788h239v-55h-239v55z" />
    <glyph glyph-name="uni0233" unicode="&#x233;" horiz-adv-x="471" 
d="M9 484h96l106 -286q19 -54 31 -99h2q1 3 12.5 41.5t18.5 59.5l96 284h93l-132 -345q-49 -129 -85.5 -197t-80.5 -106q-53 -47 -108 -57l-22 74q42 13 77 43q47 37 74 98q7 16 7 21q0 7 -6 23zM124 643h225v-57h-225v57z" />
    <glyph glyph-name="circumflex" unicode="&#x2c6;" 
d="M119 693h61l96 -143h-68l-58 95h-2l-58 -95h-65z" />
    <glyph glyph-name="caron" unicode="&#x2c7;" 
d="M183 550h-64l-96 143h68l59 -95h2l59 95h66z" />
    <glyph glyph-name="uni02C9" unicode="&#x2c9;" 
d="M38 643h225v-57h-225v57z" />
    <glyph glyph-name="breve" unicode="&#x2d8;" 
d="M26 682h52q5 -31 23.5 -50t48.5 -19q33 0 51 20.5t21 48.5h52q0 -56 -34 -90t-90 -34q-62 0 -93 36t-31 88z" />
    <glyph glyph-name="dotaccent" unicode="&#x2d9;" 
d="M140 570q-22 0 -36.5 15t-14.5 36q0 22 14.5 37t36.5 15q21 0 35 -15t14 -37q0 -21 -14 -36t-35 -15z" />
    <glyph glyph-name="ring" unicode="&#x2da;" 
d="M142 537q-44 0 -72.5 26t-28.5 65q0 41 28 68t74 27q44 0 71.5 -27t27.5 -67t-28.5 -66t-71.5 -26zM141 574q23 0 37.5 16.5t14.5 39.5t-14.5 39t-37.5 16t-36 -16.5t-13 -40.5q0 -21 14 -37.5t35 -16.5z" />
    <glyph glyph-name="ogonek" unicode="&#x2db;" 
d="M123 4h57q-53 -67 -53 -100q0 -23 14 -36.5t36 -13.5q24 0 46 9l14 -45q-29 -23 -80 -23q-43 0 -68.5 22.5t-25.5 63.5q0 58 60 123z" />
    <glyph glyph-name="tilde" unicode="&#x2dc;" 
d="M75 567h-48q-1 48 17 76t51 28q23 0 62 -22q30 -17 42 -17q25 0 28 43h47q2 -101 -69 -101q-23 0 -61 20q-30 18 -43 18q-23 0 -26 -45z" />
    <glyph glyph-name="hungarumlaut" unicode="&#x2dd;" 
d="M123 693h86l-110 -137h-55zM267 693h86l-110 -137h-55z" />
    <glyph glyph-name="uni037E" unicode="&#x37e;" horiz-adv-x="207" 
d="M78 -117l-61 -6q40 108 60 239l97 10q-18 -64 -46.5 -136t-49.5 -107zM119 342q-26 0 -42.5 17.5t-16.5 44.5q0 28 16.5 45.5t42.5 17.5q27 0 43 -17.5t16 -45.5q0 -27 -16 -44.5t-43 -17.5z" />
    <glyph glyph-name="tonos" unicode="&#x384;" horiz-adv-x="301" 
d="M137 694h89l-83 -143h-60z" />
    <glyph glyph-name="dieresistonos" unicode="&#x385;" horiz-adv-x="346" 
d="M153 710h75l-49 -157h-48zM51 573q-21 0 -34 14t-13 34t14 33.5t34 13.5q19 0 32 -13.5t13 -33.5t-13 -34t-33 -14zM293 573q-21 0 -34 14t-13 34q0 19 14 33t33 14q20 0 33 -13.5t13 -33.5t-13 -34t-33 -14z" />
    <glyph glyph-name="Alphatonos" unicode="&#x386;" horiz-adv-x="615" 
d="M427 212h-239l-70 -212h-90l229 674h105l230 -674h-93zM206 280h203l-66 194q-14 41 -35 123h-2q-17 -70 -34 -122zM70 674h79l-35 -155h-52z" />
    <glyph glyph-name="anoteleia" unicode="&#x387;" horiz-adv-x="217" 
d="M108 252q-28 0 -46 19t-17 48q0 30 18 49t46 19t45.5 -19t17.5 -49q0 -29 -17.5 -48t-46.5 -19z" />
    <glyph glyph-name="Epsilontonos" unicode="&#x388;" horiz-adv-x="561" 
d="M494 388v-72h-261v-243h292v-73h-380v674h365v-73h-277v-213h261zM7 674h80l-35 -155h-52z" />
    <glyph glyph-name="Etatonos" unicode="&#x389;" horiz-adv-x="722" 
d="M145 674h88v-282h325v282h88v-674h-88v316h-325v-316h-88v674zM7 674h80l-35 -155h-52z" />
    <glyph glyph-name="Iotatonos" unicode="&#x38a;" horiz-adv-x="309" 
d="M145 674h88v-674h-88v674zM7 674h80l-35 -155h-52z" />
    <glyph glyph-name="Omicrontonos" unicode="&#x38c;" horiz-adv-x="728" 
d="M388 685q137 0 220.5 -95t83.5 -246q0 -168 -89 -261.5t-224 -93.5t-219 94.5t-84 247.5q0 159 87.5 256.5t224.5 97.5zM385 614q-104 0 -160.5 -81.5t-56.5 -199.5q0 -114 58.5 -193.5t157.5 -79.5q100 0 158 80t58 200q0 110 -56.5 192t-158.5 82zM7 674h80l-35 -155
h-52z" />
    <glyph glyph-name="Upsilontonos" unicode="&#x38e;" horiz-adv-x="706" 
d="M128 609l16 71q37 -2 84 -27t80 -64q85 -95 104 -247h4q22 140 117 245q35 37 77 62.5t76 30.5l16 -71q-66 -25 -133 -102t-99 -196q-18 -72 -18 -138v-173h-87v174q0 64 -14 136q-29 129 -90.5 206t-132.5 93zM7 674h80l-35 -155h-52z" />
    <glyph glyph-name="Omegatonos" unicode="&#x38f;" horiz-adv-x="742" 
d="M320 0h-254v69h146v4q-56 46 -94 120t-38 165q0 143 89.5 235t224.5 92q137 0 220.5 -91t83.5 -228q0 -96 -38 -170.5t-95 -122.5v-4h146v-69h-253v55q65 44 107.5 122.5t42.5 174.5q-1 102 -58.5 182t-157.5 80q-101 0 -161 -78.5t-60 -184.5q0 -91 43.5 -174
t105.5 -122v-55zM7 674h80l-35 -155h-52z" />
    <glyph glyph-name="iotadieresistonos" unicode="&#x390;" horiz-adv-x="236" 
d="M161 484v-367q0 -34 9.5 -47t37.5 -12l-5 -64q-17 -5 -40 -5q-43 0 -66.5 26t-23.5 93v376h88zM107 697h75l-49 -157h-48zM5 560q-21 0 -34 14t-13 34t14 33.5t34 13.5q19 0 32 -13.5t13 -33.5t-13 -34t-33 -14zM247 560q-21 0 -34 14t-13 34t14 33.5t33 13.5
q20 0 33 -13.5t13 -33.5t-13 -34t-33 -14z" />
    <glyph glyph-name="Alpha" unicode="&#x391;" horiz-adv-x="612" 
d="M424 212h-239l-70 -212h-90l229 674h105l230 -674h-93zM203 280h203l-66 194q-14 41 -35 123h-2q-17 -70 -34 -122z" />
    <glyph glyph-name="Beta" unicode="&#x392;" horiz-adv-x="542" 
d="M76 2v663q66 14 159 14q124 0 185 -49q56 -42 56 -119q0 -49 -30.5 -89t-83.5 -59v-2q56 -14 97.5 -57t41.5 -112q0 -80 -57 -135q-69 -63 -233 -63q-77 0 -135 8zM163 606v-217h79q68 0 107 31.5t39 81.5q0 110 -148 110q-49 0 -77 -6zM163 323v-257q23 -4 73 -4
q75 0 124 31.5t49 99.5q0 65 -48.5 97.5t-125.5 32.5h-72z" />
    <glyph glyph-name="Gamma" unicode="&#x393;" horiz-adv-x="451" 
d="M76 674h361v-73h-274v-601h-87v674z" />
    <glyph glyph-name="uni0394" unicode="&#x394;" horiz-adv-x="620" 
d="M25 0v49l235 625h99l232 -624v-50h-566zM118 73h376l-137 371q-36 99 -50 150h-3q-20 -67 -45 -137z" />
    <glyph glyph-name="Epsilon" unicode="&#x395;" horiz-adv-x="492" 
d="M425 388v-72h-262v-243h292v-73h-379v674h364v-73h-277v-213h262z" />
    <glyph glyph-name="Zeta" unicode="&#x396;" horiz-adv-x="553" 
d="M30 0v51l374 547v3h-342v73h455v-53l-372 -545v-3h377v-73h-492z" />
    <glyph glyph-name="Eta" unicode="&#x397;" horiz-adv-x="652" 
d="M76 674h87v-282h326v282h88v-674h-88v316h-326v-316h-87v674z" />
    <glyph glyph-name="Theta" unicode="&#x398;" horiz-adv-x="689" 
d="M341 -11q-135 0 -220 94.5t-85 247.5q0 159 88 256.5t225 97.5t220.5 -95t83.5 -246q0 -168 -89 -261.5t-223 -93.5zM344 60q101 0 159 80t58 200q0 110 -56.5 192t-158.5 82q-104 0 -161 -82t-57 -199q0 -112 58.5 -192.5t157.5 -80.5zM209 383h271v-72h-271v72z" />
    <glyph glyph-name="Iota" unicode="&#x399;" horiz-adv-x="239" 
d="M76 674h87v-674h-87v674z" />
    <glyph glyph-name="Kappa" unicode="&#x39a;" horiz-adv-x="542" 
d="M76 0v674h87v-325h3q23 33 53 72l206 253h108l-244 -286l263 -388h-103l-222 331l-64 -74v-257h-87z" />
    <glyph glyph-name="Lambda" unicode="&#x39b;" horiz-adv-x="609" 
d="M590 0h-94l-156 464q-16 50 -35 128h-3q-19 -79 -33 -127l-153 -465h-91l229 674h104z" />
    <glyph glyph-name="Mu" unicode="&#x39c;" horiz-adv-x="804" 
d="M661 0l-17 296q-11 207 -10 291h-3q-34 -115 -85 -256l-119 -327h-66l-109 321q-53 159 -78 262h-2q-3 -132 -13 -298l-18 -289h-83l47 674h111l115 -326q46 -136 68 -227h3q22 89 71 227l120 326h111l42 -674h-85z" />
    <glyph glyph-name="Nu" unicode="&#x39d;" horiz-adv-x="658" 
d="M158 0h-82v674h95l216 -341q73 -115 121 -219l2 1q-10 113 -10 277v282h82v-674h-88l-214 342q-83 132 -126 225l-3 -1q7 -119 7 -278v-288z" />
    <glyph glyph-name="Xi" unicode="&#x39e;" horiz-adv-x="540" 
d="M54 674h441v-72h-441v72zM87 385h374v-72h-374v72zM43 73h462v-73h-462v73z" />
    <glyph glyph-name="Omicron" unicode="&#x39f;" horiz-adv-x="689" 
d="M349 685q137 0 220 -95t83 -246q0 -168 -89 -261.5t-224 -93.5q-134 0 -218.5 95t-84.5 247q0 159 88 256.5t225 97.5zM345 614q-103 0 -159.5 -81.5t-56.5 -199.5q0 -113 58 -193t157 -80q100 0 158 80t58 200q0 110 -56.5 192t-158.5 82z" />
    <glyph glyph-name="Pi" unicode="&#x3a0;" horiz-adv-x="634" 
d="M558 674v-674h-88v600h-307v-600h-87v674h482z" />
    <glyph glyph-name="Rho" unicode="&#x3a1;" horiz-adv-x="532" 
d="M76 0v666q78 13 167 13q127 0 189 -56q59 -51 59 -141t-52 -144q-69 -74 -206 -74q-46 0 -70 6v-270h-87zM163 603v-262q27 -7 72 -7q80 0 124.5 37.5t44.5 106.5q0 65 -42.5 98.5t-116.5 33.5q-56 0 -82 -7z" />
    <glyph glyph-name="Sigma" unicode="&#x3a3;" horiz-adv-x="552" 
d="M140 76v-3h384v-73h-498v52l234 283l-221 280v59h453v-72h-341v-4l206 -260z" />
    <glyph glyph-name="Tau" unicode="&#x3a4;" horiz-adv-x="497" 
d="M204 0v600h-205v74h499v-74h-206v-600h-88z" />
    <glyph glyph-name="Upsilon" unicode="&#x3a5;" horiz-adv-x="588" 
d="M10 609l16 71q37 -2 84 -27t80 -64q87 -97 104 -247h4q22 140 117 245q35 37 77.5 62.5t76.5 30.5l15 -71q-66 -25 -133 -102t-98 -196q-19 -76 -19 -138v-173h-87v174q0 72 -14 136q-28 129 -89.5 206t-133.5 93z" />
    <glyph glyph-name="Phi" unicode="&#x3a6;" horiz-adv-x="718" 
d="M400 26v-52h-84v52q-115 10 -197.5 88.5t-82.5 218.5q0 143 86.5 225.5t195.5 91.5v50h84v-50q115 -9 197.5 -90.5t82.5 -221.5q0 -72 -24 -131t-64 -96t-89.5 -58.5t-104.5 -26.5zM317 89v498q-73 -5 -132 -72t-59 -180q0 -105 56 -170.5t135 -75.5zM401 587v-498
q78 7 134.5 72.5t56.5 174.5q0 113 -56.5 178.5t-134.5 72.5z" />
    <glyph glyph-name="Chi" unicode="&#x3a7;" horiz-adv-x="571" 
d="M546 0h-101l-86 149q-52 84 -78 133h-2q-30 -61 -73 -134l-81 -148h-100l206 341l-198 333h101l89 -158q42 -73 62 -114h3q24 50 61 114l92 158h100l-205 -328z" />
    <glyph glyph-name="Psi" unicode="&#x3a8;" horiz-adv-x="685" 
d="M639 674v-195q0 -127 -69.5 -197t-185.5 -76v-206h-83v206q-51 2 -95 16.5t-80.5 43t-57.5 76.5t-21 112v220h85v-205q0 -185 170 -194v399h82v-400q74 4 121.5 55t47.5 159v186h86z" />
    <glyph glyph-name="uni03A9" unicode="&#x3a9;" horiz-adv-x="705" 
d="M284 0h-254v69h145v4q-56 46 -94 120t-38 165q0 143 89.5 235t224.5 92q137 0 220.5 -91t83.5 -228q0 -96 -38 -170.5t-95 -122.5v-4h147v-69h-253v55q64 44 106.5 122.5t42.5 174.5q0 102 -58 182t-158 80q-101 0 -161 -78.5t-60 -184.5q0 -91 44 -174t106 -122v-55z
" />
    <glyph glyph-name="Iotadieresis" unicode="&#x3aa;" horiz-adv-x="239" 
d="M76 674h87v-674h-87v674zM26 711q-21 0 -35 15t-14 36t14.5 36t35.5 15t34.5 -15t13.5 -36t-13.5 -36t-35.5 -15zM212 711q-22 0 -35.5 15t-13.5 36t14 36t35 15t35 -15t14 -36t-14 -36t-35 -15z" />
    <glyph glyph-name="Upsilondieresis" unicode="&#x3ab;" horiz-adv-x="588" 
d="M10 609l16 71q37 -2 84 -27t80 -64q87 -97 104 -247h4q22 140 117 245q35 37 77.5 62.5t76.5 30.5l15 -71q-66 -25 -133 -102t-98 -196q-19 -76 -19 -138v-173h-87v174q0 72 -14 136q-28 129 -89.5 206t-133.5 93zM205 697q-21 0 -35 15t-14 36q0 20 14.5 35t35.5 15
t34.5 -14.5t13.5 -35.5q0 -22 -13.5 -36.5t-35.5 -14.5zM391 697q-22 0 -35.5 14.5t-13.5 36.5q0 21 14 35.5t35 14.5t34.5 -14.5t13.5 -35.5q0 -22 -13.5 -36.5t-34.5 -14.5z" />
    <glyph glyph-name="alphatonos" unicode="&#x3ac;" horiz-adv-x="551" 
d="M416 484h73q-13 -133 -13 -346q0 -43 11.5 -62t36.5 -20l-7 -63q-8 -4 -30 -4q-76 0 -83 102h-3q-56 -102 -165 -102q-87 0 -142.5 67t-55.5 176q0 115 64.5 189t151.5 74q52 0 90.5 -25.5t58.5 -71.5h4q2 47 9 86zM127 235q0 -73 35.5 -124.5t95.5 -51.5q44 0 80.5 36.5
t48.5 86.5q6 26 6 68q0 35 -4 52q-9 51 -43.5 87.5t-80.5 36.5q-61 0 -99.5 -54t-38.5 -137zM285 686h89l-83 -143h-59z" />
    <glyph glyph-name="epsilontonos" unicode="&#x3ad;" horiz-adv-x="440" 
d="M404 93l16 -60q-28 -19 -77.5 -31.5t-99.5 -12.5q-84 0 -144 36t-60 111q0 45 33.5 79t86.5 42v5q-47 10 -71.5 37.5t-24.5 64.5q0 52 51 91.5t142 39.5q93 0 147 -37l-19 -58q-17 11 -52 20.5t-69 9.5q-51 0 -81.5 -19.5t-30.5 -52.5q0 -34 37.5 -51.5t97.5 -17.5h58
v-63h-61q-69 0 -110.5 -20t-41.5 -62q0 -41 37.5 -64.5t93.5 -23.5q37 0 77.5 11.5t64.5 25.5zM256 686h89l-83 -143h-60z" />
    <glyph glyph-name="etatonos" unicode="&#x3ae;" horiz-adv-x="555" 
d="M161 0h-88v353q0 89 -14 131h79q14 -30 14 -80h2q20 38 62 64.5t98 26.5q28 0 55.5 -9.5t54.5 -31t44 -64t17 -101.5v-307q0 -140 10 -180h-83q-15 37 -15 177v300q0 64 -27 103.5t-85 39.5q-42 0 -74 -26t-44 -64q-6 -16 -6 -41v-291zM301 686h89l-83 -143h-60z" />
    <glyph glyph-name="iotatonos" unicode="&#x3af;" horiz-adv-x="236" 
d="M161 484v-367q0 -34 9.5 -47t37.5 -12l-5 -64q-17 -5 -40 -5q-43 0 -66.5 26t-23.5 93v376h88zM133 687h89l-83 -143h-59z" />
    <glyph glyph-name="upsilondieresistonos" unicode="&#x3b0;" horiz-adv-x="524" 
d="M360 484h82q14 -26 25 -79.5t11 -109.5q0 -58 -10.5 -108.5t-34 -97t-68.5 -73.5t-108 -27q-84 0 -137 50t-53 145v137q0 130 -11 163h84q14 -17 14 -91v-197q0 -67 32.5 -100.5t77.5 -33.5q62 0 95 59.5t33 165.5q0 60 -10.5 116.5t-21.5 80.5zM242 696h76l-50 -157h-47
zM141 560q-20 0 -33.5 14t-13.5 33q0 20 13.5 34t33.5 14q19 0 32.5 -14t13.5 -34q0 -19 -13 -33t-33 -14zM382 560q-20 0 -33 14t-13 33q0 20 13.5 34t33.5 14q19 0 32.5 -14t13.5 -34q0 -19 -13.5 -33t-33.5 -14z" />
    <glyph glyph-name="alpha" unicode="&#x3b1;" horiz-adv-x="551" 
d="M416 484h73q-13 -133 -13 -346q0 -43 11.5 -62t36.5 -20l-7 -63q-8 -4 -30 -4q-76 0 -83 102h-3q-56 -102 -165 -102q-87 0 -142.5 67t-55.5 176q0 115 64.5 189t151.5 74q52 0 90.5 -25.5t58.5 -71.5h4q2 47 9 86zM127 235q0 -73 35.5 -124.5t95.5 -51.5q44 0 80.5 36.5
t48.5 86.5q6 26 6 68q0 35 -4 52q-9 51 -43.5 87.5t-80.5 36.5q-61 0 -99.5 -54t-38.5 -137z" />
    <glyph glyph-name="beta" unicode="&#x3b2;" horiz-adv-x="560" 
d="M159 50h-2v-67q0 -136 11 -181h-82q-15 40 -15 170v461q0 164 75 235q56 53 142 53q75 0 125 -48.5t50 -125.5q0 -54 -26 -95.5t-63 -60.5v-4q62 -13 105 -63t43 -128q0 -96 -62 -151.5t-147 -55.5q-96 0 -154 61zM156 443v-306q20 -32 57 -56t84 -24q60 0 98.5 39.5
t38.5 99.5q0 69 -43.5 107.5t-112.5 40.5h-27v60q5 0 17 2q54 4 84 40.5t30 87.5q0 53 -28.5 85t-73.5 32q-124 0 -124 -208z" />
    <glyph glyph-name="gamma" unicode="&#x3b3;" horiz-adv-x="464" 
d="M269 -198h-86q6 184 -18 284q-24 108 -74.5 217.5t-96.5 180.5h99q37 -56 81.5 -165t65.5 -212h4q114 210 114 343q0 8 -0.5 19t-0.5 15h83q3 -14 3 -33q0 -166 -171 -425q-6 -8 -6 -24q3 -57 3 -200z" />
    <glyph glyph-name="delta" unicode="&#x3b4;" horiz-adv-x="546" 
d="M466 673l-26 -58q-20 14 -57.5 27t-74.5 13q-39 0 -60.5 -13t-21.5 -32q0 -22 39 -55q2 -2 33 -26l82 -66q128 -98 128 -227q0 -110 -67.5 -178.5t-167.5 -68.5q-98 0 -166.5 65.5t-68.5 177.5q0 87 51 150.5t133 102.5v5l-23 18q-61 50 -61 100q0 45 44.5 79t123.5 34
q49 0 92.5 -14.5t67.5 -33.5zM326 402l-53 42q-146 -77 -146 -211q0 -81 45 -129.5t106 -48.5q60 0 101 47.5t41 127.5q0 99 -94 172z" />
    <glyph glyph-name="epsilon" unicode="&#x3b5;" horiz-adv-x="440" 
d="M404 93l16 -60q-28 -19 -77.5 -31.5t-99.5 -12.5q-84 0 -144 36t-60 111q0 45 33.5 79t86.5 42v5q-47 10 -71.5 37.5t-24.5 64.5q0 52 51 91.5t142 39.5q93 0 147 -37l-19 -58q-17 11 -52 20.5t-69 9.5q-51 0 -81.5 -19.5t-30.5 -52.5q0 -34 37.5 -51.5t97.5 -17.5h58
v-63h-61q-69 0 -110.5 -20t-41.5 -62q0 -41 37.5 -64.5t93.5 -23.5q37 0 77.5 11.5t64.5 25.5z" />
    <glyph glyph-name="zeta" unicode="&#x3b6;" horiz-adv-x="409" 
d="M341 -143l-58 17q10 17 20.5 53.5t12.5 56.5q-62 9 -118 27q-159 52 -159 223q0 107 65.5 218.5t178.5 188.5v4h-71q-78 0 -116 10l9 59q32 -4 122 -4h167l13 -61q-120 -61 -199.5 -175t-79.5 -224q0 -75 32 -115t92 -62q54 -20 140 -29q9 -2 9 -12q0 -41 -19 -94
t-41 -81z" />
    <glyph glyph-name="eta" unicode="&#x3b7;" horiz-adv-x="555" 
d="M161 0h-88v353q0 89 -14 131h79q14 -30 14 -80h2q20 38 62 64.5t98 26.5q28 0 55.5 -9.5t54.5 -31t44 -64t17 -101.5v-307q0 -140 10 -180h-83q-15 37 -15 177v300q0 64 -27 103.5t-85 39.5q-42 0 -74 -26t-44 -64q-6 -16 -6 -41v-291z" />
    <glyph glyph-name="theta" unicode="&#x3b8;" horiz-adv-x="534" 
d="M269 -11q-109 0 -170 95t-61 277q0 158 62 259t172 101q112 0 168.5 -96.5t56.5 -263.5q0 -174 -57.5 -273t-170.5 -99zM125 399h285q-1 113 -37.5 185t-105.5 72q-64 0 -103 -75t-39 -182zM410 333h-285q0 -131 40 -205t106 -74q68 0 103.5 76t35.5 203z" />
    <glyph glyph-name="iota" unicode="&#x3b9;" horiz-adv-x="236" 
d="M161 484v-367q0 -34 9.5 -47t37.5 -12l-5 -64q-17 -5 -40 -5q-43 0 -66.5 26t-23.5 93v376h88z" />
    <glyph glyph-name="kappa" unicode="&#x3ba;" horiz-adv-x="493" 
d="M161 0h-88v379q0 80 -11 105h85q14 -19 14 -82v-133h4l77 75.5l78 80.5l57 59h103v-4l-230 -218v-3q54 -12 149 -138l88 -121h-102l-76 103q-85 111 -140 112h-8v-215z" />
    <glyph glyph-name="lambda" unicode="&#x3bb;" horiz-adv-x="472" 
d="M364 0l-98 277q-22 66 -32 105h-5q-6 -26 -31 -102l-99 -280h-92l175 448q6 16 6 23q0 10 -7 27q-27 73 -56 112.5t-70 39.5q-11 0 -17 -1l8 68q11 4 34 4q66 0 106.5 -55t85.5 -174l185 -492h-93z" />
    <glyph glyph-name="uni03BC" unicode="&#x3bc;" horiz-adv-x="553" 
d="M403 75h-3q-18 -34 -54 -59t-85 -25q-76 0 -106 53v-60q0 -138 11 -182h-79q-14 42 -14 178v504h87v-286q0 -60 27 -98.5t82 -38.5q41 0 72 24t44 57q8 21 8 45v297h87v-351q0 -40 10 -57.5t36 -18.5l-7 -64q-13 -4 -30 -4q-75 0 -86 86z" />
    <glyph glyph-name="nu" unicode="&#x3bd;" horiz-adv-x="469" 
d="M4 484h93l93 -272q7 -19 14 -40l15 -46.5t13 -39.5h3q125 244 125 353q0 31 -1 45h83q3 -30 3 -36q0 -64 -29.5 -147.5t-63 -146t-88.5 -154.5h-83z" />
    <glyph glyph-name="xi" unicode="&#x3be;" horiz-adv-x="433" 
d="M361 435v-64h-27q-100 0 -152 -42.5t-52 -108.5q0 -59 38.5 -95.5t115.5 -56.5q40 -11 133 -25q9 0 9 -11q0 -38 -19 -93t-40 -82l-58 17q10 17 20.5 54t11.5 56q-47 7 -83.5 15t-80 25t-72 40t-48 61t-19.5 87q0 71 44.5 123.5t112.5 71.5v5q-55 17 -83 54t-28 87
q0 68 55 118t154 50q76 0 122 -27l-18 -61q-42 23 -99 23q-60 0 -93 -32t-33 -77q0 -51 39.5 -80.5t101.5 -31.5h48z" />
    <glyph glyph-name="omicron" unicode="&#x3bf;" horiz-adv-x="549" 
d="M278 495q104 0 168.5 -69t64.5 -180q0 -125 -71.5 -191t-169.5 -66q-100 0 -166 68t-66 181q0 118 68 187.5t172 69.5zM276 429q-73 0 -111 -55.5t-38 -132.5q0 -80 41.5 -133t105.5 -53q63 0 105 53.5t42 134.5q0 44 -14 84.5t-48 71t-83 30.5z" />
    <glyph glyph-name="pi" unicode="&#x3c0;" horiz-adv-x="555" 
d="M520 415h-67v-271q0 -94 14 -144h-85q-15 28 -15 135v280h-159q-3 -102 -23 -230t-45 -185h-84q26 69 45.5 191.5t22.5 223.5q-67 0 -99 -9l-12 52q38 26 139 26h378z" />
    <glyph glyph-name="rho" unicode="&#x3c1;" horiz-adv-x="563" 
d="M163 -198h-84q-11 37 -11 176v224q0 147 70 221q67 72 166 72q100 0 160.5 -68t60.5 -178q0 -122 -65 -191t-156 -69q-48 0 -86.5 18.5t-59.5 52.5h-3v-78q0 -134 8 -180zM155 231v-41q0 -20 4 -35q12 -42 48.5 -69.5t82.5 -27.5q68 0 107.5 52.5t39.5 136.5
q0 74 -37.5 124.5t-102.5 50.5q-58 0 -100 -48.5t-42 -142.5z" />
    <glyph glyph-name="uni03C2" unicode="&#x3c2;" horiz-adv-x="417" 
d="M408 473l-20 -64q-43 18 -89 18q-76 0 -124 -54t-48 -131q0 -131 137 -172q54 -15 129 -26q10 -3 10 -15q0 -40 -18.5 -93.5t-39.5 -79.5l-59 18q10 16 20.5 53t12.5 56q-64 12 -99 21q-82 24 -132 81t-50 149q0 105 70.5 183t190.5 78q70 0 109 -22z" />
    <glyph glyph-name="sigma" unicode="&#x3c3;" horiz-adv-x="554" 
d="M542 495l-3 -67q-32 0 -127 4v-4q42 -29 66 -78.5t24 -104.5q0 -124 -70 -190t-162 -66q-100 0 -166 68t-66 180q0 119 68.5 188t180.5 70h255zM272 55q60 0 101.5 54t41.5 136q0 71 -36.5 127.5t-105.5 56.5q-71 0 -108.5 -56t-37.5 -132q0 -80 41 -133t104 -53z" />
    <glyph glyph-name="tau" unicode="&#x3c4;" horiz-adv-x="413" 
d="M321 60l-4 -63q-16 -8 -48 -8q-58 0 -85 36.5t-27 113.5v276h-53q-56 0 -98 -8l-12 51q37 26 132 26h279l-11 -69h-150v-274q0 -82 56 -82q15 0 21 1z" />
    <glyph glyph-name="upsilon" unicode="&#x3c5;" horiz-adv-x="524" 
d="M360 484h82q14 -26 25 -79.5t11 -109.5q0 -58 -10.5 -108.5t-34 -97t-68.5 -73.5t-108 -27q-84 0 -137 50t-53 145v137q0 130 -11 163h84q14 -17 14 -91v-197q0 -67 32.5 -100.5t77.5 -33.5q62 0 95 59.5t33 165.5q0 60 -10.5 116.5t-21.5 80.5z" />
    <glyph glyph-name="phi" unicode="&#x3c6;" horiz-adv-x="642" 
d="M204 495l34 -49q-113 -71 -113 -200q0 -75 40.5 -127.5t116.5 -64.5v294q0 74 34.5 110t88.5 36q76 0 137 -66.5t61 -172.5q0 -117 -70 -186t-170 -79v-188h-81v188q-47 4 -89 20.5t-77.5 46t-56.5 78t-21 109.5q0 94 52 159.5t114 91.5zM363 362v-308q72 10 114 63
t42 136q0 72 -35.5 124.5t-78.5 52.5q-42 0 -42 -68z" />
    <glyph glyph-name="chi" unicode="&#x3c7;" horiz-adv-x="457" 
d="M18 484h94l123 -261h4q23 52 51 107l72 154h86l-171 -327l176 -348l-82 -22l-144 296h-4l-46 -103l-91 -193l-75 23l173 346z" />
    <glyph glyph-name="psi" unicode="&#x3c8;" horiz-adv-x="655" 
d="M295 -198v187q-228 15 -228 251v131q0 84 -8 113h81q12 -16 12 -91v-145q0 -99 40 -145t104 -50v558h80v-558q66 3 107.5 66.5t41.5 166.5q0 67 -12 122.5t-24 75.5h81q39 -62 39 -191q0 -57 -12.5 -107.5t-39 -94.5t-73 -71.5t-108.5 -30.5v-187h-81z" />
    <glyph glyph-name="omega" unicode="&#x3c9;" horiz-adv-x="694" 
d="M388 356l-2 -184q0 -47 23.5 -78.5t59.5 -31.5q41 0 71 50t30 142q0 70 -22.5 131t-57.5 96v3h83q35 -30 59 -91.5t24 -140.5q0 -127 -54 -195t-129 -68q-44 0 -77.5 23t-48.5 63h-4q-17 -40 -50.5 -63t-77.5 -23q-72 0 -124.5 63.5t-52.5 191.5q0 77 25 141.5t60 98.5
h81v-3q-36 -38 -58 -99.5t-22 -135.5q0 -93 31.5 -138.5t71.5 -45.5q34 0 57 32t23 77l-2 185h83z" />
    <glyph glyph-name="iotadieresis" unicode="&#x3ca;" horiz-adv-x="236" 
d="M161 484v-367q0 -34 9.5 -47t37.5 -12l-5 -64q-17 -5 -40 -5q-43 0 -66.5 26t-23.5 93v376h88zM28 557q-22 0 -36.5 14.5t-14.5 35.5q0 22 15 36.5t36 14.5t35 -14.5t14 -36.5q0 -21 -14 -35.5t-35 -14.5zM213 557q-22 0 -36 14.5t-14 35.5q0 22 14.5 36.5t36.5 14.5
q21 0 34.5 -14.5t13.5 -36.5q0 -21 -13.5 -35.5t-35.5 -14.5z" />
    <glyph glyph-name="upsilondieresis" unicode="&#x3cb;" horiz-adv-x="524" 
d="M360 484h82q14 -26 25 -79.5t11 -109.5q0 -58 -10.5 -108.5t-34 -97t-68.5 -73.5t-108 -27q-84 0 -137 50t-53 145v137q0 130 -11 163h84q14 -17 14 -91v-197q0 -67 32.5 -100.5t77.5 -33.5q62 0 95 59.5t33 165.5q0 60 -10.5 116.5t-21.5 80.5zM164 556q-21 0 -35.5 15
t-14.5 36t14.5 36t36.5 15q20 0 34 -14.5t14 -36.5q0 -21 -13.5 -36t-35.5 -15zM350 556q-22 0 -36 15t-14 36t14.5 36t35.5 15t35 -14.5t14 -36.5q0 -21 -14 -36t-35 -15z" />
    <glyph glyph-name="omicrontonos" unicode="&#x3cc;" horiz-adv-x="549" 
d="M278 495q104 0 168.5 -69t64.5 -180q0 -125 -71.5 -191t-169.5 -66q-100 0 -166 68t-66 181q0 118 68 187.5t172 69.5zM276 429q-73 0 -111 -55.5t-38 -132.5q0 -80 41.5 -133t105.5 -53q63 0 105 53.5t42 134.5q0 44 -14 84.5t-48 71t-83 30.5zM289 686h89l-83 -143h-60
z" />
    <glyph glyph-name="upsilontonos" unicode="&#x3cd;" horiz-adv-x="524" 
d="M360 484h82q14 -26 25 -79.5t11 -109.5q0 -58 -10.5 -108.5t-34 -97t-68.5 -73.5t-108 -27q-84 0 -137 50t-53 145v137q0 130 -11 163h84q14 -17 14 -91v-197q0 -67 32.5 -100.5t77.5 -33.5q62 0 95 59.5t33 165.5q0 60 -10.5 116.5t-21.5 80.5zM272 687h89l-83 -143h-59
z" />
    <glyph glyph-name="omegatonos" unicode="&#x3ce;" horiz-adv-x="694" 
d="M388 356l-2 -184q0 -47 23.5 -78.5t59.5 -31.5q41 0 71 50t30 142q0 70 -22.5 131t-57.5 96v3h83q35 -30 59 -91.5t24 -140.5q0 -127 -54 -195t-129 -68q-44 0 -77.5 23t-48.5 63h-4q-17 -40 -50.5 -63t-77.5 -23q-72 0 -124.5 63.5t-52.5 191.5q0 77 25 141.5t60 98.5
h81v-3q-36 -38 -58 -99.5t-22 -135.5q0 -93 31.5 -138.5t71.5 -45.5q34 0 57 32t23 77l-2 185h83zM360 686h89l-83 -143h-59z" />
    <glyph glyph-name="uni0401" unicode="&#x401;" horiz-adv-x="492" 
d="M425 388v-72h-262v-243h292v-73h-379v674h364v-73h-277v-213h262zM163 721q-22 0 -36 15t-14 36q0 20 14.5 35t35.5 15t34.5 -14.5t13.5 -35.5q0 -22 -13.5 -36.5t-34.5 -14.5zM348 721q-21 0 -35 15t-14 36t14 35.5t35 14.5t35 -14.5t14 -35.5q0 -22 -13.5 -36.5
t-35.5 -14.5z" />
    <glyph glyph-name="uni0402" unicode="&#x402;" horiz-adv-x="665" 
d="M-1 674h518v-73h-244v-192h3q66 41 135 41q103 0 163 -84q51 -72 51 -188q0 -162 -93 -241q-56 -63 -139 -76l-16 68q72 18 110 70q47 62 47 171q0 93 -34 146q-41 61 -113 61q-61 0 -114 -39v-338h-87v601h-187v73z" />
    <glyph glyph-name="uni0403" unicode="&#x403;" horiz-adv-x="433" 
d="M76 674h358v-73h-271v-601h-87v674zM283 827h106l-127 -117h-72z" />
    <glyph glyph-name="uni0404" unicode="&#x404;" horiz-adv-x="576" 
d="M544 653l-21 -68q-58 28 -133 28q-111 0 -180 -66t-80 -168h346v-70h-345q3 -105 73 -176t183 -71q78 0 140 27l16 -67q-68 -33 -172 -33q-147 0 -241 93.5t-94 253.5q0 148 96 248.5t255 100.5q93 0 157 -32z" />
    <glyph glyph-name="uni0405" unicode="&#x405;" horiz-adv-x="493" 
d="M42 33l22 73q71 -44 156 -44q66 0 103.5 31.5t37.5 83.5q0 47 -29 77.5t-98 56.5q-178 63 -178 191q0 80 60.5 131.5t157.5 51.5q91 0 149 -33l-24 -71q-59 32 -128 32q-63 0 -95 -30.5t-32 -70.5q0 -46 30.5 -74t103.5 -56q89 -34 130.5 -80t41.5 -118q0 -83 -61 -138.5
t-175 -55.5q-48 0 -96 12.5t-76 30.5z" />
    <glyph glyph-name="uni0406" unicode="&#x406;" horiz-adv-x="239" 
d="M76 674h87v-674h-87v674z" />
    <glyph glyph-name="uni0407" unicode="&#x407;" horiz-adv-x="239" 
d="M76 674h87v-674h-87v674zM28 721q-22 0 -36 15t-14 36q0 20 14.5 35t35.5 15t34.5 -14.5t13.5 -35.5q0 -22 -13.5 -36.5t-34.5 -14.5zM213 721q-21 0 -35 15t-14 36t14.5 35.5t35.5 14.5t34.5 -14.5t13.5 -35.5q0 -22 -13.5 -36.5t-35.5 -14.5z" />
    <glyph glyph-name="uni0408" unicode="&#x408;" horiz-adv-x="370" 
d="M214 230v444h87v-451q0 -234 -204 -234q-54 0 -93 16l13 71q33 -13 73 -13q63 0 93.5 36.5t30.5 130.5z" />
    <glyph glyph-name="uni0409" unicode="&#x409;" horiz-adv-x="881" 
d="M125 674h376v-254q35 5 82 5q111 0 185 -52.5t74 -157.5q0 -88 -56 -146q-78 -75 -237 -75q-77 0 -135 8v599h-205v-204q0 -66 -3 -112.5t-12 -102t-30.5 -95.5t-55.5 -63q-48 -32 -101 -32l-13 70q43 8 72 37q59 57 59 291v284zM501 353v-287q28 -4 70 -4q77 0 128.5 39
t51.5 112q0 74 -51 109t-129 35q-26 0 -70 -4z" />
    <glyph glyph-name="uni040A" unicode="&#x40a;" horiz-adv-x="897" 
d="M76 674h87v-269h267v269h87v-263q35 5 92 5q107 0 178 -50.5t71 -151.5q0 -91 -57 -146q-74 -74 -235 -74q-78 0 -136 8v329h-267v-331h-87v674zM517 344v-277q25 -5 71 -5q77 0 128 37.5t51 111.5q0 70 -50 103.5t-126 33.5q-36 0 -74 -4z" />
    <glyph glyph-name="uni040B" unicode="&#x40b;" horiz-adv-x="675" 
d="M-1 674h507v-73h-235v-193h2q76 46 153 46q79 0 125 -46q53 -54 53 -157v-251h-88v239q0 75 -32 110q-32 34 -86 34q-67 0 -127 -43v-340h-88v601h-184v73z" />
    <glyph glyph-name="uni040C" unicode="&#x40c;" horiz-adv-x="542" 
d="M76 674h86v-299h27l231 299h105l-255 -309q77 -10 118 -53t71 -121l17.5 -49l18 -51t17 -44t21.5 -47h-94q-20 38 -61 159q-26 75 -67 112.5t-121 37.5h-28v-309h-86v674zM318 822h107l-128 -117h-71z" />
    <glyph glyph-name="uni040E" unicode="&#x40e;" horiz-adv-x="521" 
d="M2 674h99l134 -287l49 -119h2l42 122l105 284h92l-141 -346q-80 -194 -126 -256q-66 -83 -153 -83q-33 0 -49 6l9 71q10 -3 32 -3q82 1 132 116q8 18 -3 41zM133 817h67q4 -29 16.5 -45.5t44.5 -16.5t44.5 16.5t16.5 45.5h67q-8 -108 -130 -108q-118 0 -126 108z" />
    <glyph glyph-name="uni040F" unicode="&#x40f;" horiz-adv-x="635" 
d="M76 674h87v-601h311v601h87v-674h-199l-8 -174h-72l-7 174h-199v674z" />
    <glyph glyph-name="uni0410" unicode="&#x410;" horiz-adv-x="612" 
d="M424 212h-239l-70 -212h-90l229 674h105l230 -674h-93zM203 280h203l-66 194q-14 41 -35 123h-2q-17 -70 -34 -122z" />
    <glyph glyph-name="uni0411" unicode="&#x411;" horiz-adv-x="546" 
d="M76 674h378v-73h-291v-181q35 5 83 5q106 0 174 -45q86 -56 86 -165q0 -90 -56 -146q-76 -75 -238 -75q-78 0 -136 8v672zM163 353v-286q25 -5 73 -5q93 0 142 52q37 39 37 99q0 72 -55 110q-50 34 -128 34q-25 0 -69 -4z" />
    <glyph glyph-name="uni0412" unicode="&#x412;" horiz-adv-x="542" 
d="M76 2v663q66 14 159 14q124 0 185 -49q56 -42 56 -119q0 -49 -30.5 -89t-83.5 -59v-2q56 -14 97.5 -57t41.5 -112q0 -80 -57 -135q-69 -63 -233 -63q-77 0 -135 8zM163 606v-217h79q68 0 107 31.5t39 81.5q0 110 -148 110q-49 0 -77 -6zM163 323v-257q23 -4 73 -4
q75 0 124 31.5t49 99.5q0 65 -48.5 97.5t-125.5 32.5h-72z" />
    <glyph glyph-name="uni0413" unicode="&#x413;" horiz-adv-x="433" 
d="M76 674h358v-73h-271v-601h-87v674z" />
    <glyph glyph-name="uni0414" unicode="&#x414;" horiz-adv-x="630" 
d="M160 674h377v-603l59 -2l-6 -231h-68l-6 162h-425l-6 -162h-68l-6 231l51 2q48 88 66 148q32 109 32 284v171zM241 602v-127q0 -167 -34 -275q-19 -63 -55 -128h298v530h-209z" />
    <glyph glyph-name="uni0415" unicode="&#x415;" horiz-adv-x="492" 
d="M425 388v-72h-262v-243h292v-73h-379v674h364v-73h-277v-213h262z" />
    <glyph glyph-name="uni0416" unicode="&#x416;" horiz-adv-x="801" 
d="M21 674h102l209 -299h26v299h85v-299h27l208 299h102l-239 -310q74 -8 114 -50.5t68 -122.5l27 -83t40 -108h-89q-10 20 -20 47.5t-20.5 61.5t-15.5 49q-26 78 -62 114.5t-111 36.5h-29v-309h-85v309h-30q-75 0 -111 -36t-63 -115q-5 -14 -15.5 -49t-19.5 -62t-19 -47
h-89q13 28 24 59.5t23.5 71t19.5 59.5q28 79 68.5 122t113.5 52z" />
    <glyph glyph-name="uni0417" unicode="&#x417;" horiz-adv-x="492" 
d="M74 570l-24 64q78 51 178 51q89 0 143.5 -44t54.5 -121q0 -61 -39 -105.5t-100 -58.5v-2q73 -8 118.5 -53t45.5 -116q0 -98 -71 -147t-173 -49q-104 0 -176 44l23 68q70 -41 151 -41q73 0 114 35.5t41 92.5q0 69 -53.5 99.5t-129.5 30.5h-40v66h40q67 0 112.5 36t45.5 88
q0 50 -32.5 78t-88.5 28q-71 0 -140 -44z" />
    <glyph glyph-name="uni0418" unicode="&#x418;" horiz-adv-x="658" 
d="M76 674h82v-284q0 -165 -8 -285l2 -1q44 91 125 223l218 347h87v-674h-82v287q0 177 8 274l-3 1q-38 -85 -125 -227l-211 -335h-93v674z" />
    <glyph glyph-name="uni0419" unicode="&#x419;" horiz-adv-x="658" 
d="M76 674h82v-284q0 -165 -8 -285l2 -1q44 91 125 223l218 347h87v-674h-82v287q0 177 8 274l-3 1q-38 -85 -125 -227l-211 -335h-93v674zM201 815h67q4 -29 16.5 -45.5t44.5 -16.5t44.5 16.5t16.5 45.5h67q-8 -107 -130 -107q-118 0 -126 107z" />
    <glyph glyph-name="uni041A" unicode="&#x41a;" horiz-adv-x="542" 
d="M76 674h86v-299h27l231 299h105l-255 -309q77 -10 118 -53t71 -121l17.5 -49l18 -51t17 -44t21.5 -47h-94q-20 38 -61 159q-26 75 -67 112.5t-121 37.5h-28v-309h-86v674z" />
    <glyph glyph-name="uni041B" unicode="&#x41b;" horiz-adv-x="594" 
d="M123 674h396v-674h-88v601h-223v-204q0 -67 -2.5 -113t-12 -102t-31 -95.5t-55.5 -62.5q-50 -32 -103 -32l-11 70q41 8 71 36q59 58 59 292v284z" />
    <glyph glyph-name="uni041C" unicode="&#x41c;" horiz-adv-x="804" 
d="M661 0l-17 296q-11 207 -10 291h-3q-34 -115 -85 -256l-119 -327h-66l-109 321q-53 159 -78 262h-2q-3 -132 -13 -298l-18 -289h-83l47 674h111l115 -326q46 -136 68 -227h3q22 89 71 227l120 326h111l42 -674h-85z" />
    <glyph glyph-name="uni041D" unicode="&#x41d;" horiz-adv-x="652" 
d="M76 674h87v-282h326v282h88v-674h-88v316h-326v-316h-87v674z" />
    <glyph glyph-name="uni041E" unicode="&#x41e;" horiz-adv-x="689" 
d="M349 685q137 0 220 -95t83 -246q0 -168 -89 -261.5t-224 -93.5q-134 0 -218.5 95t-84.5 247q0 159 88 256.5t225 97.5zM345 614q-103 0 -159.5 -81.5t-56.5 -199.5q0 -113 58 -193t157 -80q100 0 158 80t58 200q0 110 -56.5 192t-158.5 82z" />
    <glyph glyph-name="uni041F" unicode="&#x41f;" horiz-adv-x="639" 
d="M76 674h487v-674h-87v601h-313v-601h-87v674z" />
    <glyph glyph-name="uni0420" unicode="&#x420;" horiz-adv-x="532" 
d="M76 0v666q78 13 167 13q127 0 189 -56q59 -51 59 -141t-52 -144q-69 -74 -206 -74q-46 0 -70 6v-270h-87zM163 603v-262q27 -7 72 -7q80 0 124.5 37.5t44.5 106.5q0 65 -42.5 98.5t-116.5 33.5q-56 0 -82 -7z" />
    <glyph glyph-name="uni0421" unicode="&#x421;" horiz-adv-x="580" 
d="M529 91l18 -69q-64 -32 -178 -32q-147 0 -240 90t-93 251q0 158 97.5 256t254.5 98q103 0 160 -30l-21 -71q-58 28 -136 28q-120 0 -191.5 -73.5t-71.5 -204.5q0 -125 68.5 -198t190.5 -73q84 0 142 28z" />
    <glyph glyph-name="uni0422" unicode="&#x422;" horiz-adv-x="497" 
d="M204 0v600h-205v74h499v-74h-206v-600h-88z" />
    <glyph glyph-name="uni0423" unicode="&#x423;" horiz-adv-x="521" 
d="M2 674h99l134 -287l49 -119h2l42 122l105 284h92l-141 -346q-80 -194 -126 -256q-66 -83 -153 -83q-33 0 -49 6l9 71q10 -3 32 -3q82 1 132 116q8 18 -3 41z" />
    <glyph glyph-name="uni0424" unicode="&#x424;" horiz-adv-x="725" 
d="M322 701h83v-60q56 -2 105 -20.5t90 -53.5t65 -94.5t24 -135.5t-24 -134.5t-65.5 -93t-90.5 -52.5t-105 -21v-63h-84v63q-56 4 -104.5 21t-90 50.5t-65.5 91t-24 134.5q0 79 26 139.5t69 95t91 52.5t100 21v60zM321 98v480q-35 -2 -68 -15.5t-62.5 -40.5t-47 -74.5
t-17.5 -110.5q0 -112 56 -171.5t139 -67.5zM404 578v-480q82 7 138.5 65.5t56.5 174.5q0 120 -56 178t-139 62z" />
    <glyph glyph-name="uni0425" unicode="&#x425;" horiz-adv-x="571" 
d="M546 0h-101l-86 149q-52 84 -78 133h-2q-30 -61 -73 -134l-81 -148h-100l206 341l-198 333h101l89 -158q42 -73 62 -114h3q24 50 61 114l92 158h100l-205 -328z" />
    <glyph glyph-name="uni0426" unicode="&#x426;" horiz-adv-x="652" 
d="M76 674h87v-601h309v601h88v-603l59 -2l-6 -231h-69l-6 162h-462v674z" />
    <glyph glyph-name="uni0427" unicode="&#x427;" horiz-adv-x="597" 
d="M71 674h87v-214q0 -70 36 -107t107 -37q73 0 133 38v320h88v-674h-88v286h-2q-73 -42 -162 -42q-37 0 -69.5 9t-63 30t-48.5 63t-18 101v227z" />
    <glyph glyph-name="uni0428" unicode="&#x428;" horiz-adv-x="847" 
d="M76 674h86v-601h219v601h86v-601h218v601h87v-674h-696v674z" />
    <glyph glyph-name="uni0429" unicode="&#x429;" horiz-adv-x="864" 
d="M76 674h86v-601h219v601h86v-601h218v601h87v-603l59 -2l-6 -231h-69l-5 162h-675v674z" />
    <glyph glyph-name="uni042A" unicode="&#x42a;" horiz-adv-x="631" 
d="M-2 674h260v-252q33 5 81 5q68 0 123.5 -21t92.5 -70t37 -119q0 -89 -52 -144q-75 -79 -235 -79q-76 0 -134 8v600h-173v72zM258 353v-286q24 -5 69 -5q76 0 124.5 39t48.5 112q0 74 -49.5 109.5t-122.5 35.5q-35 0 -70 -5z" />
    <glyph glyph-name="uni042B" unicode="&#x42b;" horiz-adv-x="746" 
d="M76 674h87v-252q33 5 80 5q113 0 186.5 -52.5t73.5 -158.5q0 -86 -52 -143q-75 -79 -240 -79q-77 0 -135 8v672zM163 353v-286q23 -5 70 -5q77 0 128 39t51 112t-52.5 109t-127.5 36q-42 0 -69 -5zM578 674h88v-674h-88v674z" />
    <glyph glyph-name="uni042C" unicode="&#x42c;" horiz-adv-x="545" 
d="M76 674h87v-252q33 5 83 5q113 0 186.5 -52.5t73.5 -157.5q0 -87 -52 -144q-75 -79 -242 -79q-78 0 -136 8v672zM163 353v-286q25 -5 72 -5q78 0 129 38.5t51 111.5q0 75 -51 110.5t-130 35.5q-34 0 -71 -5z" />
    <glyph glyph-name="uni042D" unicode="&#x42d;" horiz-adv-x="568" 
d="M123 310v70h314q-9 102 -69.5 167.5t-161.5 65.5q-67 0 -144 -34l-21 67q89 39 170 39q153 0 236.5 -97.5t83.5 -251.5q0 -161 -93 -254t-232 -93q-100 0 -176 35l19 69q67 -31 145 -31q109 0 174 70t70 178h-315z" />
    <glyph glyph-name="uni042E" unicode="&#x42e;" horiz-adv-x="867" 
d="M76 674h87v-291h100q13 141 90 221.5t197 80.5q129 0 205 -94.5t76 -246.5q0 -169 -82 -262t-208 -93q-123 0 -199 87t-81 234h-98v-310h-87v674zM544 59q93 0 145.5 80.5t52.5 200.5q0 70 -20.5 131t-66.5 102.5t-109 41.5q-95 0 -147 -82t-52 -200q0 -113 53.5 -193.5
t143.5 -80.5z" />
    <glyph glyph-name="uni042F" unicode="&#x42f;" horiz-adv-x="543" 
d="M108 0h-93q14 25 27 61q7 19 20 58.5l21.5 64t25 54.5t35.5 49q25 25 56 34v3q-65 11 -107 55t-42 111q0 86 62 137q64 52 193 52q93 0 161 -14v-665h-87v292h-64q-64 0 -97 -33q-21 -21 -36.5 -55.5t-31.5 -87t-21 -67.5q-15 -36 -22 -49zM380 359v245q-40 8 -82 8
q-71 0 -115 -30.5t-44 -95.5q0 -59 47 -93.5t120 -34.5q57 0 74 1z" />
    <glyph glyph-name="uni0430" unicode="&#x430;" horiz-adv-x="482" 
d="M421 0h-80l-7 61h-3q-22 -31 -60.5 -51.5t-87.5 -20.5q-70 0 -109 41t-39 98q0 88 75.5 134.5t215.5 45.5v10q0 112 -110 112q-70 0 -126 -36l-20 58q66 43 159 43q53 0 90.5 -17t57 -46.5t28 -62t8.5 -72.5v-181q0 -72 8 -116zM328 163v84q-205 4 -205 -109
q0 -41 23.5 -62.5t59.5 -21.5q44 0 74.5 23.5t42.5 57.5q5 15 5 28z" />
    <glyph glyph-name="uni0431" unicode="&#x431;" horiz-adv-x="528" 
d="M443 721l-4 -73q-31 -11 -101 -22q-122 -19 -172 -91q-46 -65 -53 -160h3q23 51 69 80t99 29q92 0 149 -63t57 -176q0 -119 -59 -187.5t-165 -68.5q-61 0 -106.5 27.5t-70.5 75t-37 102.5t-12 119q0 170 75 268q34 49 84 75t124 39q84 13 120 26zM401 238q0 44 -11 82.5
t-43 68.5t-81 30q-75 0 -109 -66q-24 -43 -24 -103q0 -44 13 -86.5t45 -75.5t77 -33q67 0 100 54t33 129z" />
    <glyph glyph-name="uni0432" unicode="&#x432;" horiz-adv-x="500" 
d="M71 0v478q62 11 154 11q215 0 215 -121q0 -43 -28.5 -71t-72.5 -38v-2q56 -8 89.5 -38.5t33.5 -81.5q0 -143 -255 -143q-58 0 -136 6zM155 424v-143h66q56 0 94 18t38 58q0 71 -130 71q-26 0 -68 -4zM154 223v-165q33 -4 71 -4q25 0 48 3.5t47 12t38 26t14 42.5
q0 48 -41 66.5t-113 18.5h-64z" />
    <glyph glyph-name="uni0433" unicode="&#x433;" horiz-adv-x="385" 
d="M71 484h297v-71h-210v-413h-87v484z" />
    <glyph glyph-name="uni0434" unicode="&#x434;" horiz-adv-x="530" 
d="M125 484h323v-418l50 -1l-5 -219h-69l-4 154h-335l-4 -154h-69l-4 219l41 1q31 46 48 99q28 88 28 193v126zM203 417v-80q0 -96 -25 -180q-13 -44 -39 -90h223v350h-159z" />
    <glyph glyph-name="uni0435" unicode="&#x435;" horiz-adv-x="501" 
d="M462 226h-340q1 -84 48 -126t118 -42q75 0 134 25l15 -63q-66 -30 -161 -30q-111 0 -174.5 66.5t-63.5 177.5q0 112 62 186.5t165 74.5q56 0 97.5 -22.5t62.5 -59t30.5 -73t9.5 -73.5q0 -14 -3 -41zM123 289h257q1 54 -27.5 98.5t-94.5 44.5q-61 0 -95 -44t-40 -99z" />
    <glyph glyph-name="uni0436" unicode="&#x436;" horiz-adv-x="667" 
d="M13 484h101l160 -211h18v211h84v-211h17l160 211h101l-191 -220q101 -11 145 -128q41 -113 53 -136h-88q-18 32 -44 111q-22 57 -55 80t-83 23h-15v-214h-84v214h-16q-53 0 -85 -23t-54 -81q-34 -88 -46 -110h-85q8 15 53 135q45 118 146 129z" />
    <glyph glyph-name="uni0437" unicode="&#x437;" horiz-adv-x="431" 
d="M113 221v60h42q55 0 89.5 22.5t34.5 56.5q0 32 -26 51t-68 19q-62 0 -117 -34l-22 54q72 44 161 44q40 0 75.5 -11.5t62 -41.5t26.5 -74q0 -42 -32.5 -71.5t-76.5 -38.5v-2q56 -5 94 -37.5t38 -83.5q0 -73 -61.5 -108.5t-147.5 -35.5q-87 0 -157 39l23 59q61 -33 128 -33
q54 0 86.5 23t32.5 60q0 83 -141 83h-44z" />
    <glyph glyph-name="uni0438" unicode="&#x438;" horiz-adv-x="554" 
d="M71 484h83v-204q0 -108 -5 -194l3 -1q44 89 78 149l151 250h103v-484h-84v205q0 81 6 198h-3q-40 -80 -80 -150l-151 -253h-101v484z" />
    <glyph glyph-name="uni0439" unicode="&#x439;" horiz-adv-x="554" 
d="M71 484h83v-204q0 -108 -5 -194l3 -1q44 89 78 149l151 250h103v-484h-84v205q0 81 6 198h-3q-40 -80 -80 -150l-151 -253h-101v484zM147 681h64q2 -34 18.5 -55t45.5 -21q59 0 68 76h63q-3 -60 -38.5 -92t-94.5 -32q-62 0 -92.5 34t-33.5 90z" />
    <glyph glyph-name="uni043A" unicode="&#x43a;" horiz-adv-x="479" 
d="M73 484h87v-210h21l182 210h107l-211 -219q56 -6 94.5 -42.5t68.5 -104.5q37 -92 52 -118h-92q-20 32 -45 99q-25 60 -62.5 87t-97.5 27h-17v-213h-87v484z" />
    <glyph glyph-name="uni043B" unicode="&#x43b;" horiz-adv-x="507" 
d="M100 484h336v-484h-87v415h-166v-126q0 -112 -16 -175.5t-60 -92.5q-38 -30 -96 -30l-9 69q30 5 48 20q31 23 40.5 70t9.5 139v195z" />
    <glyph glyph-name="uni043C" unicode="&#x43c;" horiz-adv-x="639" 
d="M42 0l36 484h108l88 -244q42 -125 44 -133h2q14 47 57 166l78 211h109l34 -484h-84l-11 231q-8 132 -9 173h-3q-18 -62 -53 -157l-93 -244h-64l-86 239q-28 85 -48 161h-4q-3 -86 -8 -174l-12 -229h-81z" />
    <glyph glyph-name="uni043D" unicode="&#x43d;" horiz-adv-x="546" 
d="M71 484h87v-195h230v195h87v-484h-87v219h-230v-219h-87v484z" />
    <glyph glyph-name="uni043E" unicode="&#x43e;" horiz-adv-x="549" 
d="M278 495q104 0 168.5 -69t64.5 -180q0 -125 -71.5 -191t-169.5 -66q-100 0 -166 68t-66 181q0 118 68 187.5t172 69.5zM276 429q-73 0 -111 -55.5t-38 -132.5q0 -80 41.5 -133t105.5 -53q63 0 105 53.5t42 134.5q0 44 -14 84.5t-48 71t-83 30.5z" />
    <glyph glyph-name="uni043F" unicode="&#x43f;" horiz-adv-x="541" 
d="M71 484h400v-484h-88v414h-225v-414h-87v484z" />
    <glyph glyph-name="uni0440" unicode="&#x440;" horiz-adv-x="569" 
d="M73 -198v524q0 66 -4 158h79l4 -83h2q57 94 172 94q89 0 147 -68.5t58 -177.5q0 -124 -64 -192t-156 -68q-48 0 -87.5 20t-61.5 56h-2v-263h-87zM160 280v-83q0 -14 4 -36q12 -46 48.5 -74.5t83.5 -28.5q69 0 108 51t39 136q0 76 -38.5 128t-105.5 52q-46 0 -83 -30
t-50 -79q-6 -22 -6 -36z" />
    <glyph glyph-name="uni0441" unicode="&#x441;" horiz-adv-x="448" 
d="M403 84l15 -66q-54 -28 -139 -28q-109 0 -175 68t-66 179q0 113 71.5 185t188.5 72q72 0 122 -25l-20 -68q-40 23 -102 23q-80 0 -125.5 -52t-45.5 -131q0 -83 47.5 -132t120.5 -49q53 0 108 24z" />
    <glyph glyph-name="uni0442" unicode="&#x442;" horiz-adv-x="411" 
d="M11 484h389v-70h-151v-414h-87v414h-151v70z" />
    <glyph glyph-name="uni0443" unicode="&#x443;" horiz-adv-x="471" 
d="M9 484h96l106 -286q19 -54 31 -99h2q1 3 12.5 41.5t18.5 59.5l96 284h93l-132 -345q-49 -129 -85.5 -197t-80.5 -106q-53 -47 -108 -57l-22 74q42 13 77 43q47 37 74 98q7 16 7 21q0 7 -6 23z" />
    <glyph glyph-name="uni0444" unicode="&#x444;" horiz-adv-x="641" 
d="M281 710h80v-217q109 -8 176 -74t67 -176q0 -114 -68 -179.5t-175 -72.5v-189h-80v188q-108 7 -175.5 72.5t-67.5 175.5q0 115 67.5 180.5t175.5 74.5v217zM281 51v382q-72 -10 -114 -63t-42 -129t42.5 -128.5t113.5 -61.5zM361 433v-382q72 10 114 63t42 129t-42 128
t-114 62z" />
    <glyph glyph-name="uni0445" unicode="&#x445;" horiz-adv-x="463" 
d="M16 484h98l69 -104q20 -30 49 -79h3l48 80l68 103h95l-165 -234l170 -250h-100l-71 109q-20 30 -52 84h-2q-9 -17 -51 -84l-70 -109h-97l172 247z" />
    <glyph glyph-name="uni0446" unicode="&#x446;" horiz-adv-x="550" 
d="M71 484h87v-415h223v415h87v-418l50 -1l-5 -219h-68l-4 154h-370v484z" />
    <glyph glyph-name="uni0447" unicode="&#x447;" horiz-adv-x="515" 
d="M65 484h88v-159q0 -103 100 -103q58 0 104 34v228h87v-484h-87v194h-2q-55 -37 -131 -37q-73 0 -116 39t-43 119v169z" />
    <glyph glyph-name="uni0448" unicode="&#x448;" horiz-adv-x="738" 
d="M71 484h86v-415h169v415h86v-415h169v415h87v-484h-597v484z" />
    <glyph glyph-name="uni0449" unicode="&#x449;" horiz-adv-x="749" 
d="M71 484h86v-415h169v415h86v-415h169v415h87v-418l49 -1l-5 -219h-68l-4 154h-569v484z" />
    <glyph glyph-name="uni044A" unicode="&#x44a;" horiz-adv-x="579" 
d="M14 484h231v-163q31 4 83 4q55 0 101 -14t80 -52t34 -97q0 -69 -51 -112q-65 -55 -205 -55q-65 0 -130 7v413h-143v69zM244 257v-195q30 -5 66 -5q62 0 103.5 24.5t41.5 77.5q0 30 -13 51t-35.5 32t-47 15.5t-53.5 4.5q-27 0 -62 -5z" />
    <glyph glyph-name="uni044B" unicode="&#x44b;" horiz-adv-x="665" 
d="M71 484h87v-165q28 6 79 6q88 0 148.5 -39.5t60.5 -122.5q0 -70 -50 -112q-66 -56 -195 -56q-67 0 -130 7v482zM158 257v-196q34 -4 61 -4q57 0 98.5 25.5t41.5 77.5q0 54 -39.5 78t-96.5 24q-35 0 -65 -5zM507 484h87v-484h-87v484z" />
    <glyph glyph-name="uni044C" unicode="&#x44c;" horiz-adv-x="498" 
d="M71 484h87v-164q25 5 80 5q44 0 81.5 -7.5t71 -25t52.5 -51t19 -79.5q0 -68 -51 -111q-66 -56 -210 -56q-67 0 -130 7v482zM158 257v-196q34 -4 65 -4q60 0 105.5 24t45.5 79q0 30 -14.5 51t-38.5 31.5t-48.5 15t-51.5 4.5q-30 0 -63 -5z" />
    <glyph glyph-name="uni044D" unicode="&#x44d;" horiz-adv-x="464" 
d="M93 216v60h244q-6 67 -48 109t-119 42q-58 0 -116 -27l-19 57q66 38 149 38q110 0 176 -69t66 -186q0 -109 -68.5 -180t-188.5 -71q-77 0 -141 33l17 63q60 -26 121 -26q73 0 118.5 42.5t51.5 114.5h-243z" />
    <glyph glyph-name="uni044E" unicode="&#x44e;" horiz-adv-x="705" 
d="M71 484h86v-204h83q11 97 70 156t145 59q95 0 153.5 -68.5t58.5 -180.5q0 -115 -62 -186t-156 -71q-88 0 -146 60.5t-65 163.5h-81v-213h-86v484zM450 54q62 0 95.5 57t33.5 133q0 75 -33 130t-94 55t-95.5 -56t-34.5 -134q0 -76 34 -130.5t94 -54.5z" />
    <glyph glyph-name="uni044F" unicode="&#x44f;" horiz-adv-x="496" 
d="M426 480v-480h-87v203h-65q-51 0 -81 -27q-13 -10 -23.5 -28t-16.5 -32.5t-15 -39.5l-13 -36q-7 -18 -20 -40h-94q17 25 30 55q5 10 18 46.5t26 60t32 39.5q26 23 55 28v3q-52 6 -90 37t-38 83q0 69 64 105q57 33 162 33q72 0 156 -10zM339 263v163q-37 5 -73 5
q-54 0 -92.5 -19t-38.5 -65q0 -42 40.5 -63t88.5 -21h75z" />
    <glyph glyph-name="uni0451" unicode="&#x451;" horiz-adv-x="501" 
d="M462 226h-340q1 -84 48 -126t118 -42q75 0 134 25l15 -63q-66 -30 -161 -30q-111 0 -174.5 66.5t-63.5 177.5q0 112 62 186.5t165 74.5q56 0 97.5 -22.5t62.5 -59t30.5 -73t9.5 -73.5q0 -14 -3 -41zM123 289h257q1 54 -27.5 98.5t-94.5 44.5q-61 0 -95 -44t-40 -99z
M176 570q-22 0 -36.5 15t-14.5 36t15 36t36 15t35 -14.5t14 -36.5q0 -21 -14 -36t-35 -15zM361 570q-22 0 -36 15t-14 36t14.5 36t35.5 15t35 -14.5t14 -36.5q0 -21 -14 -36t-35 -15z" />
    <glyph glyph-name="uni0452" unicode="&#x452;" horiz-adv-x="557" 
d="M7 625h82v85h88v-85h226v-63h-226v-142h2q62 69 147 69q89 0 138 -78q53 -76 53 -212q0 -204 -99 -287q-57 -49 -125 -56l-17 69q60 13 94 50q59 67 59 219q0 107 -38 170q-34 54 -92 54q-59 0 -107 -58q-15 -21 -15 -55v-305h-88v562h-82v63z" />
    <glyph glyph-name="uni0453" unicode="&#x453;" horiz-adv-x="385" 
d="M71 484h297v-71h-210v-413h-87v484zM250 693h97l-123 -143h-62z" />
    <glyph glyph-name="uni0454" unicode="&#x454;" horiz-adv-x="460" 
d="M432 463l-21 -63q-56 27 -110 27q-76 0 -120.5 -42.5t-52.5 -108.5h245v-60h-244q5 -72 51.5 -115t118.5 -43q57 0 115 25l18 -62q-59 -32 -147 -32q-114 0 -180.5 70t-66.5 178q0 115 74 186.5t190 71.5q73 0 130 -32z" />
    <glyph glyph-name="uni0455" unicode="&#x455;" horiz-adv-x="396" 
d="M39 23l22 67q54 -35 116 -35q46 0 70 20t24 52q0 31 -20.5 51t-69.5 38q-128 46 -128 137q0 60 45.5 101t121.5 41q68 0 119 -30l-22 -64q-44 28 -99 28q-38 0 -59.5 -19t-21.5 -47q0 -29 20.5 -46t71.5 -36q65 -25 96 -59t31 -87q0 -65 -48 -105t-133 -40q-80 0 -136 33
z" />
    <glyph glyph-name="uni0456" unicode="&#x456;" horiz-adv-x="234" 
d="M161 0h-88v484h88v-484zM117 675q24 0 39 -15.5t15 -39.5q1 -23 -14.5 -38.5t-41.5 -15.5q-23 0 -38 15.5t-15 38.5t15.5 39t39.5 16z" />
    <glyph glyph-name="uni0457" unicode="&#x457;" horiz-adv-x="234" 
d="M161 0h-88v484h88v-484zM25 570q-22 0 -36.5 15t-14.5 36t15 36t36 15t35 -14.5t14 -36.5q0 -21 -14 -36t-35 -15zM210 570q-22 0 -36 15t-14 36t14.5 36t36.5 15q20 0 34 -14.5t14 -36.5q0 -21 -13.5 -36t-35.5 -15z" />
    <glyph glyph-name="uni0458" unicode="&#x458;" horiz-adv-x="243" 
d="M-36 -209l-9 69q67 5 96 37q19 22 26 59.5t7 122.5v405h88v-439q0 -140 -58 -199q-27 -27 -69 -41t-81 -14zM129 675q24 0 38.5 -15.5t14.5 -39.5q1 -23 -14.5 -38.5t-40.5 -15.5q-24 0 -39 16t-15 38q0 24 15.5 39.5t40.5 15.5z" />
    <glyph glyph-name="uni0459" unicode="&#x459;" horiz-adv-x="775" 
d="M105 484h332v-165q33 5 79 5q43 0 80.5 -8t71 -26t52.5 -51t19 -78q0 -68 -49 -110q-65 -56 -210 -56q-66 0 -131 7v413h-162v-126q0 -108 -18 -173t-63 -94q-36 -30 -95 -30l-9 69q32 6 48 19q32 23 43.5 72.5t11.5 136.5v195zM436 256v-195q36 -4 65 -4q60 0 105 24
t45 78q0 56 -43.5 79.5t-101.5 23.5q-28 0 -70 -6z" />
    <glyph glyph-name="uni045A" unicode="&#x45a;" horiz-adv-x="782" 
d="M71 484h87v-180h204v180h88v-169q25 5 82 5q54 0 100 -14t80 -51.5t34 -94.5q0 -69 -49 -111q-62 -54 -204 -54q-59 0 -131 6v235h-204v-236h-87v484zM449 253v-192q34 -4 66 -4q57 0 100.5 23.5t43.5 76.5q0 55 -42 78t-102 23q-33 0 -66 -5z" />
    <glyph glyph-name="uni045B" unicode="&#x45b;" horiz-adv-x="555" 
d="M485 0h-88v278q0 64 -27 104t-85 40q-41 0 -73 -25t-45 -63q-6 -14 -6 -42v-292h-88v552h-77v55h77v103h88v-103h193v-55h-193v-144h2q22 39 63 62q43 25 90 25q28 0 54.5 -9.5t54 -31t44 -64.5t16.5 -102v-288z" />
    <glyph glyph-name="uni045C" unicode="&#x45c;" horiz-adv-x="479" 
d="M73 484h87v-210h21l182 210h107l-211 -219q56 -6 94.5 -42.5t68.5 -104.5q37 -92 52 -118h-92q-20 32 -45 99q-25 60 -62.5 87t-97.5 27h-17v-213h-87v484zM278 693h97l-122 -143h-62z" />
    <glyph glyph-name="uni045E" unicode="&#x45e;" horiz-adv-x="471" 
d="M9 484h96l106 -286q19 -54 31 -99h2q1 3 12.5 41.5t18.5 59.5l96 284h93l-132 -345q-49 -129 -85.5 -197t-80.5 -106q-53 -47 -108 -57l-22 74q42 13 77 43q47 37 74 98q7 16 7 21q0 7 -6 23zM106 681h64q2 -34 18 -55t46 -21q59 0 68 76h63q-4 -60 -39 -92t-94 -32
q-62 0 -92.5 34t-33.5 90z" />
    <glyph glyph-name="uni045F" unicode="&#x45f;" horiz-adv-x="538" 
d="M71 484h87v-415h222v415h88v-484h-157l-6 -157h-70l-7 157h-157v484z" />
    <glyph glyph-name="uni0490" unicode="&#x490;" horiz-adv-x="447" 
d="M76 674h292l16 122h64l-11 -195h-274v-601h-87v674z" />
    <glyph glyph-name="uni0491" unicode="&#x491;" horiz-adv-x="392" 
d="M71 484h229l12 109h63l-6 -179h-211v-414h-87v484z" />
    <glyph glyph-name="uni04D9" unicode="&#x4d9;" horiz-adv-x="501" 
d="M78 400l-15 62q68 33 162 33q110 0 173.5 -67.5t63.5 -177.5q0 -112 -62 -186t-165 -74q-56 0 -97 22t-62 58t-30.5 72.5t-9.5 73.5q0 28 3 41h339q-1 86 -46.5 127.5t-117.5 41.5q-75 0 -136 -26zM377 194h-257q0 -23 5.5 -45.5t18 -45t38 -36.5t60.5 -14q62 0 95.5 43
t39.5 98z" />
    <glyph glyph-name="Wgrave" unicode="&#x1e80;" horiz-adv-x="846" 
d="M277 0h-91l-171 674h92l80 -341q31 -131 50 -233h2q11 68 55 234l90 340h91l82 -342q36 -150 47 -231h2q13 70 54 233l89 340h89l-191 -674h-91l-85 351q-32 133 -44 220h-2q-19 -104 -52 -220zM273 827h106l93 -116h-72z" />
    <glyph glyph-name="wgrave" unicode="&#x1e81;" horiz-adv-x="736" 
d="M18 484h90l64 -246q27 -104 36 -154h3q11 49 43 153l79 247h74l75 -242q27 -88 43 -158h3q10 60 37 157l69 243h87l-156 -484h-80l-74 231q-29 91 -43 159h-2q-14 -69 -44 -160l-78 -230h-80zM237 693h97l87 -143h-62z" />
    <glyph glyph-name="Wacute" unicode="&#x1e82;" horiz-adv-x="846" 
d="M277 0h-91l-171 674h92l80 -341q31 -131 50 -233h2q11 68 55 234l90 340h91l82 -342q36 -150 47 -231h2q13 70 54 233l89 340h89l-191 -674h-91l-85 351q-32 133 -44 220h-2q-19 -104 -52 -220zM476 827h107l-128 -117h-71z" />
    <glyph glyph-name="wacute" unicode="&#x1e83;" horiz-adv-x="736" 
d="M18 484h90l64 -246q27 -104 36 -154h3q11 49 43 153l79 247h74l75 -242q27 -88 43 -158h3q10 60 37 157l69 243h87l-156 -484h-80l-74 231q-29 91 -43 159h-2q-14 -69 -44 -160l-78 -230h-80zM411 693h97l-122 -143h-63z" />
    <glyph glyph-name="Wdieresis" unicode="&#x1e84;" horiz-adv-x="846" 
d="M277 0h-91l-171 674h92l80 -341q31 -131 50 -233h2q11 68 55 234l90 340h91l82 -342q36 -150 47 -231h2q13 70 54 233l89 340h89l-191 -674h-91l-85 351q-32 133 -44 220h-2q-19 -104 -52 -220zM334 721q-21 0 -35 15t-14 36t14.5 35.5t35.5 14.5q20 0 33.5 -14.5
t13.5 -35.5q0 -22 -13.5 -36.5t-34.5 -14.5zM519 721q-21 0 -34.5 14.5t-13.5 36.5q0 21 14 35.5t35 14.5t34.5 -14.5t13.5 -35.5q0 -22 -13.5 -36.5t-35.5 -14.5z" />
    <glyph glyph-name="wdieresis" unicode="&#x1e85;" horiz-adv-x="736" 
d="M18 484h90l64 -246q27 -104 36 -154h3q11 49 43 153l79 247h74l75 -242q27 -88 43 -158h3q10 60 37 157l69 243h87l-156 -484h-80l-74 231q-29 91 -43 159h-2q-14 -69 -44 -160l-78 -230h-80zM276 570q-22 0 -36.5 15t-14.5 36t15 36t36 15t35 -14.5t14 -36.5
q0 -21 -14 -36t-35 -15zM461 570q-22 0 -36 15t-14 36t14.5 36t35.5 15t35 -14.5t14 -36.5q0 -21 -14 -36t-35 -15z" />
    <glyph glyph-name="uni1EA0" unicode="&#x1ea0;" horiz-adv-x="612" 
d="M424 212h-239l-70 -212h-90l229 674h105l230 -674h-93zM203 280h203l-66 194q-14 41 -35 123h-2q-17 -70 -34 -122zM304 -181q-21 0 -35.5 15.5t-14.5 35.5t14.5 35t35.5 15q20 0 34 -15t14 -35t-14 -35.5t-34 -15.5z" />
    <glyph glyph-name="uni1EA1" unicode="&#x1ea1;" horiz-adv-x="482" 
d="M421 0h-80l-7 61h-3q-22 -31 -60.5 -51.5t-87.5 -20.5q-70 0 -109 41t-39 98q0 88 75.5 134.5t215.5 45.5v10q0 112 -110 112q-70 0 -126 -36l-20 58q66 43 159 43q53 0 90.5 -17t57 -46.5t28 -62t8.5 -72.5v-181q0 -72 8 -116zM328 163v84q-205 4 -205 -109
q0 -41 23.5 -62.5t59.5 -21.5q44 0 74.5 23.5t42.5 57.5q5 15 5 28zM242 -80q21 0 35 -15t14 -36q0 -22 -14 -37t-37 -15q-21 0 -35 15.5t-14 36.5t14.5 36t36.5 15z" />
    <glyph glyph-name="uni1EA2" unicode="&#x1ea2;" horiz-adv-x="612" 
d="M424 212h-239l-70 -212h-90l229 674h105l230 -674h-93zM203 280h203l-66 194q-14 41 -35 123h-2q-17 -70 -34 -122zM330 709l-46 13q7 20 29.5 43.5t22.5 40.5q0 14 -9.5 22.5t-23.5 8.5q-25 0 -50 -35l-33 20q34 67 99 67q35 0 59 -20.5t24 -51.5q0 -22 -11.5 -38.5
t-31 -34.5t-29.5 -35z" />
    <glyph glyph-name="uni1EA3" unicode="&#x1ea3;" horiz-adv-x="482" 
d="M421 0h-80l-7 61h-3q-22 -31 -60.5 -51.5t-87.5 -20.5q-70 0 -109 41t-39 98q0 88 75.5 134.5t215.5 45.5v10q0 112 -110 112q-70 0 -126 -36l-20 58q66 43 159 43q53 0 90.5 -17t57 -46.5t28 -62t8.5 -72.5v-181q0 -72 8 -116zM328 163v84q-205 4 -205 -109
q0 -41 23.5 -62.5t59.5 -21.5q44 0 74.5 23.5t42.5 57.5q5 15 5 28zM255 530l-47 12q6 21 31.5 48t25.5 46q0 15 -9.5 24.5t-24.5 9.5q-27 0 -48 -35l-34 20q32 67 97 67q36 0 60.5 -21t24.5 -54q0 -25 -13.5 -43.5t-33.5 -37.5t-29 -36z" />
    <glyph glyph-name="uni1EA4" unicode="&#x1ea4;" horiz-adv-x="612" 
d="M424 212h-239l-70 -212h-90l229 674h105l230 -674h-93zM203 280h203l-66 194q-14 41 -35 123h-2q-17 -70 -34 -122zM280 824h63l95 -114h-70l-55 70h-2l-56 -70h-67zM474 900h89l-121 -105h-52z" />
    <glyph glyph-name="uni1EA5" unicode="&#x1ea5;" horiz-adv-x="482" 
d="M421 0h-80l-7 61h-3q-22 -31 -60.5 -51.5t-87.5 -20.5q-70 0 -109 41t-39 98q0 88 75.5 134.5t215.5 45.5v10q0 112 -110 112q-70 0 -126 -36l-20 58q66 43 159 43q53 0 90.5 -17t57 -46.5t28 -62t8.5 -72.5v-181q0 -72 8 -116zM328 163v84q-205 4 -205 -109
q0 -41 23.5 -62.5t59.5 -21.5q44 0 74.5 23.5t42.5 57.5q5 15 5 28zM201 693h65l86 -143h-67l-50 94h-3l-51 -94h-64zM393 775h82l-100 -132h-51z" />
    <glyph glyph-name="uni1EA6" unicode="&#x1ea6;" horiz-adv-x="612" 
d="M424 212h-239l-70 -212h-90l229 674h105l230 -674h-93zM203 280h203l-66 194q-14 41 -35 123h-2q-17 -70 -34 -122zM336 881h91l73 -105h-54zM274 824h63l95 -114h-70l-56 70h-2l-55 -70h-68z" />
    <glyph glyph-name="uni1EA7" unicode="&#x1ea7;" horiz-adv-x="482" 
d="M421 0h-80l-7 61h-3q-22 -31 -60.5 -51.5t-87.5 -20.5q-70 0 -109 41t-39 98q0 88 75.5 134.5t215.5 45.5v10q0 112 -110 112q-70 0 -126 -36l-20 58q66 43 159 43q53 0 90.5 -17t57 -46.5t28 -62t8.5 -72.5v-181q0 -72 8 -116zM328 163v84q-205 4 -205 -109
q0 -41 23.5 -62.5t59.5 -21.5q44 0 74.5 23.5t42.5 57.5q5 15 5 28zM272 775h80l64 -132h-51zM200 693h65l86 -143h-67l-51 94h-2l-51 -94h-64z" />
    <glyph glyph-name="uni1EA8" unicode="&#x1ea8;" horiz-adv-x="612" 
d="M424 212h-239l-70 -212h-90l229 674h105l230 -674h-93zM203 280h203l-66 194q-14 41 -35 123h-2q-17 -70 -34 -122zM277 824h63l94 -114h-70l-55 70h-2l-55 -70h-68zM459 754l-42 12q7 19 29.5 42.5t22.5 40.5q0 14 -10 23.5t-24 9.5q-25 0 -49 -37l-33 19q33 64 96 64
q34 0 56.5 -20t22.5 -50q0 -28 -30.5 -58.5t-38.5 -45.5z" />
    <glyph glyph-name="uni1EA9" unicode="&#x1ea9;" horiz-adv-x="482" 
d="M421 0h-80l-7 61h-3q-22 -31 -60.5 -51.5t-87.5 -20.5q-70 0 -109 41t-39 98q0 88 75.5 134.5t215.5 45.5v10q0 112 -110 112q-70 0 -126 -36l-20 58q66 43 159 43q53 0 90.5 -17t57 -46.5t28 -62t8.5 -72.5v-181q0 -72 8 -116zM328 163v84q-205 4 -205 -109
q0 -41 23.5 -62.5t59.5 -21.5q44 0 74.5 23.5t42.5 57.5q5 15 5 28zM198 693h65l86 -143h-67l-51 94h-2l-51 -94h-64zM378 635l-44 11q8 20 29.5 43t21.5 39q0 14 -9.5 23.5t-23.5 9.5q-25 0 -48 -36l-32 20q32 64 95 64q34 0 57 -21t23 -50q0 -22 -11 -37t-29.5 -32
t-28.5 -34z" />
    <glyph glyph-name="uni1EAA" unicode="&#x1eaa;" horiz-adv-x="612" 
d="M424 212h-239l-70 -212h-90l229 674h105l230 -674h-93zM203 280h203l-66 194q-14 41 -35 123h-2q-17 -70 -34 -122zM273 824h67l105 -114h-74l-63 69h-2l-64 -69h-71zM235 837h-48q-1 43 17.5 69t50.5 26q23 0 62 -22q32 -16 42 -16q24 0 28 41h46q3 -96 -68 -96
q-22 0 -60 21q-31 17 -44 17q-23 0 -26 -40z" />
    <glyph glyph-name="uni1EAB" unicode="&#x1eab;" horiz-adv-x="482" 
d="M421 0h-80l-7 61h-3q-22 -31 -60.5 -51.5t-87.5 -20.5q-70 0 -109 41t-39 98q0 88 75.5 134.5t215.5 45.5v10q0 112 -110 112q-70 0 -126 -36l-20 58q66 43 159 43q53 0 90.5 -17t57 -46.5t28 -62t8.5 -72.5v-181q0 -72 8 -116zM328 163v84q-205 4 -205 -109
q0 -41 23.5 -62.5t59.5 -21.5q44 0 74.5 23.5t42.5 57.5q5 15 5 28zM208 668h65l91 -118h-69l-54 73h-2l-53 -73h-67zM169 680h-48q-1 43 17.5 69t49.5 26q20 0 62 -22q28 -16 43 -16q25 0 27 40h47q2 -96 -68 -96q-21 0 -61 21q-31 17 -43 17q-24 0 -26 -39z" />
    <glyph glyph-name="uni1EAC" unicode="&#x1eac;" horiz-adv-x="612" 
d="M424 212h-239l-70 -212h-90l229 674h105l230 -674h-93zM203 280h203l-66 194q-14 41 -35 123h-2q-17 -70 -34 -122zM276 824h67l105 -114h-74l-63 69h-2l-64 -69h-71zM303 -181q-21 0 -35.5 15.5t-14.5 35.5t15 35t36 15q20 0 34 -15t14 -35t-14.5 -35.5t-34.5 -15.5z
" />
    <glyph glyph-name="uni1EAD" unicode="&#x1ead;" horiz-adv-x="482" 
d="M421 0h-80l-7 61h-3q-22 -31 -60.5 -51.5t-87.5 -20.5q-70 0 -109 41t-39 98q0 88 75.5 134.5t215.5 45.5v10q0 112 -110 112q-70 0 -126 -36l-20 58q66 43 159 43q53 0 90.5 -17t57 -46.5t28 -62t8.5 -72.5v-181q0 -72 8 -116zM328 163v84q-205 4 -205 -109
q0 -41 23.5 -62.5t59.5 -21.5q44 0 74.5 23.5t42.5 57.5q5 15 5 28zM205 693h61l96 -143h-67l-58 95h-2l-58 -95h-66zM242 -80q21 0 35 -15t14 -36q0 -22 -14 -37t-37 -15q-21 0 -35 15.5t-14 36.5t14.5 36t36.5 15z" />
    <glyph glyph-name="uni1EAE" unicode="&#x1eae;" horiz-adv-x="612" 
d="M424 212h-239l-70 -212h-90l229 674h105l230 -674h-93zM203 280h203l-66 194q-14 41 -35 123h-2q-17 -70 -34 -122zM185 802h48q14 -49 77 -49t78 49h47q-6 -43 -38.5 -73t-87.5 -30t-86.5 29t-37.5 74zM347 896h93l-112 -105h-55z" />
    <glyph glyph-name="uni1EAF" unicode="&#x1eaf;" horiz-adv-x="482" 
d="M421 0h-80l-7 61h-3q-22 -31 -60.5 -51.5t-87.5 -20.5q-70 0 -109 41t-39 98q0 88 75.5 134.5t215.5 45.5v10q0 112 -110 112q-70 0 -126 -36l-20 58q66 43 159 43q53 0 90.5 -17t57 -46.5t28 -62t8.5 -72.5v-181q0 -72 8 -116zM328 163v84q-205 4 -205 -109
q0 -41 23.5 -62.5t59.5 -21.5q44 0 74.5 23.5t42.5 57.5q5 15 5 28zM280 773h84l-111 -131h-53zM108 657h50q5 -30 26 -49.5t53 -19.5q36 0 57 20.5t23 48.5h49q-1 -56 -36.5 -90t-92.5 -34q-62 0 -95 36t-34 88z" />
    <glyph glyph-name="uni1EB0" unicode="&#x1eb0;" horiz-adv-x="612" 
d="M424 212h-239l-70 -212h-90l229 674h105l230 -674h-93zM203 280h203l-66 194q-14 41 -35 123h-2q-17 -70 -34 -122zM185 896h92l74 -105h-54zM186 802h48q12 -49 76 -49t79 49h46q-5 -43 -37.5 -73t-88.5 -30q-55 0 -86 29t-37 74z" />
    <glyph glyph-name="uni1EB1" unicode="&#x1eb1;" horiz-adv-x="482" 
d="M421 0h-80l-7 61h-3q-22 -31 -60.5 -51.5t-87.5 -20.5q-70 0 -109 41t-39 98q0 88 75.5 134.5t215.5 45.5v10q0 112 -110 112q-70 0 -126 -36l-20 58q66 43 159 43q53 0 90.5 -17t57 -46.5t28 -62t8.5 -72.5v-181q0 -72 8 -116zM328 163v84q-205 4 -205 -109
q0 -41 23.5 -62.5t59.5 -21.5q44 0 74.5 23.5t42.5 57.5q5 15 5 28zM113 773h84l80 -131h-54zM108 657h50q5 -30 26 -49.5t53 -19.5q36 0 57 20.5t23 48.5h50q-1 -56 -37 -90t-93 -34q-62 0 -95 36t-34 88z" />
    <glyph glyph-name="uni1EB2" unicode="&#x1eb2;" horiz-adv-x="612" 
d="M424 212h-239l-70 -212h-90l229 674h105l230 -674h-93zM203 280h203l-66 194q-14 41 -35 123h-2q-17 -70 -34 -122zM324 778l-43 12q7 19 29 42.5t22 39.5q0 14 -9.5 23t-23.5 9q-25 0 -48 -35l-32 19q31 64 95 64q34 0 56.5 -20.5t22.5 -49.5q0 -22 -11 -37t-29.5 -32.5
t-28.5 -34.5zM186 802h48q12 -49 77 -49q63 0 78 49h47q-6 -43 -38.5 -73t-88.5 -30q-55 0 -86 29t-37 74z" />
    <glyph glyph-name="uni1EB3" unicode="&#x1eb3;" horiz-adv-x="482" 
d="M421 0h-80l-7 61h-3q-22 -31 -60.5 -51.5t-87.5 -20.5q-70 0 -109 41t-39 98q0 88 75.5 134.5t215.5 45.5v10q0 112 -110 112q-70 0 -126 -36l-20 58q66 43 159 43q53 0 90.5 -17t57 -46.5t28 -62t8.5 -72.5v-181q0 -72 8 -116zM328 163v84q-205 4 -205 -109
q0 -41 23.5 -62.5t59.5 -21.5q44 0 74.5 23.5t42.5 57.5q5 15 5 28zM249 634l-44 11q8 20 29.5 43t21.5 39q0 14 -10 23.5t-24 9.5q-24 0 -47 -36l-33 20q34 64 96 64q34 0 57 -21t23 -50q0 -22 -11 -37t-29.5 -32t-28.5 -34zM106 657h50q5 -30 26.5 -49.5t52.5 -19.5
q36 0 57 20.5t23 48.5h50q-1 -56 -37 -90t-93 -34q-62 0 -95 36t-34 88z" />
    <glyph glyph-name="uni1EB4" unicode="&#x1eb4;" horiz-adv-x="612" 
d="M424 212h-239l-70 -212h-90l229 674h105l230 -674h-93zM203 280h203l-66 194q-14 41 -35 123h-2q-17 -70 -34 -122zM232 836h-49q2 38 19.5 62t48.5 24q22 0 62 -21q28 -16 42 -16q13 0 19.5 8.5t8.5 31.5h46q3 -96 -68 -96q-22 0 -60 21q-31 17 -44 17q-19 0 -25 -31z
M180 802h47q14 -49 77 -49t78 49h47q-5 -43 -37.5 -73t-88.5 -30q-55 0 -86 29t-37 74z" />
    <glyph glyph-name="uni1EB5" unicode="&#x1eb5;" horiz-adv-x="482" 
d="M421 0h-80l-7 61h-3q-22 -31 -60.5 -51.5t-87.5 -20.5q-70 0 -109 41t-39 98q0 88 75.5 134.5t215.5 45.5v10q0 112 -110 112q-70 0 -126 -36l-20 58q66 43 159 43q53 0 90.5 -17t57 -46.5t28 -62t8.5 -72.5v-181q0 -72 8 -116zM328 163v84q-205 4 -205 -109
q0 -41 23.5 -62.5t59.5 -21.5q44 0 74.5 23.5t42.5 57.5q5 15 5 28zM168 698h-50q2 38 19.5 62t48.5 24q20 0 62 -22q32 -16 43 -16q24 0 27 41h47q2 -96 -68 -96q-24 0 -61 21q-32 16 -44 16q-20 0 -24 -30zM113 657h50q5 -30 25.5 -50t51.5 -20q35 0 55.5 21t22.5 49h49
q-1 -56 -35.5 -90t-91.5 -34q-62 0 -94 36t-33 88z" />
    <glyph glyph-name="uni1EB6" unicode="&#x1eb6;" horiz-adv-x="612" 
d="M424 212h-239l-70 -212h-90l229 674h105l230 -674h-93zM203 280h203l-66 194q-14 41 -35 123h-2q-17 -70 -34 -122zM182 832h52q11 -49 72 -49q62 0 73 49h50q-1 -47 -32 -76.5t-92 -29.5t-91.5 29t-31.5 77zM305 -181q-21 0 -35.5 15.5t-14.5 35.5t14.5 35t35.5 15
q20 0 34 -15t14 -35t-14 -35.5t-34 -15.5z" />
    <glyph glyph-name="uni1EB7" unicode="&#x1eb7;" horiz-adv-x="482" 
d="M421 0h-80l-7 61h-3q-22 -31 -60.5 -51.5t-87.5 -20.5q-70 0 -109 41t-39 98q0 88 75.5 134.5t215.5 45.5v10q0 112 -110 112q-70 0 -126 -36l-20 58q66 43 159 43q53 0 90.5 -17t57 -46.5t28 -62t8.5 -72.5v-181q0 -72 8 -116zM328 163v84q-205 4 -205 -109
q0 -41 23.5 -62.5t59.5 -21.5q44 0 74.5 23.5t42.5 57.5q5 15 5 28zM117 682h52q5 -31 23.5 -50t48.5 -19q33 0 51 20.5t21 48.5h52q0 -56 -34 -90t-90 -34q-62 0 -93 36t-31 88zM242 -80q21 0 35 -15t14 -36q0 -22 -14 -37t-37 -15q-21 0 -35 15.5t-14 36.5t14.5 36
t36.5 15z" />
    <glyph glyph-name="uni1EB8" unicode="&#x1eb8;" horiz-adv-x="492" 
d="M425 388v-72h-262v-243h292v-73h-379v674h364v-73h-277v-213h262zM268 -181q-21 0 -35.5 15.5t-14.5 35.5t15 35t36 15q20 0 34 -15t14 -35t-14.5 -35.5t-34.5 -15.5z" />
    <glyph glyph-name="uni1EB9" unicode="&#x1eb9;" horiz-adv-x="501" 
d="M462 226h-340q1 -84 48 -126t118 -42q75 0 134 25l15 -63q-66 -30 -161 -30q-111 0 -174.5 66.5t-63.5 177.5q0 112 62 186.5t165 74.5q56 0 97.5 -22.5t62.5 -59t30.5 -73t9.5 -73.5q0 -14 -3 -41zM123 289h257q1 54 -27.5 98.5t-94.5 44.5q-61 0 -95 -44t-40 -99z
M251 -80q21 0 35 -15t14 -36q0 -22 -14 -37t-37 -15q-21 0 -35 15.5t-14 36.5t14.5 36t36.5 15z" />
    <glyph glyph-name="uni1EBA" unicode="&#x1eba;" horiz-adv-x="492" 
d="M425 388v-72h-262v-243h292v-73h-379v674h364v-73h-277v-213h262zM290 709l-46 13q7 20 29.5 43.5t22.5 40.5q0 14 -9.5 22.5t-23.5 8.5q-25 0 -50 -35l-33 20q34 67 99 67q35 0 59 -20.5t24 -51.5q0 -22 -11.5 -38.5t-31 -34.5t-29.5 -35z" />
    <glyph glyph-name="uni1EBB" unicode="&#x1ebb;" horiz-adv-x="501" 
d="M462 226h-340q1 -84 48 -126t118 -42q75 0 134 25l15 -63q-66 -30 -161 -30q-111 0 -174.5 66.5t-63.5 177.5q0 112 62 186.5t165 74.5q56 0 97.5 -22.5t62.5 -59t30.5 -73t9.5 -73.5q0 -14 -3 -41zM123 289h257q1 54 -27.5 98.5t-94.5 44.5q-61 0 -95 -44t-40 -99z
M264 530l-47 12q6 21 31.5 48t25.5 46q0 15 -9.5 24.5t-24.5 9.5q-27 0 -48 -35l-34 20q32 67 97 67q36 0 60.5 -21t24.5 -54q0 -25 -13.5 -43.5t-33.5 -37.5t-29 -36z" />
    <glyph glyph-name="uni1EBC" unicode="&#x1ebc;" horiz-adv-x="492" 
d="M425 388v-72h-262v-243h292v-73h-379v674h364v-73h-277v-213h262zM189 715h-47q-2 46 16.5 74t51.5 28q21 0 59 -20q32 -18 48 -18q12 0 18.5 8t8.5 31h46q2 -97 -67 -97q-23 0 -61 19q-36 19 -47 19q-23 0 -26 -44z" />
    <glyph glyph-name="uni1EBD" unicode="&#x1ebd;" horiz-adv-x="501" 
d="M462 226h-340q1 -84 48 -126t118 -42q75 0 134 25l15 -63q-66 -30 -161 -30q-111 0 -174.5 66.5t-63.5 177.5q0 112 62 186.5t165 74.5q56 0 97.5 -22.5t62.5 -59t30.5 -73t9.5 -73.5q0 -14 -3 -41zM123 289h257q1 54 -27.5 98.5t-94.5 44.5q-61 0 -95 -44t-40 -99z
M175 567h-48q-1 48 17 76t51 28q23 0 62 -22q30 -17 42 -17q25 0 28 43h47q2 -101 -69 -101q-23 0 -61 20q-30 18 -43 18q-23 0 -26 -45z" />
    <glyph glyph-name="uni1EBE" unicode="&#x1ebe;" horiz-adv-x="492" 
d="M425 388v-72h-262v-243h292v-73h-379v674h364v-73h-277v-213h262zM230 824h63l95 -114h-70l-55 70h-2l-56 -70h-67zM424 900h89l-121 -105h-52z" />
    <glyph glyph-name="uni1EBF" unicode="&#x1ebf;" horiz-adv-x="501" 
d="M462 226h-340q1 -84 48 -126t118 -42q75 0 134 25l15 -63q-66 -30 -161 -30q-111 0 -174.5 66.5t-63.5 177.5q0 112 62 186.5t165 74.5q56 0 97.5 -22.5t62.5 -59t30.5 -73t9.5 -73.5q0 -14 -3 -41zM123 289h257q1 54 -27.5 98.5t-94.5 44.5q-61 0 -95 -44t-40 -99z
M234 693h64l87 -143h-67l-51 94h-2l-51 -94h-64zM425 775h82l-99 -132h-51z" />
    <glyph glyph-name="uni1EC0" unicode="&#x1ec0;" horiz-adv-x="492" 
d="M425 388v-72h-262v-243h292v-73h-379v674h364v-73h-277v-213h262zM289 881h91l72 -105h-54zM227 824h63l94 -114h-70l-55 70h-2l-55 -70h-68z" />
    <glyph glyph-name="uni1EC1" unicode="&#x1ec1;" horiz-adv-x="501" 
d="M462 226h-340q1 -84 48 -126t118 -42q75 0 134 25l15 -63q-66 -30 -161 -30q-111 0 -174.5 66.5t-63.5 177.5q0 112 62 186.5t165 74.5q56 0 97.5 -22.5t62.5 -59t30.5 -73t9.5 -73.5q0 -14 -3 -41zM123 289h257q1 54 -27.5 98.5t-94.5 44.5q-61 0 -95 -44t-40 -99z
M303 775h80l63 -132h-51zM231 693h64l86 -143h-66l-51 94h-2l-51 -94h-64z" />
    <glyph glyph-name="uni1EC2" unicode="&#x1ec2;" horiz-adv-x="492" 
d="M425 388v-72h-262v-243h292v-73h-379v674h364v-73h-277v-213h262zM226 824h63l95 -114h-70l-55 70h-2l-55 -70h-68zM408 754l-42 12q7 19 29.5 42.5t22.5 40.5q0 14 -9.5 23.5t-24.5 9.5q-23 0 -49 -37l-32 19q33 64 95 64q34 0 56.5 -20t22.5 -50q0 -28 -30.5 -59
t-38.5 -45z" />
    <glyph glyph-name="uni1EC3" unicode="&#x1ec3;" horiz-adv-x="501" 
d="M462 226h-340q1 -84 48 -126t118 -42q75 0 134 25l15 -63q-66 -30 -161 -30q-111 0 -174.5 66.5t-63.5 177.5q0 112 62 186.5t165 74.5q56 0 97.5 -22.5t62.5 -59t30.5 -73t9.5 -73.5q0 -14 -3 -41zM123 289h257q1 54 -27.5 98.5t-94.5 44.5q-61 0 -95 -44t-40 -99z
M226 693h64l86 -143h-66l-51 94h-2l-51 -94h-64zM406 635l-44 11q8 20 29.5 43t21.5 39q0 14 -10 23.5t-24 9.5q-24 0 -47 -36l-33 20q34 64 96 64q33 0 56 -20.5t23 -50.5q0 -22 -11 -37t-29 -32t-28 -34z" />
    <glyph glyph-name="uni1EC4" unicode="&#x1ec4;" horiz-adv-x="492" 
d="M425 388v-72h-262v-243h292v-73h-379v674h364v-73h-277v-213h262zM235 824h67l105 -114h-74l-64 69h-2l-63 -69h-72zM197 837h-48q-1 43 17.5 69t50.5 26q21 0 62 -22q32 -16 42 -16q24 0 27 41h47q2 -96 -68 -96q-21 0 -61 21q-31 17 -43 17q-23 0 -26 -40z" />
    <glyph glyph-name="uni1EC5" unicode="&#x1ec5;" horiz-adv-x="501" 
d="M462 226h-340q1 -84 48 -126t118 -42q75 0 134 25l15 -63q-66 -30 -161 -30q-111 0 -174.5 66.5t-63.5 177.5q0 112 62 186.5t165 74.5q56 0 97.5 -22.5t62.5 -59t30.5 -73t9.5 -73.5q0 -14 -3 -41zM123 289h257q1 54 -27.5 98.5t-94.5 44.5q-61 0 -95 -44t-40 -99z
M228 668h64l91 -118h-69l-53 73h-2l-54 -73h-67zM188 680h-48q-1 43 17.5 69t50.5 26q20 0 62 -22q28 -16 42 -16q13 0 19.5 8.5t8.5 31.5h46q3 -96 -68 -96q-22 0 -60 21q-31 17 -44 17q-23 0 -26 -39z" />
    <glyph glyph-name="uni1EC6" unicode="&#x1ec6;" horiz-adv-x="492" 
d="M425 388v-72h-262v-243h292v-73h-379v674h364v-73h-277v-213h262zM223 824h67l105 -114h-74l-64 69h-2l-63 -69h-72zM268 -181q-21 0 -35.5 15.5t-14.5 35.5t15 35t36 15q20 0 34 -15t14 -35t-14.5 -35.5t-34.5 -15.5z" />
    <glyph glyph-name="uni1EC7" unicode="&#x1ec7;" horiz-adv-x="501" 
d="M462 226h-340q1 -84 48 -126t118 -42q75 0 134 25l15 -63q-66 -30 -161 -30q-111 0 -174.5 66.5t-63.5 177.5q0 112 62 186.5t165 74.5q56 0 97.5 -22.5t62.5 -59t30.5 -73t9.5 -73.5q0 -14 -3 -41zM123 289h257q1 54 -27.5 98.5t-94.5 44.5q-61 0 -95 -44t-40 -99z
M219 693h61l96 -143h-68l-58 95h-2l-57 -95h-66zM251 -80q21 0 35 -15t14 -36q0 -22 -14 -37t-37 -15q-21 0 -35 15.5t-14 36.5t14.5 36t36.5 15z" />
    <glyph glyph-name="uni1EC8" unicode="&#x1ec8;" horiz-adv-x="239" 
d="M76 674h87v-674h-87v674zM144 709l-47 13q8 20 30.5 43.5t22.5 40.5q0 14 -9.5 22.5t-24.5 8.5q-26 0 -49 -35l-34 20q35 67 99 67q35 0 59 -20.5t24 -51.5q0 -30 -32 -62.5t-39 -45.5z" />
    <glyph glyph-name="uni1EC9" unicode="&#x1ec9;" horiz-adv-x="234" 
d="M161 0h-88v484h88v-484zM131 530l-47 12q6 21 31.5 48t25.5 46q0 15 -9.5 24.5t-24.5 9.5q-27 0 -48 -35l-34 20q32 67 97 67q36 0 60.5 -21t24.5 -54q0 -25 -13.5 -43.5t-33.5 -37.5t-29 -36z" />
    <glyph glyph-name="uni1ECA" unicode="&#x1eca;" horiz-adv-x="239" 
d="M76 674h87v-674h-87v674zM121 -181q-21 0 -35.5 15.5t-14.5 35.5t14.5 35t35.5 15q20 0 34 -15t14 -35t-14 -35.5t-34 -15.5z" />
    <glyph glyph-name="uni1ECB" unicode="&#x1ecb;" horiz-adv-x="234" 
d="M161 0h-88v484h88v-484zM117 675q24 0 39 -15.5t15 -39.5q1 -23 -14.5 -38.5t-41.5 -15.5q-23 0 -38 15.5t-15 38.5t15.5 39t39.5 16zM118 -80q21 0 35 -15t14 -36q0 -22 -14 -37t-37 -15q-21 0 -35 15.5t-14 36.5t14.5 36t36.5 15z" />
    <glyph glyph-name="uni1ECC" unicode="&#x1ecc;" horiz-adv-x="689" 
d="M349 685q137 0 220 -95t83 -246q0 -168 -89 -261.5t-224 -93.5q-134 0 -218.5 95t-84.5 247q0 159 88 256.5t225 97.5zM345 614q-103 0 -159.5 -81.5t-56.5 -199.5q0 -113 58 -193t157 -80q100 0 158 80t58 200q0 110 -56.5 192t-158.5 82zM345 -181q-21 0 -35.5 15.5
t-14.5 35.5t15 35t36 15q20 0 34 -15t14 -35t-14.5 -35.5t-34.5 -15.5z" />
    <glyph glyph-name="uni1ECD" unicode="&#x1ecd;" horiz-adv-x="549" 
d="M278 495q104 0 168.5 -69t64.5 -180q0 -125 -71.5 -191t-169.5 -66q-100 0 -166 68t-66 181q0 118 68 187.5t172 69.5zM276 429q-73 0 -111 -55.5t-38 -132.5q0 -80 41.5 -133t105.5 -53q63 0 105 53.5t42 134.5q0 44 -14 84.5t-48 71t-83 30.5zM275 -80q21 0 35 -15
t14 -36q0 -22 -14 -37t-37 -15q-21 0 -35 15.5t-14 36.5t14.5 36t36.5 15z" />
    <glyph glyph-name="uni1ECE" unicode="&#x1ece;" horiz-adv-x="689" 
d="M349 685q137 0 220 -95t83 -246q0 -168 -89 -261.5t-224 -93.5q-134 0 -218.5 95t-84.5 247q0 159 88 256.5t225 97.5zM345 614q-103 0 -159.5 -81.5t-56.5 -199.5q0 -113 58 -193t157 -80q100 0 158 80t58 200q0 110 -56.5 192t-158.5 82zM368 709l-47 13
q8 20 30.5 43.5t22.5 40.5q0 14 -9.5 22.5t-24.5 8.5q-26 0 -49 -35l-34 20q35 67 99 67q35 0 59 -20.5t24 -51.5q0 -30 -32 -62.5t-39 -45.5z" />
    <glyph glyph-name="uni1ECF" unicode="&#x1ecf;" horiz-adv-x="549" 
d="M278 495q104 0 168.5 -69t64.5 -180q0 -125 -71.5 -191t-169.5 -66q-100 0 -166 68t-66 181q0 118 68 187.5t172 69.5zM276 429q-73 0 -111 -55.5t-38 -132.5q0 -80 41.5 -133t105.5 -53q63 0 105 53.5t42 134.5q0 44 -14 84.5t-48 71t-83 30.5zM288 530l-47 12
q6 21 31.5 48t25.5 46q0 15 -9.5 24.5t-24.5 9.5q-27 0 -48 -35l-34 20q32 67 97 67q36 0 60.5 -21t24.5 -54q0 -25 -13.5 -43.5t-33.5 -37.5t-29 -36z" />
    <glyph glyph-name="uni1ED0" unicode="&#x1ed0;" horiz-adv-x="689" 
d="M349 685q137 0 220 -95t83 -246q0 -168 -89 -261.5t-224 -93.5q-134 0 -218.5 95t-84.5 247q0 159 88 256.5t225 97.5zM345 614q-103 0 -159.5 -81.5t-56.5 -199.5q0 -113 58 -193t157 -80q100 0 158 80t58 200q0 110 -56.5 192t-158.5 82zM321 824h63l95 -114h-70
l-56 70h-2l-55 -70h-67zM515 900h89l-121 -105h-52z" />
    <glyph glyph-name="uni1ED1" unicode="&#x1ed1;" horiz-adv-x="549" 
d="M278 495q104 0 168.5 -69t64.5 -180q0 -125 -71.5 -191t-169.5 -66q-100 0 -166 68t-66 181q0 118 68 187.5t172 69.5zM276 429q-73 0 -111 -55.5t-38 -132.5q0 -80 41.5 -133t105.5 -53q63 0 105 53.5t42 134.5q0 44 -14 84.5t-48 71t-83 30.5zM246 693h65l86 -143h-67
l-51 94h-2l-51 -94h-64zM437 775h82l-99 -132h-51z" />
    <glyph glyph-name="uni1ED2" unicode="&#x1ed2;" horiz-adv-x="689" 
d="M349 685q137 0 220 -95t83 -246q0 -168 -89 -261.5t-224 -93.5q-134 0 -218.5 95t-84.5 247q0 159 88 256.5t225 97.5zM345 614q-103 0 -159.5 -81.5t-56.5 -199.5q0 -113 58 -193t157 -80q100 0 158 80t58 200q0 110 -56.5 192t-158.5 82zM379 881h91l72 -105h-53z
M317 824h63l94 -114h-69l-56 70h-2l-55 -70h-68z" />
    <glyph glyph-name="uni1ED3" unicode="&#x1ed3;" horiz-adv-x="549" 
d="M278 495q104 0 168.5 -69t64.5 -180q0 -125 -71.5 -191t-169.5 -66q-100 0 -166 68t-66 181q0 118 68 187.5t172 69.5zM276 429q-73 0 -111 -55.5t-38 -132.5q0 -80 41.5 -133t105.5 -53q63 0 105 53.5t42 134.5q0 44 -14 84.5t-48 71t-83 30.5zM318 775h80l64 -132h-51z
M247 693h64l86 -143h-67l-50 94h-3l-50 -94h-65z" />
    <glyph glyph-name="uni1ED4" unicode="&#x1ed4;" horiz-adv-x="689" 
d="M349 685q137 0 220 -95t83 -246q0 -168 -89 -261.5t-224 -93.5q-134 0 -218.5 95t-84.5 247q0 159 88 256.5t225 97.5zM345 614q-103 0 -159.5 -81.5t-56.5 -199.5q0 -113 58 -193t157 -80q100 0 158 80t58 200q0 110 -56.5 192t-158.5 82zM318 824h63l94 -114h-70
l-55 70h-2l-55 -70h-68zM500 754l-42 12q7 19 29.5 42.5t22.5 40.5q0 14 -10 23.5t-24 9.5q-25 0 -49 -37l-32 19q31 64 95 64q34 0 56.5 -20t22.5 -50q0 -28 -30.5 -58.5t-38.5 -45.5z" />
    <glyph glyph-name="uni1ED5" unicode="&#x1ed5;" horiz-adv-x="549" 
d="M278 495q104 0 168.5 -69t64.5 -180q0 -125 -71.5 -191t-169.5 -66q-100 0 -166 68t-66 181q0 118 68 187.5t172 69.5zM276 429q-73 0 -111 -55.5t-38 -132.5q0 -80 41.5 -133t105.5 -53q63 0 105 53.5t42 134.5q0 44 -14 84.5t-48 71t-83 30.5zM241 693h65l86 -143h-67
l-51 94h-2l-51 -94h-64zM421 635l-44 11q8 20 29.5 43t21.5 39q0 14 -10 23.5t-24 9.5q-24 0 -47 -36l-32 20q32 64 95 64q34 0 57 -21t23 -50q0 -22 -11 -37t-29.5 -32t-28.5 -34z" />
    <glyph glyph-name="uni1ED6" unicode="&#x1ed6;" horiz-adv-x="689" 
d="M349 685q137 0 220 -95t83 -246q0 -168 -89 -261.5t-224 -93.5q-134 0 -218.5 95t-84.5 247q0 159 88 256.5t225 97.5zM345 614q-103 0 -159.5 -81.5t-56.5 -199.5q0 -113 58 -193t157 -80q100 0 158 80t58 200q0 110 -56.5 192t-158.5 82zM311 824h67l104 -114h-73
l-64 69h-2l-64 -69h-71zM273 837h-49q-1 43 18 69t50 26q23 0 62 -22q32 -16 43 -16q24 0 27 41h47q2 -96 -68 -96q-21 0 -61 21q-31 17 -44 17q-23 0 -25 -40z" />
    <glyph glyph-name="uni1ED7" unicode="&#x1ed7;" horiz-adv-x="549" 
d="M278 495q104 0 168.5 -69t64.5 -180q0 -125 -71.5 -191t-169.5 -66q-100 0 -166 68t-66 181q0 118 68 187.5t172 69.5zM276 429q-73 0 -111 -55.5t-38 -132.5q0 -80 41.5 -133t105.5 -53q63 0 105 53.5t42 134.5q0 44 -14 84.5t-48 71t-83 30.5zM241 668h65l91 -118h-69
l-54 73h-2l-53 -73h-67zM202 680h-48q-1 43 17.5 69t49.5 26q20 0 62 -22q28 -16 43 -16q24 0 27 40h47q2 -96 -68 -96q-21 0 -61 21q-31 17 -43 17q-24 0 -26 -39z" />
    <glyph glyph-name="uni1ED8" unicode="&#x1ed8;" horiz-adv-x="689" 
d="M349 685q137 0 220 -95t83 -246q0 -168 -89 -261.5t-224 -93.5q-134 0 -218.5 95t-84.5 247q0 159 88 256.5t225 97.5zM345 614q-103 0 -159.5 -81.5t-56.5 -199.5q0 -113 58 -193t157 -80q100 0 158 80t58 200q0 110 -56.5 192t-158.5 82zM310 827h67l105 -114h-74
l-64 69h-2l-63 -69h-72zM345 -181q-21 0 -35.5 15.5t-14.5 35.5t15 35t36 15q20 0 34 -15t14 -35t-14.5 -35.5t-34.5 -15.5z" />
    <glyph glyph-name="uni1ED9" unicode="&#x1ed9;" horiz-adv-x="549" 
d="M278 495q104 0 168.5 -69t64.5 -180q0 -125 -71.5 -191t-169.5 -66q-100 0 -166 68t-66 181q0 118 68 187.5t172 69.5zM276 429q-73 0 -111 -55.5t-38 -132.5q0 -80 41.5 -133t105.5 -53q63 0 105 53.5t42 134.5q0 44 -14 84.5t-48 71t-83 30.5zM243 693h61l96 -143h-68
l-58 95h-2l-58 -95h-65zM275 -80q21 0 35 -15t14 -36q0 -22 -14 -37t-37 -15q-21 0 -35 15.5t-14 36.5t14.5 36t36.5 15z" />
    <glyph glyph-name="uni1EDA" unicode="&#x1eda;" horiz-adv-x="689" 
d="M344 60q100 0 158 80t58 200q0 110 -56.5 192t-158.5 82q-103 0 -160 -82t-56 -199q-1 -112 57.5 -192.5t157.5 -80.5zM593 740l68 13q18 -40 18 -82q0 -44 -26.5 -69t-78.5 -20q78 -90 78 -238q0 -168 -89 -261.5t-224 -93.5q-134 0 -218.5 95t-84.5 247q0 159 88 256.5
t225 97.5q55 0 104 -17q10 -3 33.5 -13t43.5 -16.5t34 -6.5q45 0 45 44q0 32 -16 64zM392 827h107l-128 -117h-71z" />
    <glyph glyph-name="uni1EDB" unicode="&#x1edb;" horiz-adv-x="553" 
d="M276 429q-73 0 -111 -55.5t-38 -132.5q0 -80 41.5 -133t105.5 -53q63 0 105 53.5t42 134.5q0 44 -14 84.5t-48 71t-83 30.5zM470 554l67 12q17 -36 17 -73q0 -42 -24 -65.5t-69 -21.5q50 -62 50 -160q0 -125 -71.5 -191t-169.5 -66q-100 0 -166 68t-66 181
q0 118 68 187.5t172 69.5q41 0 83 -14q8 -2 24.5 -9.5t31.5 -12t29 -4.5q40 0 40 40q0 29 -16 59zM319 693h97l-123 -143h-62z" />
    <glyph glyph-name="uni1EDC" unicode="&#x1edc;" horiz-adv-x="689" 
d="M344 60q100 0 158 80t58 200q0 110 -56.5 192t-158.5 82q-103 0 -160 -82t-56 -199q-1 -112 57.5 -192.5t157.5 -80.5zM593 740l68 13q18 -40 18 -82q0 -44 -26.5 -69t-78.5 -20q78 -90 78 -238q0 -168 -89 -261.5t-224 -93.5q-134 0 -218.5 95t-84.5 247q0 159 88 256.5
t225 97.5q55 0 104 -17q10 -3 33.5 -13t43.5 -16.5t34 -6.5q45 0 45 44q0 32 -16 64zM206 827h107l92 -116h-71z" />
    <glyph glyph-name="uni1EDD" unicode="&#x1edd;" horiz-adv-x="553" 
d="M276 429q-73 0 -111 -55.5t-38 -132.5q0 -80 41.5 -133t105.5 -53q63 0 105 53.5t42 134.5q0 44 -14 84.5t-48 71t-83 30.5zM470 554l67 12q17 -36 17 -73q0 -42 -24 -65.5t-69 -21.5q50 -62 50 -160q0 -125 -71.5 -191t-169.5 -66q-100 0 -166 68t-66 181
q0 118 68 187.5t172 69.5q41 0 83 -14q8 -2 24.5 -9.5t31.5 -12t29 -4.5q40 0 40 40q0 29 -16 59zM147 693h96l88 -143h-62z" />
    <glyph glyph-name="uni1EDE" unicode="&#x1ede;" horiz-adv-x="689" 
d="M344 60q100 0 158 80t58 200q0 110 -56.5 192t-158.5 82q-103 0 -160 -82t-56 -199q-1 -112 57.5 -192.5t157.5 -80.5zM593 740l68 13q18 -40 18 -82q0 -44 -26.5 -69t-78.5 -20q78 -90 78 -238q0 -168 -89 -261.5t-224 -93.5q-134 0 -218.5 95t-84.5 247q0 159 88 256.5
t225 97.5q55 0 104 -17q10 -3 33.5 -13t43.5 -16.5t34 -6.5q45 0 45 44q0 32 -16 64zM368 709l-47 13q8 20 30.5 43.5t22.5 40.5q0 14 -9.5 22.5t-24.5 8.5q-26 0 -49 -35l-34 20q35 67 99 67q35 0 59 -20.5t24 -51.5q0 -30 -32 -62.5t-39 -45.5z" />
    <glyph glyph-name="uni1EDF" unicode="&#x1edf;" horiz-adv-x="553" 
d="M276 429q-73 0 -111 -55.5t-38 -132.5q0 -80 41.5 -133t105.5 -53q63 0 105 53.5t42 134.5q0 44 -14 84.5t-48 71t-83 30.5zM470 554l67 12q17 -36 17 -73q0 -42 -24 -65.5t-69 -21.5q50 -62 50 -160q0 -125 -71.5 -191t-169.5 -66q-100 0 -166 68t-66 181
q0 118 68 187.5t172 69.5q41 0 83 -14q8 -2 24.5 -9.5t31.5 -12t29 -4.5q40 0 40 40q0 29 -16 59zM288 530l-47 12q6 21 31.5 48t25.5 46q0 15 -9.5 24.5t-24.5 9.5q-27 0 -48 -35l-34 20q32 67 97 67q36 0 60.5 -21t24.5 -54q0 -25 -13.5 -43.5t-33.5 -37.5t-29 -36z" />
    <glyph glyph-name="uni1EE0" unicode="&#x1ee0;" horiz-adv-x="689" 
d="M344 60q100 0 158 80t58 200q0 110 -56.5 192t-158.5 82q-103 0 -160 -82t-56 -199q-1 -112 57.5 -192.5t157.5 -80.5zM593 740l68 13q18 -40 18 -82q0 -44 -26.5 -69t-78.5 -20q78 -90 78 -238q0 -168 -89 -261.5t-224 -93.5q-134 0 -218.5 95t-84.5 247q0 159 88 256.5
t225 97.5q55 0 104 -17q10 -3 33.5 -13t43.5 -16.5t34 -6.5q45 0 45 44q0 32 -16 64zM274 715h-47q-2 46 17 74t51 28q21 0 59 -20q32 -18 48 -18q13 0 19.5 8t7.5 31h47q2 -97 -68 -97q-23 0 -61 19q-36 19 -47 19q-21 0 -26 -44z" />
    <glyph glyph-name="uni1EE1" unicode="&#x1ee1;" horiz-adv-x="553" 
d="M276 429q-73 0 -111 -55.5t-38 -132.5q0 -80 41.5 -133t105.5 -53q63 0 105 53.5t42 134.5q0 44 -14 84.5t-48 71t-83 30.5zM470 554l67 12q17 -36 17 -73q0 -42 -24 -65.5t-69 -21.5q50 -62 50 -160q0 -125 -71.5 -191t-169.5 -66q-100 0 -166 68t-66 181
q0 118 68 187.5t172 69.5q41 0 83 -14q8 -2 24.5 -9.5t31.5 -12t29 -4.5q40 0 40 40q0 29 -16 59zM199 567h-48q-1 48 17 76t51 28q23 0 62 -22q30 -17 42 -17q13 0 19.5 9.5t8.5 33.5h46q3 -101 -68 -101q-23 0 -61 20q-30 18 -43 18q-23 0 -26 -45z" />
    <glyph glyph-name="uni1EE2" unicode="&#x1ee2;" horiz-adv-x="689" 
d="M344 60q100 0 158 80t58 200q0 110 -56.5 192t-158.5 82q-103 0 -160 -82t-56 -199q-1 -112 57.5 -192.5t157.5 -80.5zM593 740l68 13q18 -40 18 -82q0 -44 -26.5 -69t-78.5 -20q78 -90 78 -238q0 -168 -89 -261.5t-224 -93.5q-134 0 -218.5 95t-84.5 247q0 159 88 256.5
t225 97.5q55 0 104 -17q10 -3 33.5 -13t43.5 -16.5t34 -6.5q45 0 45 44q0 32 -16 64zM345 -181q-21 0 -35.5 15.5t-14.5 35.5t15 35t36 15q20 0 34 -15t14 -35t-14.5 -35.5t-34.5 -15.5z" />
    <glyph glyph-name="uni1EE3" unicode="&#x1ee3;" horiz-adv-x="553" 
d="M276 429q-73 0 -111 -55.5t-38 -132.5q0 -80 41.5 -133t105.5 -53q63 0 105 53.5t42 134.5q0 44 -14 84.5t-48 71t-83 30.5zM470 554l67 12q17 -36 17 -73q0 -42 -24 -65.5t-69 -21.5q50 -62 50 -160q0 -125 -71.5 -191t-169.5 -66q-100 0 -166 68t-66 181
q0 118 68 187.5t172 69.5q41 0 83 -14q8 -2 24.5 -9.5t31.5 -12t29 -4.5q40 0 40 40q0 29 -16 59zM276 -80q20 0 34.5 -15t14.5 -36q0 -22 -14 -37t-37 -15q-21 0 -35.5 15.5t-14.5 36.5t15 36t37 15z" />
    <glyph glyph-name="uni1EE4" unicode="&#x1ee4;" horiz-adv-x="647" 
d="M75 674h88v-399q0 -108 43 -161.5t114 -53.5q78 0 121 53t43 162v399h88v-393q0 -148 -69.5 -220t-185.5 -72q-111 0 -176.5 69.5t-65.5 218.5v397zM324 -181q-21 0 -35.5 15.5t-14.5 35.5t15 35t36 15q20 0 34 -15t14 -35t-14.5 -35.5t-34.5 -15.5z" />
    <glyph glyph-name="uni1EE5" unicode="&#x1ee5;" horiz-adv-x="551" 
d="M478 484v-352q0 -81 4 -132h-78l-5 79h-2q-21 -36 -61.5 -63t-98.5 -27q-31 0 -58.5 9.5t-53 32t-40.5 66t-15 104.5v283h88v-268q0 -154 108 -154q41 0 72 23.5t44 56.5q8 21 8 45v297h88zM276 -80q21 0 35 -15t14 -36q0 -22 -14 -37t-37 -15q-21 0 -35 15.5t-14 36.5
t14.5 36t36.5 15z" />
    <glyph glyph-name="uni1EE6" unicode="&#x1ee6;" horiz-adv-x="647" 
d="M75 674h88v-399q0 -108 43 -161.5t114 -53.5q78 0 121 53t43 162v399h88v-393q0 -148 -69.5 -220t-185.5 -72q-111 0 -176.5 69.5t-65.5 218.5v397zM347 709l-46 13q7 20 29.5 43.5t22.5 40.5q0 14 -9 22.5t-24 8.5q-25 0 -50 -35l-33 20q33 67 99 67q35 0 59 -20.5
t24 -51.5q0 -22 -11.5 -38.5t-31 -34.5t-29.5 -35z" />
    <glyph glyph-name="uni1EE7" unicode="&#x1ee7;" horiz-adv-x="551" 
d="M478 484v-352q0 -81 4 -132h-78l-5 79h-2q-21 -36 -61.5 -63t-98.5 -27q-31 0 -58.5 9.5t-53 32t-40.5 66t-15 104.5v283h88v-268q0 -154 108 -154q41 0 72 23.5t44 56.5q8 21 8 45v297h88zM289 530l-47 12q6 21 31.5 48t25.5 46q0 15 -9.5 24.5t-24.5 9.5q-27 0 -48 -35
l-34 20q32 67 98 67q36 0 60 -21t24 -54q0 -25 -13.5 -43.5t-33.5 -37.5t-29 -36z" />
    <glyph glyph-name="uni1EE8" unicode="&#x1ee8;" horiz-adv-x="677" 
d="M593 770l67 12q17 -37 17 -75t-23 -61t-67 -24l-15 -1v-340q0 -148 -69.5 -220t-185.5 -72q-111 0 -176.5 69.5t-65.5 218.5v397h88v-399q0 -108 43 -161.5t114 -53.5q78 0 121 53t43 162v399h79q25 0 35.5 9t10.5 29q0 29 -16 58zM367 827h106l-127 -117h-72z" />
    <glyph glyph-name="uni1EE9" unicode="&#x1ee9;" horiz-adv-x="551" 
d="M489 581l67 11q18 -33 18 -72q0 -37 -24 -59.5t-61 -24.5l-11 -1v-303q0 -81 4 -132h-78l-5 79h-2q-21 -36 -61.5 -63t-98.5 -27q-31 0 -58.5 9.5t-53 32t-40.5 66t-15 104.5v283h88v-268q0 -154 108 -154q41 0 72 23.5t44 56.5q8 21 8 45v297h69q47 0 47 39q0 27 -17 58
zM331 693h97l-122 -143h-63z" />
    <glyph glyph-name="uni1EEA" unicode="&#x1eea;" horiz-adv-x="677" 
d="M593 770l67 12q17 -37 17 -75t-23 -61t-67 -24l-15 -1v-340q0 -148 -69.5 -220t-185.5 -72q-111 0 -176.5 69.5t-65.5 218.5v397h88v-399q0 -108 43 -161.5t114 -53.5q78 0 121 53t43 162v399h79q25 0 35.5 9t10.5 29q0 29 -16 58zM183 827h107l92 -116h-71z" />
    <glyph glyph-name="uni1EEB" unicode="&#x1eeb;" horiz-adv-x="551" 
d="M489 581l67 11q18 -33 18 -72q0 -37 -24 -59.5t-61 -24.5l-11 -1v-303q0 -81 4 -132h-78l-5 79h-2q-21 -36 -61.5 -63t-98.5 -27q-31 0 -58.5 9.5t-53 32t-40.5 66t-15 104.5v283h88v-268q0 -154 108 -154q41 0 72 23.5t44 56.5q8 21 8 45v297h69q47 0 47 39q0 27 -17 58
zM146 693h96l88 -143h-62z" />
    <glyph glyph-name="uni1EEC" unicode="&#x1eec;" horiz-adv-x="677" 
d="M593 770l67 12q17 -37 17 -75t-23 -61t-67 -24l-15 -1v-340q0 -148 -69.5 -220t-185.5 -72q-111 0 -176.5 69.5t-65.5 218.5v397h88v-399q0 -108 43 -161.5t114 -53.5q78 0 121 53t43 162v399h79q25 0 35.5 9t10.5 29q0 29 -16 58zM363 709l-47 13q7 20 29.5 43.5
t22.5 40.5q0 14 -9 22.5t-24 8.5q-26 0 -49 -35l-34 20q34 67 99 67q35 0 59 -20.5t24 -51.5q0 -30 -32 -62.5t-39 -45.5z" />
    <glyph glyph-name="uni1EED" unicode="&#x1eed;" horiz-adv-x="551" 
d="M489 581l67 11q18 -33 18 -72q0 -37 -24 -59.5t-61 -24.5l-11 -1v-303q0 -81 4 -132h-78l-5 79h-2q-21 -36 -61.5 -63t-98.5 -27q-31 0 -58.5 9.5t-53 32t-40.5 66t-15 104.5v283h88v-268q0 -154 108 -154q41 0 72 23.5t44 56.5q8 21 8 45v297h69q47 0 47 39q0 27 -17 58
zM297 530l-47 12q6 21 31.5 48t25.5 46q0 15 -9.5 24.5t-24.5 9.5q-27 0 -48 -35l-34 20q32 67 98 67q36 0 60 -21t24 -54q0 -25 -13.5 -43.5t-33.5 -37.5t-29 -36z" />
    <glyph glyph-name="uni1EEE" unicode="&#x1eee;" horiz-adv-x="677" 
d="M593 770l67 12q17 -37 17 -75t-23 -61t-67 -24l-15 -1v-340q0 -148 -69.5 -220t-185.5 -72q-111 0 -176.5 69.5t-65.5 218.5v397h88v-399q0 -108 43 -161.5t114 -53.5q78 0 121 53t43 162v399h79q25 0 35.5 9t10.5 29q0 29 -16 58zM261 715h-47q-1 46 17.5 74t50.5 28
q22 0 60 -20q32 -18 47 -18q13 0 19.5 8t8.5 31h46q2 -97 -67 -97q-24 0 -62 19q-36 19 -47 19q-21 0 -26 -44z" />
    <glyph glyph-name="uni1EEF" unicode="&#x1eef;" horiz-adv-x="551" 
d="M489 581l67 11q18 -33 18 -72q0 -37 -24 -59.5t-61 -24.5l-11 -1v-303q0 -81 4 -132h-78l-5 79h-2q-21 -36 -61.5 -63t-98.5 -27q-31 0 -58.5 9.5t-53 32t-40.5 66t-15 104.5v283h88v-268q0 -154 108 -154q41 0 72 23.5t44 56.5q8 21 8 45v297h69q47 0 47 39q0 27 -17 58
zM201 567h-48q-1 48 17.5 76t50.5 28q22 0 63 -22q30 -17 42 -17q24 0 27 43h47q2 -101 -68 -101q-24 0 -62 20q-30 18 -43 18q-23 0 -26 -45z" />
    <glyph glyph-name="uni1EF0" unicode="&#x1ef0;" horiz-adv-x="677" 
d="M593 770l67 12q17 -37 17 -75t-23 -61t-67 -24l-15 -1v-340q0 -148 -69.5 -220t-185.5 -72q-111 0 -176.5 69.5t-65.5 218.5v397h88v-399q0 -108 43 -161.5t114 -53.5q78 0 121 53t43 162v399h79q25 0 35.5 9t10.5 29q0 29 -16 58zM327 -181q-21 0 -35.5 15.5t-14.5 35.5
t14.5 35t35.5 15q20 0 34 -15t14 -35t-14 -35.5t-34 -15.5z" />
    <glyph glyph-name="uni1EF1" unicode="&#x1ef1;" horiz-adv-x="551" 
d="M489 581l67 11q18 -33 18 -72q0 -37 -24 -59.5t-61 -24.5l-11 -1v-303q0 -81 4 -132h-78l-5 79h-2q-21 -36 -61.5 -63t-98.5 -27q-31 0 -58.5 9.5t-53 32t-40.5 66t-15 104.5v283h88v-268q0 -154 108 -154q41 0 72 23.5t44 56.5q8 21 8 45v297h69q47 0 47 39q0 27 -17 58
zM273 -80q21 0 35 -15t14 -36q0 -22 -14 -37t-36 -15q-21 0 -35.5 15.5t-14.5 36.5t14.5 36t36.5 15z" />
    <glyph glyph-name="Ygrave" unicode="&#x1ef2;" horiz-adv-x="541" 
d="M314 0h-88v286l-213 388h99l95 -186q40 -78 67 -139h2q16 37 68 139l97 186h99l-226 -387v-287zM131 820h107l92 -116h-71z" />
    <glyph glyph-name="ygrave" unicode="&#x1ef3;" horiz-adv-x="471" 
d="M9 484h96l106 -286q19 -54 31 -99h2q1 3 12.5 41.5t18.5 59.5l96 284h93l-132 -345q-49 -129 -85.5 -197t-80.5 -106q-53 -47 -108 -57l-22 74q42 13 77 43q47 37 74 98q7 16 7 21q0 7 -6 23zM108 693h96l88 -143h-62z" />
    <glyph glyph-name="uni1EF4" unicode="&#x1ef4;" horiz-adv-x="541" 
d="M314 0h-88v286l-213 388h99l95 -186q40 -78 67 -139h2q16 37 68 139l97 186h99l-226 -387v-287zM271 -181q-21 0 -35.5 15.5t-14.5 35.5t15 35t36 15q20 0 34 -15t14 -35t-14.5 -35.5t-34.5 -15.5z" />
    <glyph glyph-name="uni1EF5" unicode="&#x1ef5;" horiz-adv-x="471" 
d="M9 484h96l106 -286q19 -54 31 -99h2q1 3 12.5 41.5t18.5 59.5l96 284h93l-132 -345q-49 -129 -85.5 -197t-80.5 -106q-53 -47 -108 -57l-22 74q42 13 77 43q47 37 74 98q7 16 7 21q0 7 -6 23zM326 -80q21 0 35 -15t14 -36q0 -22 -14 -37t-36 -15q-21 0 -35.5 15.5
t-14.5 36.5t15 36t36 15z" />
    <glyph glyph-name="uni1EF6" unicode="&#x1ef6;" horiz-adv-x="541" 
d="M314 0h-88v286l-213 388h99l95 -186q40 -78 67 -139h2q16 37 68 139l97 186h99l-226 -387v-287zM294 709l-46 13q7 20 29.5 43.5t22.5 40.5q0 14 -9 22.5t-24 8.5q-25 0 -50 -35l-33 20q34 67 99 67q35 0 59 -20.5t24 -51.5q0 -22 -11.5 -38.5t-31 -34.5t-29.5 -35z" />
    <glyph glyph-name="uni1EF7" unicode="&#x1ef7;" horiz-adv-x="471" 
d="M9 484h96l106 -286q19 -54 31 -99h2q1 3 12.5 41.5t18.5 59.5l96 284h93l-132 -345q-49 -129 -85.5 -197t-80.5 -106q-53 -47 -108 -57l-22 74q42 13 77 43q47 37 74 98q7 16 7 21q0 7 -6 23zM259 530l-48 12q6 21 31.5 48t25.5 46q0 15 -9.5 24.5t-23.5 9.5
q-28 0 -49 -35l-34 20q34 67 98 67q36 0 60 -21t24 -54q0 -25 -13 -43.5t-33 -37.5t-29 -36z" />
    <glyph glyph-name="uni1EF8" unicode="&#x1ef8;" horiz-adv-x="541" 
d="M314 0h-88v286l-213 388h99l95 -186q40 -78 67 -139h2q16 37 68 139l97 186h99l-226 -387v-287zM193 715h-47q-1 46 17.5 74t50.5 28q22 0 60 -20q32 -18 48 -18q12 0 18.5 8t8.5 31h46q2 -97 -67 -97q-25 0 -61 19t-48 19q-21 0 -26 -44z" />
    <glyph glyph-name="uni1EF9" unicode="&#x1ef9;" horiz-adv-x="471" 
d="M9 484h96l106 -286q19 -54 31 -99h2q1 3 12.5 41.5t18.5 59.5l96 284h93l-132 -345q-49 -129 -85.5 -197t-80.5 -106q-53 -47 -108 -57l-22 74q42 13 77 43q47 37 74 98q7 16 7 21q0 7 -6 23zM166 567h-48q-1 48 17 76t51 28q23 0 62 -22q30 -17 42 -17q25 0 28 43h47
q2 -101 -69 -101q-23 0 -61 20q-30 18 -43 18q-23 0 -26 -45z" />
    <glyph glyph-name="uni2010" unicode="&#x2010;" horiz-adv-x="307" 
d="M30 303h247v-65h-247v65z" />
    <glyph glyph-name="endash" unicode="&#x2013;" horiz-adv-x="500" 
d="M30 284h440v-60h-440v60z" />
    <glyph glyph-name="emdash" unicode="&#x2014;" horiz-adv-x="1000" 
d="M30 284h940v-60h-940v60z" />
    <glyph glyph-name="quoteleft" unicode="&#x2018;" horiz-adv-x="207" 
d="M125 451l-90 -10q17 62 44.5 132.5t48.5 105.5l56 6q-41 -114 -59 -234z" />
    <glyph glyph-name="quoteright" unicode="&#x2019;" horiz-adv-x="207" 
d="M93 676l91 9q-17 -62 -45 -132t-49 -105l-56 -7q39 105 59 235z" />
    <glyph glyph-name="quotesinglbase" unicode="&#x201a;" horiz-adv-x="207" 
d="M76 -111l-55 -7q41 116 58 234l91 10q-17 -62 -45 -132t-49 -105z" />
    <glyph glyph-name="quotedblleft" unicode="&#x201c;" horiz-adv-x="354" 
d="M125 451l-91 -10q17 63 45 133t49 105l56 6q-39 -106 -59 -234zM273 451l-90 -10q16 61 44 131.5t49 106.5l56 6q-39 -106 -59 -234z" />
    <glyph glyph-name="quotedblright" unicode="&#x201d;" horiz-adv-x="354" 
d="M93 676l90 9q-17 -62 -44.5 -132t-48.5 -105l-56 -7q40 114 59 235zM241 676l90 9q-17 -62 -44.5 -132t-48.5 -105l-56 -7q39 105 59 235z" />
    <glyph glyph-name="quotedblbase" unicode="&#x201e;" horiz-adv-x="356" 
d="M76 -111l-56 -7q39 104 59 234l90 10q-16 -60 -44 -130.5t-49 -106.5zM224 -111l-56 -7q39 104 59 234l91 10q-17 -62 -45 -132t-49 -105z" />
    <glyph glyph-name="dagger" unicode="&#x2020;" horiz-adv-x="500" 
d="M209 674h82l-8 -211l174 7v-72l-174 8l8 -456h-82l8 456l-174 -8v72l174 -7z" />
    <glyph glyph-name="daggerdbl" unicode="&#x2021;" horiz-adv-x="500" 
d="M210 674h81l-7 -201l173 8v-72l-173 7v-204l173 8v-72l-173 7l7 -205h-81l5 205l-172 -7v72l173 -8v204l-173 -7v72l173 -8z" />
    <glyph glyph-name="bullet" unicode="&#x2022;" horiz-adv-x="282" 
d="M141 157q-44 0 -74.5 30t-30.5 74q-1 44 30 74.5t75 30.5t74.5 -30.5t30.5 -73.5q0 -44 -30.5 -74.5t-74.5 -30.5z" />
    <glyph glyph-name="ellipsis" unicode="&#x2026;" horiz-adv-x="1000" 
d="M167 -11q-26 0 -43 18t-16 45q0 28 16.5 45.5t42.5 17.5q27 0 43 -17.5t16 -45.5q0 -27 -16 -45t-43 -18zM500 -11q-26 0 -43 18t-16 45q0 28 17 45.5t43 17.5t42 -17.5t17 -45.5q0 -27 -16.5 -45t-43.5 -18zM833 -11q-26 0 -42.5 18t-16.5 45q0 28 17 45.5t43 17.5
t42.5 -17.5t16.5 -45.5t-16.5 -45.5t-43.5 -17.5z" />
    <glyph glyph-name="perthousand" unicode="&#x2030;" horiz-adv-x="1156" 
d="M611 392q69 0 109.5 -51t40.5 -143q0 -98 -44.5 -151.5t-110.5 -53.5q-64 0 -107.5 51t-44.5 144q0 95 45 149.5t112 54.5zM608 339q-40 0 -62.5 -41.5t-22.5 -105.5q-1 -64 22 -105t63 -41q42 0 63 40t21 108q0 64 -20.5 104.5t-63.5 40.5zM975 392q69 0 110 -51
t41 -143q0 -98 -44.5 -151.5t-111.5 -53.5q-64 0 -107.5 51t-44.5 144q0 95 45 149.5t112 54.5zM973 339q-40 0 -62.5 -41.5t-22.5 -105.5q-2 -64 21 -105t63 -41q42 0 63 40t21 108q0 65 -20 105t-63 40zM187 661q69 0 110 -51t41 -143q0 -98 -44.5 -151.5t-111.5 -53.5
q-64 0 -107.5 51t-44.5 145q0 94 45 148.5t112 54.5zM184 608q-40 0 -62 -41.5t-22 -105.5q-2 -64 21 -105t63 -41q42 0 63 40t21 108q0 64 -20.5 104.5t-63.5 40.5zM232 -11h-56l382 672h56z" />
    <glyph glyph-name="guilsinglleft" unicode="&#x2039;" horiz-adv-x="255" 
d="M232 436l-134 -184l134 -184h-71l-132 184l132 184h71z" />
    <glyph glyph-name="guilsinglright" unicode="&#x203a;" horiz-adv-x="255" 
d="M157 252l-134 184h70l134 -184l-133 -184h-71z" />
    <glyph glyph-name="fraction" unicode="&#x2044;" horiz-adv-x="121" 
d="M-101 -11h-56l379 672h57z" />
    <glyph glyph-name="zero.superior" unicode="&#x2070;" horiz-adv-x="336" 
d="M166 438q-66 0 -104.5 53t-38.5 146t39.5 147t107.5 54t105.5 -53t37.5 -145q0 -94 -37.5 -148t-109.5 -54zM167 488q37 0 56.5 39.5t19.5 111.5q0 148 -75 148q-34 0 -54.5 -39.5t-20.5 -108.5q0 -71 20 -111t54 -40z" />
    <glyph glyph-name="four.superior" unicode="&#x2074;" horiz-adv-x="347" 
d="M272 443h-67v102h-189v41l177 249h79v-240h56v-50h-56v-102zM205 595v117q0 6 3 63l-2 1q-16 -32 -34 -59l-87 -121l1 -1h119z" />
    <glyph glyph-name="five.superior" unicode="&#x2075;" horiz-adv-x="308" 
d="M268 833v-56h-155l-13 -84q8 1 31 1q56 0 92 -22q56 -31 56 -100q0 -58 -43.5 -96t-112.5 -38q-62 0 -104 23l14 50q40 -21 89 -21q36 0 62 21t26 55q0 79 -113 79q-27 0 -57 -4l26 192h202z" />
    <glyph glyph-name="six.superior" unicode="&#x2076;" horiz-adv-x="332" 
d="M267 837v-53q-33 0 -40 -1q-58 -8 -92.5 -42t-42.5 -81h1q36 42 94 42q54 0 88 -34.5t34 -91.5q0 -58 -39.5 -98t-98.5 -40q-69 0 -108.5 46t-39.5 121q0 109 68 172q49 49 136 58q32 2 40 2zM170 488q31 0 51 24t20 60q0 37 -20.5 59.5t-55.5 22.5q-22 0 -41.5 -12.5
t-29.5 -32.5q-5 -10 -5 -22q0 -43 21.5 -71t59.5 -28z" />
    <glyph glyph-name="seven.superior" unicode="&#x2077;" horiz-adv-x="294" 
d="M19 833h263v-43l-171 -347h-71l171 334v1h-192v55z" />
    <glyph glyph-name="eight.superior" unicode="&#x2078;" horiz-adv-x="328" 
d="M167 838q58 0 90 -28.5t32 -68.5q0 -61 -63 -89v-2q78 -29 78 -98q0 -51 -39.5 -82.5t-102.5 -31.5q-64 0 -101 31t-37 74q0 69 76 101v2q-62 28 -62 86q0 47 37 76.5t92 29.5zM164 485q32 0 52 17.5t20 44.5q0 56 -79 76q-31 -8 -48.5 -27t-17.5 -45q0 -27 20 -46.5
t53 -19.5zM165 791q-30 0 -47 -16t-17 -39q0 -48 70 -66q55 18 55 64q0 23 -15.5 40t-45.5 17z" />
    <glyph glyph-name="nine.superior" unicode="&#x2079;" horiz-adv-x="327" 
d="M58 438v53q20 -2 42 1q50 5 84 33q41 35 51 92l-1 1q-34 -39 -90 -39q-53 0 -87 33.5t-34 86.5q0 57 40 98t101 41q66 0 103 -46t37 -120q0 -116 -69 -180q-48 -46 -131 -52q-23 -4 -46 -2zM161 787q-31 0 -51 -24t-20 -61q0 -32 19.5 -53.5t51.5 -21.5q48 0 71 37
q4 7 4 20q0 46 -18.5 74.5t-56.5 28.5z" />
    <glyph glyph-name="parenleft.superior" unicode="&#x207d;" horiz-adv-x="180" 
d="M117 868h51q-72 -103 -72 -243q0 -132 72 -241h-51q-77 105 -77 241q0 138 77 243z" />
    <glyph glyph-name="parenright.superior" unicode="&#x207e;" horiz-adv-x="180" 
d="M64 384h-51q72 109 72 242q0 135 -72 242h51q77 -103 77 -242q0 -135 -77 -242z" />
    <glyph glyph-name="zero.inferior" unicode="&#x2080;" horiz-adv-x="336" 
d="M166 -152q-66 0 -104.5 53t-38.5 146t39.5 147t107.5 54t105.5 -52.5t37.5 -144.5q0 -94 -37.5 -148.5t-109.5 -54.5zM167 -101q37 0 56.5 39.5t19.5 111.5q0 147 -75 147q-34 0 -54.5 -39t-20.5 -108q0 -72 20 -111.5t54 -39.5z" />
    <glyph glyph-name="one.inferior" unicode="&#x2081;" horiz-adv-x="244" 
d="M177 -147h-70v329h-2l-72 -35l-11 52l94 44h61v-390z" />
    <glyph glyph-name="two.inferior" unicode="&#x2082;" horiz-adv-x="311" 
d="M12 -147v37l63 59q68 61 97 99t29 74q0 30 -19.5 50t-56.5 20q-39 0 -84 -31l-21 45q49 42 122 42q66 0 99.5 -34t33.5 -79q0 -51 -32 -94t-101 -103l-31 -28v-2h171v-55h-270z" />
    <glyph glyph-name="three.inferior" unicode="&#x2083;" horiz-adv-x="305" 
d="M45 170l-17 47q48 31 115 31q61 0 91.5 -27t30.5 -67q0 -30 -20.5 -54t-56.5 -36v-2q42 -6 67.5 -32.5t25.5 -64.5q0 -49 -42.5 -83t-115.5 -34t-114 28l18 50q38 -26 93 -26q43 0 65.5 20.5t21.5 46.5q0 35 -31 52.5t-75 17.5h-27v46h28q33 0 61.5 16t29.5 48
q0 20 -16 34.5t-47 14.5q-47 0 -85 -26z" />
    <glyph glyph-name="four.inferior" unicode="&#x2084;" horiz-adv-x="347" 
d="M272 -147h-67v103h-189v40l177 249h79v-240h56v-49h-56v-103zM205 5v118q0 3 3 63h-2q-19 -37 -34 -59l-87 -120l1 -2h119z" />
    <glyph glyph-name="five.inferior" unicode="&#x2085;" horiz-adv-x="308" 
d="M268 243v-55h-155l-13 -85q16 2 31 2q56 0 92 -22q56 -31 56 -101q0 -58 -43.5 -96t-112.5 -38q-64 0 -104 24l14 50q37 -22 89 -22q35 0 61.5 21t26.5 55q0 80 -113 80q-10 0 -20.5 -0.5t-21 -2t-15.5 -1.5l26 191h202z" />
    <glyph glyph-name="six.inferior" unicode="&#x2086;" horiz-adv-x="332" 
d="M267 247v-52q-26 0 -40 -2q-58 -8 -92.5 -41.5t-42.5 -80.5h1q35 41 94 41q54 0 88 -34.5t34 -90.5q0 -58 -39.5 -98.5t-98.5 -40.5q-69 0 -108.5 46.5t-39.5 120.5q0 110 68 173q51 49 136 57q27 3 40 2zM170 -101q31 0 51 24t20 60q0 37 -20.5 59t-55.5 22
q-23 0 -42 -12.5t-29 -32.5q-5 -10 -5 -21q0 -43 21.5 -71t59.5 -28z" />
    <glyph glyph-name="seven.inferior" unicode="&#x2087;" horiz-adv-x="294" 
d="M19 243h263v-43l-171 -347h-71l171 334v1h-192v55z" />
    <glyph glyph-name="eight.inferior" unicode="&#x2088;" horiz-adv-x="328" 
d="M167 248q58 0 90 -28.5t32 -68.5q0 -60 -63 -88v-2q78 -29 78 -98q0 -51 -39.5 -83t-102.5 -32q-64 0 -101 31t-37 75q0 68 76 100v2q-62 30 -62 87q0 46 37 75.5t92 29.5zM164 -105q32 0 52 18t20 45q0 54 -79 76q-66 -19 -66 -72q0 -28 20 -47.5t53 -19.5zM165 202
q-30 0 -47 -16t-17 -40q0 -47 70 -65q55 16 55 63q0 23 -15.5 40.5t-45.5 17.5z" />
    <glyph glyph-name="nine.inferior" unicode="&#x2089;" horiz-adv-x="327" 
d="M58 -151v52q11 -1 42 1q51 7 84 34q41 33 51 92h-1q-33 -38 -90 -38q-53 0 -87 33.5t-34 86.5q0 57 40 97.5t101 40.5q66 0 103 -45.5t37 -119.5q0 -116 -69 -180q-48 -45 -131 -53q-25 -3 -46 -1zM161 198q-31 0 -51 -24.5t-20 -60.5q0 -32 19.5 -53.5t51.5 -21.5
q48 0 71 36q4 7 4 20q0 46 -18.5 75t-56.5 29z" />
    <glyph glyph-name="parenleft.inferior" unicode="&#x208d;" horiz-adv-x="180" 
d="M117 278h51q-72 -103 -72 -243q0 -133 72 -240h-51q-77 103 -77 240q0 140 77 243z" />
    <glyph glyph-name="parenright.inferior" unicode="&#x208e;" horiz-adv-x="180" 
d="M64 -205h-51q72 107 72 242q0 134 -72 241h51q77 -103 77 -241q0 -137 -77 -242z" />
    <glyph glyph-name="dong" unicode="&#x20ab;" horiz-adv-x="513" 
d="M89 98h337v-59h-337v59zM346 664h76v-68h62v-49h-62v-297q0 -54 3 -89h-69l-3 57h-2q-38 -65 -125 -65q-68 0 -113 48.5t-45 125.5q-1 84 47.5 134.5t120.5 50.5q73 0 108 -51h2v86h-127v49h127v68zM346 311v47q0 16 -3 26q-8 29 -33.5 49t-59.5 20q-48 0 -75.5 -34
t-27.5 -88q0 -51 26 -84.5t73 -33.5q34 0 61 19.5t35 51.5q4 16 4 27z" />
    <glyph glyph-name="Euro" unicode="&#x20ac;" horiz-adv-x="513" 
d="M479 94l17 -63q-62 -42 -149 -42q-126 0 -203 89q-59 65 -72 172h-62v49h57v15q0 17 2 45h-59v50h66q18 103 82 169q80 83 198 83q73 0 133 -32l-20 -66q-47 28 -112 28q-80 0 -132 -55q-44 -43 -60 -127h279v-50h-288q-2 -26 -2 -42v-18h290v-49h-283q11 -83 55 -131
q55 -58 141 -58q64 0 122 33z" />
    <glyph glyph-name="uni20B9" unicode="&#x20b9;" horiz-adv-x="513" 
d="M480 659v-50h-165q48 -38 56 -102h109v-50h-108q-8 -77 -65.5 -122.5t-153.5 -48.5q90 -93 247 -286h-96q-144 174 -245 281v62h55q79 0 123.5 30.5t49.5 83.5h-228v50h225q-21 87 -154 87h-71v65h421z" />
    <glyph glyph-name="uni20BA" unicode="&#x20ba;" horiz-adv-x="513" 
d="M390 307h79q-1 -144 -79.5 -227t-242.5 -83q-25 0 -48 3v296l-88 -32v53l88 32v51l-88 -32v53l88 32v197h83v-167l176 63v-53l-176 -63v-51l175 63v-53l-175 -63v-257q90 4 147.5 62t60.5 176z" />
    <glyph glyph-name="uni2113" unicode="&#x2113;" horiz-adv-x="504" 
d="M194 515v-219q131 134 131 265q0 97 -61 97q-30 0 -50 -36t-20 -107zM432 151l43 -40q-69 -121 -200 -121q-74 0 -114.5 44t-48.5 118v8l-55 -37l-26 49q54 38 79 59v267q0 113 43.5 168t114.5 55q59 0 94.5 -43.5t35.5 -114.5q0 -90 -51 -175t-153 -176v-14
q3 -135 102 -135q77 0 136 88z" />
    <glyph glyph-name="uni2116" unicode="&#x2116;" horiz-adv-x="916" 
d="M728 635q72 0 114.5 -46.5t42.5 -124.5q0 -87 -46 -131t-112 -44q-69 0 -113.5 45.5t-44.5 125.5q0 81 46 128t113 47zM727 585q-41 0 -63.5 -37.5t-22.5 -87.5q0 -52 25 -86.5t61 -34.5q39 0 62.5 34t23.5 89q0 49 -21.5 86t-64.5 37zM859 194h-263v52h263v-52zM152 0
h-78v650h96l170 -321q68 -134 102 -217l1 1q-9 117 -9 270v267h78v-650h-89l-171 323q-61 116 -103 221l-3 -1q6 -126 6 -274v-269z" />
    <glyph glyph-name="trademark" unicode="&#x2122;" horiz-adv-x="619" 
d="M30 674h228v-45h-87v-227h-54v227h-87v45zM606 402h-54l-10 160q-1 11 -1.5 37t-0.5 39h-3q-2 -7 -10 -37t-13 -44l-49 -151h-56l-49 155l-19 77h-3q0 -26 -2 -76l-10 -160h-52l20 272h81l47 -133q6 -21 18 -69h1q2 9 6 23l7 25t6 20l47 134h78z" />
    <glyph glyph-name="Omega" unicode="&#x2126;" horiz-adv-x="705" 
d="M284 0h-254v69h145v4q-56 46 -94 120t-38 165q0 143 89.5 235t224.5 92q137 0 220.5 -91t83.5 -228q0 -96 -38 -170.5t-95 -122.5v-4h147v-69h-253v55q64 44 106.5 122.5t42.5 174.5q0 102 -58 182t-158 80q-101 0 -161 -78.5t-60 -184.5q0 -91 44 -174t106 -122v-55z
" />
    <glyph glyph-name="estimated" unicode="&#x212e;" horiz-adv-x="817" 
d="M782 316h-605q-5 0 -5 -4v-183q0 -10 9 -21q93 -99 229 -99q145 0 240 111h55q-52 -61 -130 -96t-166 -35q-155 0 -264.5 98.5t-109.5 237.5t109.5 237.5t264.5 98.5t264 -98.5t109 -237.5v-9zM646 340v184q0 12 -10 22q-95 95 -226 95q-133 0 -228 -98q-10 -10 -10 -23
v-180q0 -5 5 -5h464q5 0 5 5z" />
    <glyph glyph-name="partialdiff" unicode="&#x2202;" horiz-adv-x="530" 
d="M86 614l-28 59q73 53 173 53q110 0 186.5 -94.5t76.5 -259.5q0 -181 -78 -282t-191 -101q-95 0 -147 62t-52 148q0 102 63.5 173t155.5 71q57 0 101 -26.5t62 -60.5h1q1 10 1 33q0 125 -55.5 195t-131.5 70q-80 0 -137 -40zM232 61q65 0 111 63t57 153q-15 40 -53.5 68
t-87.5 28q-60 0 -102.5 -49.5t-42.5 -122.5q0 -65 32.5 -102.5t85.5 -37.5z" />
    <glyph glyph-name="Delta" unicode="&#x2206;" horiz-adv-x="620" 
d="M25 0v49l235 625h99l232 -624v-50h-566zM118 73h376l-137 371q-36 99 -50 150h-3q-20 -67 -45 -137z" />
    <glyph glyph-name="product" unicode="&#x220f;" horiz-adv-x="615" 
d="M605 577h-93v-667h-83v667h-244v-667h-83v667h-93v73h596v-73z" />
    <glyph glyph-name="summation" unicode="&#x2211;" horiz-adv-x="507" 
d="M514 -90h-505v52l251 316l-238 313v59h461v-72h-349v-4l222 -293l-234 -295v-3h392v-73z" />
    <glyph glyph-name="minus" unicode="&#x2212;" horiz-adv-x="596" 
d="M40 297h516v-60h-516v60z" />
    <glyph glyph-name="uni2215" unicode="&#x2215;" horiz-adv-x="121" 
d="M-101 -11h-56l379 672h57z" />
    <glyph glyph-name="uni2219" unicode="&#x2219;" horiz-adv-x="207" 
d="M103 200q-26 0 -43 18t-16 45q0 27 17 45t43 18t42 -17.5t17 -45.5q0 -27 -16.5 -45t-43.5 -18z" />
    <glyph glyph-name="radical" unicode="&#x221a;" horiz-adv-x="562" 
d="M579 827l-230 -922h-64l-159 428l-75 -32l-19 47l138 58l123 -346q12 -32 19 -64h2q6 35 13 65l186 766h66z" />
    <glyph glyph-name="infinity" unicode="&#x221e;" horiz-adv-x="728" 
d="M541 116q-26 0 -50 8t-50.5 29t-37 31l-39.5 39q-28 -28 -40.5 -39.5t-39 -31.5t-51.5 -28t-54 -8q-63 0 -103.5 41.5t-40.5 106.5q0 60 43.5 104t108.5 44q26 0 50 -8t50.5 -29t37 -31l39.5 -39q28 28 40.5 39.5t39 31.5t51.5 28t54 8q64 0 104 -41.5t40 -106.5
q0 -60 -43.5 -104t-108.5 -44zM542 176q37 0 62.5 26t25.5 62q0 38 -24 63t-61 25q-26 0 -55 -16t-43.5 -30l-42.5 -42l23 -22.5t26.5 -24.5t25 -19.5t31 -16.5t32.5 -5zM183 176q26 0 55 16t43.5 30l42.5 42l-23 22.5t-26.5 24.5t-25 19.5t-31 16.5t-32.5 5
q-37 0 -62.5 -26t-25.5 -62q0 -38 24 -63t61 -25z" />
    <glyph glyph-name="integral" unicode="&#x222b;" horiz-adv-x="316" 
d="M306 788l-11 -56q-18 4 -30 4q-30 0 -46 -22q-30 -38 -30 -158q0 -72 6 -233t6 -237q0 -132 -42 -188q-33 -48 -95 -48q-38 0 -54 9l12 58q16 -6 35 -6q27 0 44 21q31 38 31 154q0 76 -6 239.5t-6 236.5q0 140 52 196q34 37 89 37q27 0 45 -7z" />
    <glyph glyph-name="approxequal" unicode="&#x2248;" horiz-adv-x="596" 
d="M533 416l37 -41q-26 -33 -67 -55.5t-85 -22.5q-17 0 -32 2t-29.5 7t-23.5 8.5t-24 10.5t-19 9q-6 2 -22.5 10t-27.5 12t-29 8t-35 4q-61 0 -118 -59l-35 42q27 32 68 54.5t85 22.5q21 0 41 -4t31.5 -8.5t30.5 -13t25 -10.5q3 -2 22 -10.5t28 -12t27 -7.5t36 -4
q60 0 116 58zM538 218l36 -40q-26 -33 -67.5 -56t-85.5 -23q-20 0 -40 4t-31.5 8.5t-30.5 13t-25 10.5t-23 10t-27.5 12t-28.5 8t-36 4q-62 0 -117 -59l-34 43q25 31 66.5 53.5t85.5 22.5q21 0 42 -4.5t30 -7.5t32 -13.5t24 -10.5q6 -3 22.5 -10.5t27.5 -11.5t28.5 -8
t34.5 -4q33 0 64.5 17.5t52.5 41.5z" />
    <glyph glyph-name="notequal" unicode="&#x2260;" horiz-adv-x="596" 
d="M556 140h-310l-76 -122h-65l79 122h-144v60h182l89 138h-271v60h309l76 122h65l-79 -122h145v-60h-183l-88 -138h271v-60z" />
    <glyph glyph-name="lessequal" unicode="&#x2264;" horiz-adv-x="596" 
d="M530 99l-464 193v59l464 192v-66l-382 -155v-2l382 -154v-67zM530 0h-462v58h462v-58z" />
    <glyph glyph-name="greaterequal" unicode="&#x2265;" horiz-adv-x="596" 
d="M530 292l-464 -193v67l382 154v2l-382 155v66l464 -192v-59zM528 0h-462v58h462v-58z" />
    <glyph glyph-name="lozenge" unicode="&#x25ca;" horiz-adv-x="522" 
d="M477 325l-182 -356h-69l-181 356l181 355h69zM401 323l-130 267q-5 8 -11 23h-2q-3 -13 -10 -23l-128 -264l131 -266l5 -10q4 -9 5 -13h2l10 23z" />
    <glyph glyph-name="G_tildecomb" unicode="&#xe000;" horiz-adv-x="646" 
d="M589 354v-324q-103 -37 -207 -37q-159 0 -252 89q-94 91 -94 251q1 154 99.5 251t265.5 97q104 0 168 -31l-21 -71q-65 29 -149 29q-124 0 -197.5 -72.5t-73.5 -198.5q0 -127 70.5 -199.5t189.5 -72.5q80 0 116 18v201h-137v70h222zM291 715h-47q-1 46 17.5 74t50.5 28
q22 0 60 -20q32 -18 47 -18q13 0 19.5 8t7.5 31h47q2 -97 -68 -97q-23 0 -61 19q-36 19 -47 19q-21 0 -26 -44z" />
    <glyph glyph-name="M_uni0302" unicode="&#xe001;" horiz-adv-x="804" 
d="M661 0l-17 296q-11 207 -10 291h-3q-34 -115 -85 -256l-119 -327h-66l-109 321q-53 159 -78 262h-2q-3 -132 -13 -298l-18 -289h-83l47 674h111l115 -326q46 -136 68 -227h3q22 89 71 227l120 326h111l42 -674h-85zM367 824h67l105 -114h-74l-63 69h-2l-64 -69h-72z" />
    <glyph glyph-name="N_uni0302" unicode="&#xe002;" horiz-adv-x="658" 
d="M158 0h-82v674h95l216 -341q73 -115 121 -219l2 1q-10 113 -10 277v282h82v-674h-88l-214 342q-83 132 -126 225l-3 -1q7 -119 7 -278v-288zM295 824h67l104 -114h-73l-64 69h-2l-64 -69h-71z" />
    </font>
</defs>
</svg>
